<?xml version="1.0" standalone="no"?>
<!DOCTYPE svg PUBLIC "-//W3C//DTD SVG 20010904//EN"
 "http://www.w3.org/TR/2001/REC-SVG-20010904/DTD/svg10.dtd">
<svg version="1.0" xmlns="http://www.w3.org/2000/svg"
 width="675.000000pt" height="675.000000pt" viewBox="0 0 675.000000 675.000000"
 preserveAspectRatio="xMidYMid meet">
<metadata>
Created by potrace 1.14, written by Peter Selinger 2001-2017
</metadata>
<g transform="translate(0.000000,675.000000) scale(0.100000,-0.100000)"
fill="#000000" stroke="none">
<path d="M765 5384 c-5 -21 -10 -46 -12 -54 -10 -36 -5 -211 7 -275 7 -38 25
-101 41 -138 63 -155 138 -246 285 -343 152 -101 220 -185 228 -278 4 -38 1
-48 -15 -56 -36 -20 -116 38 -170 121 -27 43 -34 48 -39 33 -10 -28 0 -94 21
-140 40 -85 127 -149 242 -180 50 -13 247 -13 322 1 17 3 86 7 155 10 165 7
235 -9 339 -79 l44 -29 -26 44 c-71 120 -157 191 -317 260 -52 23 -99 42 -105
44 -5 1 -19 6 -30 10 -11 5 -41 16 -67 26 -203 78 -447 258 -567 419 -14 19
-32 41 -39 49 -32 33 -130 195 -173 286 -27 55 -64 147 -82 204 l-34 104 -8
-39z"/>
<path d="M6111 5350 c-83 -267 -246 -531 -443 -715 -153 -142 -278 -214 -578
-331 -187 -74 -286 -144 -353 -251 -40 -65 -41 -77 -4 -49 38 29 116 64 166
74 49 9 243 9 311 -1 271 -38 440 -3 541 112 40 45 69 119 69 176 0 48 -10 49
-40 2 -32 -50 -78 -96 -121 -119 -101 -54 -87 108 18 215 20 21 83 70 139 108
57 39 127 96 157 128 63 68 127 187 157 291 27 90 34 282 16 375 l-12 60 -23
-75z"/>
<path d="M1105 5214 c34 -144 80 -255 150 -364 113 -176 254 -271 560 -381 77
-28 154 -57 172 -65 17 -8 36 -14 41 -14 32 0 259 -124 322 -175 159 -130 223
-279 162 -377 -80 -129 -350 -78 -487 92 -16 21 -33 36 -36 34 -11 -6 -4 -95
11 -139 27 -82 103 -167 200 -221 25 -14 108 -51 185 -81 191 -74 339 -153
411 -218 6 -5 33 -28 59 -50 50 -41 137 -146 169 -205 26 -47 45 -131 39 -177
-7 -58 -46 -130 -118 -218 -93 -115 -125 -188 -130 -300 -2 -57 15 -148 35
-185 13 -25 14 -24 29 31 31 111 107 194 189 209 78 13 128 -32 116 -107 -3
-21 -31 -90 -62 -153 -56 -113 -57 -116 -56 -200 1 -84 22 -160 58 -211 11
-17 13 -12 13 40 -1 118 96 232 158 187 17 -12 19 -30 21 -172 1 -88 5 -172 8
-189 18 -85 54 -170 103 -249 l25 -38 25 37 c84 123 115 249 114 452 l-1 142
26 17 c24 16 27 16 57 -1 65 -39 101 -112 96 -194 -2 -28 -1 -51 2 -51 10 0
47 92 63 152 24 94 14 148 -50 277 -69 139 -79 193 -43 234 78 87 236 -12 285
-179 l17 -59 21 45 c15 33 21 69 23 137 3 139 -23 203 -141 347 -85 103 -100
137 -100 226 -1 112 40 190 165 317 122 123 271 214 489 298 174 66 254 110
314 171 77 78 118 175 108 256 -3 26 -5 25 -66 -36 -154 -155 -373 -189 -460
-73 -31 42 -29 135 3 202 47 95 186 217 328 289 65 32 169 74 332 132 307 109
451 200 566 354 79 106 156 290 180 430 6 32 3 30 -36 -30 -139 -218 -340
-376 -602 -474 -96 -36 -285 -88 -361 -100 -21 -4 -42 -8 -46 -11 -3 -2 -22
-7 -41 -10 -19 -3 -41 -8 -49 -10 -8 -2 -27 -7 -42 -10 -183 -35 -345 -83
-480 -141 -214 -92 -402 -264 -473 -434 -25 -60 -30 -65 -34 -32 -7 50 -6 276
2 325 21 129 86 225 169 248 47 12 136 3 195 -22 40 -16 47 -10 31 27 -26 61
-71 115 -131 157 -106 75 -212 105 -402 113 -321 13 -389 20 -476 54 -67 25
-115 63 -151 119 l-30 46 5 -61 c12 -144 119 -261 297 -324 36 -13 66 -24 68
-25 1 -1 -5 -19 -13 -39 -27 -65 -21 -166 19 -320 36 -138 54 -310 34 -322 -4
-3 -8 1 -8 8 -1 24 -68 148 -107 195 -140 173 -335 290 -615 369 -51 14 -100
27 -108 29 -8 2 -100 22 -205 45 -195 42 -382 88 -400 99 -5 3 -12 6 -15 6
-51 6 -257 105 -348 167 -98 67 -237 207 -298 301 -64 98 -65 98 -49 31z"/>
<path d="M1274 3955 c14 -40 72 -129 114 -176 80 -90 141 -114 342 -134 128
-13 148 -16 200 -31 30 -9 65 -22 78 -30 12 -8 22 -10 22 -5 0 17 -87 127
-126 160 -66 55 -188 106 -304 128 -148 27 -285 69 -319 96 -12 10 -13 9 -7
-8z"/>
<path d="M5595 3947 c-29 -19 -124 -48 -198 -61 -15 -3 -35 -7 -45 -10 -9 -3
-28 -7 -42 -10 -44 -7 -150 -36 -178 -48 -94 -41 -193 -127 -239 -209 l-23
-39 39 20 c55 28 115 40 276 55 205 20 291 64 382 195 73 108 83 143 28 107z"/>
<path d="M1091 3859 c9 -301 238 -571 554 -654 31 -8 59 -16 63 -18 24 -15
242 -43 407 -52 210 -12 310 -22 420 -44 50 -10 126 -33 171 -50 74 -29 210
-109 226 -135 4 -6 10 -8 13 -4 10 10 -50 119 -97 175 -47 57 -119 116 -188
156 -49 28 -190 89 -190 82 0 -3 -17 2 -37 9 -38 14 -166 40 -253 51 -87 11
-125 16 -151 21 -15 2 -44 6 -65 9 -40 5 -55 8 -139 25 -27 6 -61 12 -74 15
-49 9 -188 58 -257 90 -155 71 -289 192 -358 325 -20 38 -39 70 -42 70 -3 0
-4 -32 -3 -71z"/>
<path d="M5800 3920 c0 -27 -93 -161 -156 -225 -167 -168 -389 -250 -844 -310
-25 -3 -56 -8 -70 -10 -14 -2 -45 -7 -70 -10 -184 -24 -374 -96 -496 -186 -85
-62 -169 -171 -204 -264 -9 -23 -4 -21 42 16 123 97 318 165 523 184 136 12
161 14 270 20 61 3 126 8 145 10 19 2 60 7 90 10 391 43 689 262 765 563 18
68 26 212 13 212 -4 0 -8 -4 -8 -10z"/>
</g>
</svg>
