<svg xml:space="preserve" viewBox="268.26752000000005 172.7145984 745.472 665.6" version="1.1" xmlns:xlink="http://www.w3.org/1999/xlink" xmlns="http://www.w3.org/2000/svg" style="max-height: 500px" width="745.472" height="665.6">
<desc>Created with Fabric.js 5.3.0</desc>
<defs>
</defs>
<g id="background-logo" transform="matrix(1 0 0 1 640 512)">
<rect height="1024" width="1280" ry="0" rx="0" y="-512" x="-640" paint-order="stroke" style="stroke: none; stroke-width: 0; stroke-dasharray: none; stroke-linecap: butt; stroke-dashoffset: 0; stroke-linejoin: miter; stroke-miterlimit: 4; fill: rgb(255,255,255); fill-opacity: 0; fill-rule: nonzero; opacity: 1;"/>
</g>
<g id="text-logo" transform="matrix(1.9211538461538462 0 0 1.9211538461538462 642.2779098684213 662.5095543031854)">
<g paint-order="stroke" style="">
		<g id="text-logo-path-0" transform="matrix(1 0 0 1 0 0)">
<linearGradient y2="62.58275999999995" x2="-4.108504783630394" y1="-12.41724000000005" x1="-4.108504783630394" gradientTransform="matrix(1 0 0 1 4.090000000000003 -45.61)" gradientUnits="userSpaceOnUse" id="SVGID_1854750">
<stop style="stop-color:rgb(250,217,97);stop-opacity: 1" offset="0%"/>
<stop style="stop-color:rgb(247,107,28);stop-opacity: 1" offset="100%"/>
</linearGradient>
<path stroke-linecap="round" d="M 32.41 -34.72 L 32.41 -45.14 L 4.09 -45.14 L 4.09 0 L 15.11 0 L 15.11 -17.09 L 31.75 -17.09 L 31.75 -27.52 L 15.11 -27.52 L 15.11 -34.72 Z M 49.83 -10.36 L 49.83 -45.14 L 38.81 -45.14 L 38.81 0 L 67.32 0 L 67.32 -10.36 Z M 103.29 0 L 115.04 0 L 98.47 -45.14 L 86.72 -45.14 L 70.22 0 L 81.97 0 L 84.88 -7.85 L 100.39 -7.85 Z M 88.64 -18.28 L 92.66 -29.17 L 96.56 -18.28 Z M 152.66 -45.08 L 152.59 -45.14 L 140.78 -25.41 L 128.96 -45.14 L 117.94 -45.14 L 117.94 0 L 128.96 0 L 128.96 -25.01 L 139.46 -7.39 L 142.16 -7.39 L 152.66 -25.01 L 152.66 0 L 163.61 0 L 163.61 -45.14 L 152.66 -45.14 Z M 182.82 -10.36 L 182.82 -17.89 L 198.53 -17.89 L 198.53 -28.25 L 182.82 -28.25 L 182.82 -34.72 L 200.11 -34.72 L 200.11 -45.14 L 171.8 -45.14 L 171.8 0 L 200.44 0 L 200.44 -10.36 Z M 255.55 -45.14 L 248.56 -17.89 L 240.77 -45.14 L 229.42 -45.14 L 221.63 -17.89 L 214.7 -45.14 L 203.35 -45.14 L 215.56 0 L 227.24 0 L 235.09 -26.27 L 242.95 0 L 254.63 0 L 266.84 -45.14 Z M 270.4 -45.14 L 270.4 0 L 281.42 0 L 281.42 -45.14 Z M 315.28 -45.14 L 315.28 -22.18 L 300.63 -45.14 L 289.61 -45.14 L 289.61 0 L 300.63 0 L 300.63 -25.81 L 317.13 0 L 326.3 0 L 326.3 -45.14 Z M 377.32 -20.72 L 377.32 -25.21 L 352.37 -25.21 L 352.37 -14.78 L 363.99 -14.78 C 361.68 -11.81 358.18 -10.1 354.42 -10.1 C 347.69 -10.1 342.08 -15.71 342.08 -22.37 C 342.08 -29.11 347.75 -34.65 354.42 -34.65 C 358.51 -34.65 361.75 -32.87 364.25 -29.63 L 372.83 -36.43 C 368.35 -42.24 361.81 -45.61 354.42 -45.61 C 341.48 -45.61 331.12 -35.18 331.12 -22.37 C 331.12 -9.5 341.68 0.92 354.42 0.92 C 366.43 0.92 377.32 -8.45 377.32 -20.72 Z" transform="translate(-190.705, 22.345)" paint-order="stroke" style="stroke: none; stroke-width: 0; stroke-dasharray: none; stroke-linecap: butt; stroke-dashoffset: 0; stroke-linejoin: miter; stroke-miterlimit: 4; fill: url(#SVGID_1854750); fill-rule: nonzero; opacity: 1;"/>
</g>
</g>
</g>
<g id="tagline-067d9d5c-40fc-4e5e-9cb0-984cbb6e144c-logo" transform="matrix(1.9211538461538462 0 0 1.9211538461538462 643.2778704453442 784.1886764570315)">
<g paint-order="stroke" style="">
		<g id="tagline-067d9d5c-40fc-4e5e-9cb0-984cbb6e144c-logo-path-0" transform="matrix(1 0 0 1 0 0)">
<linearGradient y2="47.32128" x2="-3.6240003662109643" y1="-6.678719999999998" x1="-3.6240003662109643" gradientTransform="matrix(1 0 0 1 3.6500000000000057 -35.52)" gradientUnits="userSpaceOnUse" id="SVGID_1854751">
<stop style="stop-color:rgb(250,217,97);stop-opacity: 1" offset="0%"/>
<stop style="stop-color:rgb(247,107,28);stop-opacity: 1" offset="100%"/>
</linearGradient>
<path stroke-linecap="round" d="M 40.51 0 L 40.51 -35.52 L 35.04 -35.52 L 22.08 -5.28 L 9.12 -35.52 L 3.65 -35.52 L 3.65 0 L 7.2 0 L 7.2 -31.49 L 20.54 0 L 23.62 0 L 36.96 -31.58 L 36.96 0 Z M 67.49 0 L 67.49 -3.26 L 51.65 -3.26 L 51.65 -16.32 L 67.01 -16.32 L 67.01 -19.49 L 51.65 -19.49 L 51.65 -32.26 L 67.49 -32.26 L 67.49 -35.52 L 48.1 -35.52 L 48.1 0 Z M 104.16 -17.86 C 104.16 -23.04 101.86 -27.17 98.98 -30.14 C 95.52 -33.79 89.95 -35.52 84.38 -35.52 L 74.21 -35.52 L 74.21 0 L 85.15 0 C 91.1 0 96 -2.02 98.88 -5.09 C 102.62 -9.02 104.16 -13.15 104.16 -17.86 Z M 100.61 -17.86 C 100.61 -12.96 98.59 -9.41 95.14 -6.53 C 91.97 -3.84 87.55 -3.26 83.52 -3.26 L 77.76 -3.26 L 77.76 -32.26 L 84.48 -32.26 C 89.57 -32.26 93.98 -30.72 97.06 -27.26 C 99.26 -24.86 100.61 -21.7 100.61 -17.86 Z M 113.86 0 L 113.86 -35.52 L 110.3 -35.52 L 110.3 0 Z M 152.83 0 L 137.57 -35.52 L 133.63 -35.52 L 118.37 0 L 122.21 0 L 127.3 -11.9 L 143.81 -11.9 L 148.99 0 Z M 142.46 -15.17 L 128.74 -15.17 L 135.65 -31.39 Z" transform="translate(-78.24000000000001, 17.76)" paint-order="stroke" style="stroke: none; stroke-width: 0; stroke-dasharray: none; stroke-linecap: butt; stroke-dashoffset: 0; stroke-linejoin: miter; stroke-miterlimit: 4; fill: url(#SVGID_1854751); fill-rule: nonzero; opacity: 1;"/>
</g>
</g>
</g>
<g id="shape-4b17c70d-43ce-4f62-aa49-ac9a192a1df5" transform="matrix(2.1666713540454463 0 0 2.1666713540454463 640.2808704453442 388.7078734817815)">
<g paint-order="stroke" style="">
		<g id="path-01_00000097483187905052878960000005548186538314872210_" transform="matrix(1 0 0 1 0 0)">
<linearGradient y2="189" x2="0" y1="0" x1="0" gradientTransform="matrix(1 0 0 1 67.23094757279767 302.27131999999995)" gradientUnits="userSpaceOnUse" id="SVGID_1854749">
<stop style="stop-color:rgb(250,217,97);stop-opacity: 1" offset="0%"/>
<stop style="stop-color:rgb(247,107,28);stop-opacity: 1" offset="100%"/>
</linearGradient>
<path stroke-linecap="round" d="M 305.35995 338.88928 C 302.52594000000005 341.11572 299.33401000000003 342.73355 296.54199000000006 345.02588 C 293.7500600000001 347.31820999999997 291.29077000000007 350.50806 290.80740000000003 354.43429999999995 C 290.70709000000005 355.24917999999997 290.73056 356.19085999999993 291.25702 356.78518999999994 C 292.01910000000004 357.6455399999999 293.27631 357.23898999999994 294.18912 356.67977999999994 C 297.13166 354.87719999999996 299.55313 352.0426999999999 301.05338 348.6447799999999 C 302.16642 351.98403999999994 301.07731 355.7565699999999 299.13941 358.4262099999999 C 295.5283 363.4006999999999 289.4538 365.2205799999999 283.6782 365.3140899999999 C 277.90253 365.4075299999999 272.12922000000003 364.0530399999999 266.34626000000003 363.8957599999999 C 260.56327000000005 363.7384699999999 253.67400000000004 364.9166299999999 249.57063000000002 369.3678099999999 C 251.66527000000002 363.6064599999999 256.28984 359.5595499999999 261.24574 356.9070299999999 C 266.20161 354.25452999999993 271.5991 352.7594499999999 276.72923000000003 350.5416399999999 C 295.45283 342.4473699999999 310.26408000000004 324.18515999999994 315.87806 302.27131999999995 C 319.68527 315.62598 315.23053 331.13486 305.35995 338.88928 z M 248.99419 397.19632 C 235.24268 399.05212 220.25782 404.58914000000004 215.09566 419.45139 C 227.82613 407.72782 244.37303 408.84839 260.32175 407.58127 C 270.42151 406.77884 280.68836 404.40604 288.83182 398.22904 C 296.97537 392.05204 302.59711 381.45261 301.04064999999997 370.82511 C 291.99411 392.56638 268.63528 394.54572 248.99419 397.19632 z M 293.38614 369.3678 C 284.94846 374.53183 273.60529 373.19815 265.43842 378.78067 C 261.96625 381.15416999999997 259.36258 384.61066 257.29844 388.27515 C 263.82447 382.95874 276.34443000000005 385.99152 283.5763 381.68408999999997 C 288.14468 378.9631 290.8707 374.05252 293.38614 369.3678 z M 210.47734 421.86841 C 208.81653 415.70696999999996 212.72711 409.43237 217.20517999999998 404.88613999999995 C 222.37323999999998 399.63940999999994 228.56544 395.40530999999993 235.32966 392.49288999999993 C 241.01853 390.0434899999999 247.16934999999998 388.4844099999999 252.27928 384.98412999999994 C 257.38916 381.48385999999994 261.34735 375.23214999999993 259.74444 369.24938999999995 C 256.70971 373.95983999999993 251.56593 377.49932999999993 246.08735 378.67876999999993 C 241.04473 379.76436999999993 234.93925 378.40343999999993 234.57460999999998 372.23891999999995 C 234.23431999999997 366.48668999999995 238.91714 361.52068999999995 243.08135 358.1729399999999 C 247.39616999999998 354.7041299999999 252.43606999999997 352.2350399999999 257.5602 350.2073299999999 C 267.59151 346.2377299999999 278.81224000000003 343.7086399999999 287.15752000000003 336.4887299999999 C 295.16088 329.5646299999999 299.38430000000005 319.1521499999999 301.30004 308.7441899999999 C 296.40172 317.81333999999987 288.83657000000005 325.4211599999999 279.79513000000003 330.3703799999999 C 270.80920000000003 335.2892299999999 260.64257000000003 337.5351399999999 250.61830000000003 339.6460099999999 C 240.59404000000004 341.7569099999999 230.41444000000004 343.83835999999985 221.28154000000004 348.4785899999999 C 212.14862000000002 353.1187899999999 204.02681000000004 360.7351199999999 201.17282000000003 370.5736199999999 C 201.17282000000003 370.5736199999999 194.80070000000003 332.2227599999999 219.91746000000003 343.9950399999999 C 219.91746000000003 343.9950399999999 217.92132000000004 329.4498099999999 193.26098000000005 329.3838599999999 C 175.26542000000003 329.33575999999994 167.27812000000006 327.0742899999999 164.53549000000004 319.1350799999999 C 164.53549000000004 319.1350799999999 161.60040000000004 332.9926199999999 181.61680000000004 338.2854099999999 C 181.61680000000004 338.2854099999999 177.95995000000005 343.1932799999999 181.32812000000004 353.3939599999999 C 184.69624000000005 363.5946099999999 183.28906000000003 370.5736199999999 183.28906000000003 370.5736199999999 C 180.43507000000002 360.7351199999999 172.31326000000004 353.1187899999999 163.18034000000003 348.4785899999999 C 154.04744000000002 343.8383599999999 143.86786000000004 341.7569099999999 133.84358000000003 339.6460099999999 C 123.81932000000003 337.5351399999999 113.65268000000003 335.28922999999986 104.66677000000003 330.3703799999999 C 95.62530000000002 325.4211599999999 88.06016000000002 317.8133399999999 83.16185000000003 308.7441899999999 C 85.07759000000003 319.1521499999999 89.30101000000003 329.5646199999999 97.30436000000003 336.4887299999999 C 105.64964000000003 343.70863999999995 116.87038000000004 346.2377199999999 126.90169000000003 350.2073299999999 C 132.02582000000004 352.2350399999999 137.06571000000002 354.7041299999999 141.38054000000002 358.1729399999999 C 145.54474000000002 361.52068999999995 150.22756000000004 366.48668999999995 149.88727000000003 372.23891999999995 C 149.52265000000003 378.40343999999993 143.41716000000002 379.76436999999993 138.37454000000002 378.67876999999993 C 132.89595000000003 377.49932999999993 127.75219000000003 373.95983999999993 124.71744000000002 369.24938999999995 C 123.11453000000003 375.23214999999993 127.07273000000002 381.48385999999994 132.18261 384.98412999999994 C 137.29252000000002 388.48439999999994 143.44334 390.04348999999996 149.13221000000001 392.49288999999993 C 155.89643 395.40529999999995 162.08863000000002 399.6393999999999 167.25669000000002 404.88613999999995 C 171.73478000000003 409.43236999999993 175.64535 415.70696999999996 173.98455 421.8684099999999 C 172.68003000000002 426.70800999999994 168.32293 430.01971999999995 165.65414 434.26244999999994 C 162.00506000000001 440.06353999999993 161.76478 447.8467099999999 165.04908 453.86181999999997 C 167.42123 439.26273 180.33813 438.37699 179.96372 445.66464999999994 C 179.80407 448.77270999999996 177.78476 451.8828199999999 176.3781 454.56454999999994 C 175.38155999999998 456.46444999999994 174.39202999999998 458.19827999999995 174.15475999999998 460.36907999999994 C 173.66485999999998 464.85116999999997 175.41873999999999 470.5333299999999 177.90663999999998 473.8843099999999 C 177.39337999999998 471.5209699999999 177.36057 469.0079999999999 178.15865 466.72500999999994 C 178.85666 464.72833999999995 180.34664999999998 462.75051999999994 182.27503 461.78982999999994 C 183.75109999999998 461.05447999999996 185.18357999999998 461.3325499999999 185.72455 462.95724999999993 C 186.17684 464.3157099999999 185.99689999999998 465.97399999999993 185.88365 467.37799999999993 C 185.17238999999998 476.19656999999995 186.66794 484.58041999999995 192.23092 491.7330099999999 C 197.79391 484.58041999999995 199.28945 476.1965699999999 198.57819 467.37799999999993 C 198.46494 465.9740099999999 198.28502 464.3157099999999 198.73731 462.95724999999993 C 199.27828 461.33255999999994 200.71074000000002 461.05447999999996 202.18683000000001 461.78982999999994 C 204.11519 462.75051999999994 205.60518000000002 464.72833999999995 206.30319000000003 466.72500999999994 C 207.10129000000003 469.0079999999999 207.06846000000002 471.5209699999999 206.55520000000004 473.8843099999999 C 209.04310000000004 470.5333299999999 210.79698000000005 464.8511699999999 210.30708000000004 460.36907999999994 C 210.06981000000005 458.1982699999999 209.08027000000004 456.46444999999994 208.08374000000003 454.56454999999994 C 206.67708000000005 451.8828199999999 204.65779000000003 448.77270999999996 204.49812000000003 445.66464999999994 C 204.12372000000002 438.3769899999999 217.04063000000002 439.2627299999999 219.41276000000002 453.86181999999997 C 222.69706000000002 447.84671 222.45678 440.06354 218.8077 434.26244999999994 C 216.13895 430.01971 211.78185 426.70801 210.47734 421.86841 z M 135.46771 397.19632 C 115.82657 394.54572 92.46774000000002 392.56638000000004 83.42124000000001 370.8251 C 81.86475000000002 381.4526 87.48651000000001 392.05203 95.63003 398.22903 C 103.77355 404.40603000000004 114.04037000000001 406.77883 124.1401 407.58126000000004 C 140.08885 408.84838 156.63576 407.72781000000003 169.36623 419.45138000000003 C 164.20409 404.58914 149.21918 399.05212 135.46771 397.19632 z M 91.07575 369.3678 C 93.5912 374.05252 96.31721 378.96311 100.88559 381.68408 C 108.11744999999999 385.99151 120.63743 382.95874 127.16345 388.27514 C 125.09929 384.61065 122.49564 381.15417 119.02345 378.78066 C 110.85662 373.19815 99.51344 374.53183 91.07575 369.3678 z M 90.27277 356.67978 C 87.33023 354.8772 84.90871 352.04269999999997 83.40849999999999 348.64477999999997 C 82.29547 351.98404 83.38454999999999 355.75656999999995 85.32248999999999 358.42620999999997 C 88.93356999999999 363.4007 95.00809999999998 365.22058 100.78368999999999 365.31408999999996 C 106.55931999999999 365.40752999999995 112.33263 364.05303999999995 118.11560999999999 363.89575999999994 C 123.89858999999998 363.7384799999999 130.78786 364.91662999999994 134.89127 369.36780999999996 C 132.79659999999998 363.60645999999997 128.17204999999998 359.55954999999994 123.21616999999999 356.90702999999996 C 118.26026999999999 354.25453 112.86277999999999 352.75944999999996 107.73263999999999 350.54164 C 89.00907999999998 342.44737 74.19779 324.18516 68.58382999999999 302.27131999999995 C 64.77660999999999 315.6259999999999 69.23132999999999 331.13487999999995 79.10189999999999 338.88929999999993 C 81.93594999999999 341.11573999999996 85.12784999999998 342.73356999999993 87.91985999999999 345.0258999999999 C 90.71184999999998 347.3182299999999 93.17110999999998 350.50807999999995 93.65445999999999 354.4343199999999 C 93.75476999999998 355.2491999999999 93.73133999999999 356.1908799999999 93.20486999999999 356.7852099999999 C 92.44279 357.64554 91.18559 357.23898 90.27277 356.67978 z" transform="translate(-192.23094066692266, -397.00216499999993)" paint-order="stroke" style="stroke: none; stroke-width: 1; stroke-dasharray: none; stroke-linecap: butt; stroke-dashoffset: 0; stroke-linejoin: miter; stroke-miterlimit: 4; fill: url(#SVGID_1854749); fill-rule: nonzero; opacity: 1;"/>
</g>
</g>
</g>
</svg>