<svg xmlns="http://www.w3.org/2000/svg" viewBox="10.13334 5.73334 76.8 86.8" version="1.1" style="max-height: 500px" width="76.8" height="86.8">
 <g fill="#004dcc">
  <path d="m84.199 68.199-7.6992 3.1016-11.398-24.301h-24.402l-0.80078-5.3984h19.301v-6h-20.098l-1.8984-13.199c0.30078 0 0.69922 0.10156 1 0.10156 4.3984 0 8-3.6016 8-8 0-4.3984-3.6016-8-8-8s-8 3.6016-8 8v1.8008c-0.003906 0.89453 5.3984 36.695 5.3984 36.695h25.699l12.199 26 13-5.1992z"/>
  <path d="m59.699 61.398c0.10156 0.80078 0.10156 1.6016 0.10156 2.3984 0 11.898-9.6992 21.699-21.699 21.699-11.898 0-21.699-9.6992-21.699-21.699 0-8.8008 5.1992-16.301 12.699-19.699l-0.80078-6.0977c-10.398 4-17.801 14-17.801 25.898 0 15.301 12.398 27.699 27.699 27.699 12.5 0 23-8.1992 26.5-19.602z"/>
 </g>
</svg>