<?xml version="1.0" encoding="UTF-8" standalone="no" ?>
<!DOCTYPE svg PUBLIC "-//W3C//DTD SVG 1.1//EN" "http://www.w3.org/Graphics/SVG/1.1/DTD/svg11.dtd">
<svg xmlns="http://www.w3.org/2000/svg" xmlns:xlink="http://www.w3.org/1999/xlink" version="1.1" width="1280" height="1024" viewBox="0 0 1280 1024" xml:space="preserve">
<desc>Created with Fabric.js 5.3.0</desc>
<defs>
</defs>
<g transform="matrix(1 0 0 1 640 512)" id="background-logo"  >
<rect style="stroke: none; stroke-width: 0; stroke-dasharray: none; stroke-linecap: butt; stroke-dashoffset: 0; stroke-linejoin: miter; stroke-miterlimit: 4; fill: rgb(25,44,59); fill-opacity: 0; fill-rule: nonzero; opacity: 1;"  paint-order="stroke"  x="-640" y="-512" rx="0" ry="0" width="1280" height="1024" />
</g>
<g transform="matrix(3.7173361233680575 0 0 3.7173361233680575 640.2808704453442 555.6466507144032)" id="shape-68b36b6c-1e18-456a-9d3f-8de91959ed0f"  >
<g style=""  paint-order="stroke"   >
		<g transform="matrix(1 0 0 1 0 0)" id="Layer_1"  >
<linearGradient id="SVGID_92924" gradientUnits="userSpaceOnUse" gradientTransform="matrix(1 0 0 1 0 0)"  x1="0" y1="0" x2="0" y2="200">
<stop offset="0%" style="stop-color:rgb(48,35,174);stop-opacity: 1"/>
<stop offset="100%" style="stop-color:rgb(200,109,215);stop-opacity: 1"/>
</linearGradient>
<path style="stroke: none; stroke-width: 1; stroke-dasharray: none; stroke-linecap: butt; stroke-dashoffset: 0; stroke-linejoin: miter; stroke-miterlimit: 4; fill: url(#SVGID_92924); fill-rule: nonzero; opacity: 1;"  paint-order="stroke"  transform=" translate(-100, -100)" d="M 200 100 C 200 155.22847498307934 155.22847498307934 200 100 200 C 44.771525016920656 200 0 155.22847498307934 0 100 C 0 44.771525016920656 44.771525016920656 0 100 0 C 155.22847498307934 0 200 44.77152501692063 200 99.99999999999997 Z" stroke-linecap="round" />
</g>
</g>
</g>
<g transform="matrix(2.6494348055969983 0 0 2.6494348055969983 576.008894922807 567.8944312070635)" id="shape-1255a424-42de-4369-849b-d1ef34e8c79c"  >
<g style=""  paint-order="stroke"   >
		<g transform="matrix(1 0 0 1 -36.098135 8.902823203377238)" id="path-19"  >
<path style="stroke: none; stroke-width: 1; stroke-dasharray: none; stroke-linecap: butt; stroke-dashoffset: 0; stroke-linejoin: miter; stroke-miterlimit: 4; fill: rgb(201,162,135); fill-rule: nonzero; opacity: 1;"  paint-order="stroke"  transform=" translate(-79.949875, -133.90282320337724)" d="M 152.22366 181.26215 C 152.22366 181.26215 128.84652 183.47722 106.16721999999999 172.60012999999998 L 0 172.60012999999998 L 0 134.8544 L 97.79333 127.87854 L 146.98998 86.35795999999999 L 159.89975 110.78182999999999 L 152.22366 181.26215 z" stroke-linecap="round" />
</g>
		<g transform="matrix(1 0 0 1 59.741656276462976 42.71589499999999)" id="path-18"  >
<path style="stroke: none; stroke-width: 1; stroke-dasharray: none; stroke-linecap: butt; stroke-dashoffset: 0; stroke-linejoin: miter; stroke-miterlimit: 4; fill: rgb(147,173,106); fill-rule: nonzero; opacity: 1;"  paint-order="stroke"  transform=" translate(-175.78966627646298, -167.715895)" d="M 200.70151 124.74371 C 200.70151 124.74371 195.81818 189.44671 226.09482000000003 226.56000999999998 L 137.24193 250 C 137.24193 250 122.62534 180.74554 125.98657 131.63368 L 175.78966 85.43179 L 200.70151 124.74371 z" stroke-linecap="round" />
</g>
		<g transform="matrix(1 0 0 1 53.097163835250726 40.78431500000002)" id="path-17"  >
<path style="stroke: none; stroke-width: 1; stroke-dasharray: none; stroke-linecap: butt; stroke-dashoffset: 0; stroke-linejoin: miter; stroke-miterlimit: 4; fill: rgb(125,145,87); fill-rule: nonzero; opacity: 1;"  paint-order="stroke"  transform=" translate(-169.14517383525072, -165.78431500000002)" d="M 131.37683 134.18843 L 174.67519000000001 94.02053000000001 L 195.06644 126.20001 C 194.821 131.12491 194.42141 145.15381000000002 196.54715 162.41122000000001 C 198.54372999999998 178.62013000000002 202.13709 192.92625 207.26405 205.2416 C 201.10827 208.44042000000002 196.78564 214.89616 196.78564 222.16500000000002 C 196.78564 224.2931 197.17771 226.34759000000003 197.86212 228.28046000000003 L 162.7306 237.54810000000003 C 160.95814000000001 228.92049000000003 153.10359 222.15578000000002 144.05485000000002 222.15578000000002 C 141.96528 222.15578000000002 139.94840000000002 222.52748000000003 138.04951000000003 223.1818 C 134.24606 199.35019 129.72397 163.28468 131.37683 134.18843 z" stroke-linecap="round" />
</g>
		<g transform="matrix(1 0 0 1 28.526778723537035 -42.715895)" id="path-16"  >
<path style="stroke: none; stroke-width: 1; stroke-dasharray: none; stroke-linecap: butt; stroke-dashoffset: 0; stroke-linejoin: miter; stroke-miterlimit: 4; fill: rgb(147,173,106); fill-rule: nonzero; opacity: 1;"  paint-order="stroke"  transform=" translate(-144.57478872353704, -82.284105)" d="M 119.66294 125.25629 C 119.66294 125.25629 124.54627 60.553290000000004 94.26963 23.439980000000006 L 183.12253 0 C 183.12253 0 197.73912 69.25446 194.37789 118.36632 L 144.57479 164.56821 L 119.66294 125.25629 z" stroke-linecap="round" />
</g>
		<g transform="matrix(1 0 0 1 35.17126464202169 -40.78431999999998)" id="path-15"  >
<path style="stroke: none; stroke-width: 1; stroke-dasharray: none; stroke-linecap: butt; stroke-dashoffset: 0; stroke-linejoin: miter; stroke-miterlimit: 4; fill: rgb(125,145,87); fill-rule: nonzero; opacity: 1;"  paint-order="stroke"  transform=" translate(-151.2192746420217, -84.21568000000002)" d="M 188.98761 115.81158 L 145.68927 155.97946000000002 L 125.29802 123.79999000000001 C 125.54346 118.8751 125.94305 104.84619 123.81730999999999 87.58879000000002 C 121.82070999999999 71.37988000000001 118.22737 57.07376000000002 113.1004 44.758400000000016 C 119.25618 41.559570000000015 123.57880999999999 35.103850000000016 123.57880999999999 27.835000000000015 C 123.57880999999999 25.706900000000015 123.18673999999999 23.652410000000014 122.50232999999999 21.719540000000016 L 157.63385 12.451900000000016 C 159.40631 21.079500000000017 167.26085 27.844210000000018 176.3096 27.844210000000018 C 178.39915 27.844210000000018 180.41604999999998 27.472510000000018 182.31493999999998 26.81819000000002 C 186.11839 50.64981 190.64049 86.71531 188.98761 115.81158 z" stroke-linecap="round" />
</g>
		<g transform="matrix(1 0 0 1 59.741656276462976 -41.73748500000001)" id="path-14"  >
<path style="stroke: none; stroke-width: 1; stroke-dasharray: none; stroke-linecap: butt; stroke-dashoffset: 0; stroke-linejoin: miter; stroke-miterlimit: 4; fill: rgb(147,173,106); fill-rule: nonzero; opacity: 1;"  paint-order="stroke"  transform=" translate(-175.78966627646298, -83.262515)" d="M 200.70151 126.2347 C 200.70151 126.2347 195.81818 61.5317 226.09482000000003 24.418390000000002 L 137.24193 0.97841 C 137.24193 0.97841 122.62534 70.23286 125.98657 119.34473 L 175.78966 165.54662 L 200.70151 126.2347 z" stroke-linecap="round" />
</g>
		<g transform="matrix(1 0 0 1 53.097131696383556 -39.80595500000001)" id="path-13"  >
<path style="stroke: none; stroke-width: 1; stroke-dasharray: none; stroke-linecap: butt; stroke-dashoffset: 0; stroke-linejoin: miter; stroke-miterlimit: 4; fill: rgb(125,145,87); fill-rule: nonzero; opacity: 1;"  paint-order="stroke"  transform=" translate(-169.14514169638358, -85.19404499999999)" d="M 207.26402 45.73676 C 201.10824 42.537929999999996 196.78561 36.082209999999996 196.78561 28.813359999999996 C 196.78561 26.685259999999996 197.17766999999998 24.630769999999995 197.86209 22.697899999999997 L 162.73056 13.430259999999997 C 160.9581 22.057859999999998 153.10356 28.822579999999995 144.05482 28.822579999999995 C 141.96525 28.822579999999995 139.94837 28.450879999999994 138.04948000000002 27.796559999999996 C 134.24601 51.62818 129.72393000000002 87.69368999999999 131.3768 116.78995 L 174.67516 156.95783 L 195.06640000000002 124.77835999999999 C 194.82098000000002 119.85346999999999 194.42138000000003 105.82455999999999 196.54711 88.56716 C 198.5437 72.35824 202.13705 58.05212 207.26402 45.73676 z M 169.14522 55.32903 C 165.28311 55.32903 162.15222 52.198150000000005 162.15222 48.336040000000004 C 162.15222 44.47393 165.28311 41.343140000000005 169.14522 41.343140000000005 C 173.00723 41.343140000000005 176.13812 44.47393 176.13812 48.336040000000004 C 176.13812 52.198150000000005 173.00723 55.32903 169.14522 55.32903 z" stroke-linecap="round" />
</g>
		<g transform="matrix(1 0 0 1 28.526778723537035 30.06287500000002)" id="path-12"  >
<path style="stroke: none; stroke-width: 1; stroke-dasharray: none; stroke-linecap: butt; stroke-dashoffset: 0; stroke-linejoin: miter; stroke-miterlimit: 4; fill: rgb(147,173,106); fill-rule: nonzero; opacity: 1;"  paint-order="stroke"  transform=" translate(-144.57478872353704, -155.06287500000002)" d="M 119.66294 112.09068 C 119.66294 112.09068 124.54627 176.79369000000003 94.26963 213.90699 L 183.12253 237.34698 C 183.12253 237.34698 197.73912 168.09252 194.37789 118.98065 L 144.57479 72.77877 L 119.66294 112.09068 z" stroke-linecap="round" />
</g>
		<g transform="matrix(1 0 0 1 35.17126464202169 28.131304999999998)" id="path-11"  >
<path style="stroke: none; stroke-width: 1; stroke-dasharray: none; stroke-linecap: butt; stroke-dashoffset: 0; stroke-linejoin: miter; stroke-miterlimit: 4; fill: rgb(125,145,87); fill-rule: nonzero; opacity: 1;"  paint-order="stroke"  transform=" translate(-151.2192746420217, -153.131305)" d="M 188.98761 121.53541 L 145.68927 81.36752 L 125.29802 113.54699 C 125.54346 118.47188999999999 125.94305 132.50079 123.81730999999999 149.75821 C 121.82070999999999 165.9671 118.22737 180.27321999999998 113.1004 192.58858999999998 C 119.25618 195.78741 123.57880999999999 202.24312999999998 123.57880999999999 209.51198999999997 C 123.57880999999999 211.64008999999996 123.18673999999999 213.69457999999997 122.50232999999999 215.62744999999998 L 157.63385 224.89508999999998 C 159.40631 216.26747999999998 167.26085 209.50276999999997 176.3096 209.50276999999997 C 178.39917 209.50276999999997 180.41604999999998 209.87446999999997 182.31493999999998 210.52878999999996 C 186.11839 186.69717 190.64049 150.63167 188.98761 121.53541 z M 147.84695 195.43355 C 143.98483 195.43355 140.85405 192.30268 140.85405 188.44057 C 140.85405 184.57854 143.98483 181.44767000000002 147.84695 181.44767000000002 C 151.70906 181.44767000000002 154.83992999999998 184.57854 154.83992999999998 188.44057 C 154.83994 192.30267 151.70906 195.43355 147.84695 195.43355 z M 157.41158 146.22469 C 144.87632 146.22469 134.7145 136.06289 134.7145 123.52762000000001 C 134.7145 110.99235000000002 144.87632 100.83045000000001 157.41158 100.83045000000001 C 169.94683999999998 100.83045000000001 180.10866 110.99235000000002 180.10866 123.52762000000001 C 180.10866 136.06289 169.94684 146.22469 157.41158 146.22469 z" stroke-linecap="round" />
</g>
		<g transform="matrix(1 0 0 1 68.61230499999999 46.72858999999998)" id="path-10"  >
<path style="stroke: none; stroke-width: 1; stroke-dasharray: none; stroke-linecap: butt; stroke-dashoffset: 0; stroke-linejoin: miter; stroke-miterlimit: 4; fill: rgb(226,185,145); fill-rule: nonzero; opacity: 1;"  paint-order="stroke"  transform=" translate(-184.660315, -171.72859)" d="M 205.30325 183.04619 L 164.01738 183.04619 C 157.28551000000002 183.04619 151.82823 179.33202 151.82823 172.60014999999999 L 151.82823 172.60011999999998 C 151.82823 165.86825 157.28551 160.41098999999997 164.01738 160.41098999999997 L 205.30325 160.41098999999997 C 212.03513999999998 160.41098999999997 217.4924 165.86824999999996 217.4924 172.60011999999998 L 217.4924 172.60014999999999 C 217.4924 179.33202 212.03514 183.04619 205.30325 183.04619 z" stroke-linecap="round" />
</g>
		<g transform="matrix(1 0 0 1 68.569085 54.15281000000827)" id="path-09"  >
<path style="stroke: none; stroke-width: 1; stroke-dasharray: none; stroke-linecap: butt; stroke-dashoffset: 0; stroke-linejoin: miter; stroke-miterlimit: 4; fill: rgb(201,162,135); fill-rule: nonzero; opacity: 1;"  paint-order="stroke"  transform=" translate(-184.617095, -179.1528100000083)" d="M 217.35971 174.30385 C 214.34541000000002 174.73389 211.3235 175.11104 208.29365 175.41211 C 196.00988 176.63283 183.62121000000002 176.79372 171.30981000000003 175.89349 C 165.19072000000003 175.4461 159.09075 174.73643 153.03273000000002 173.76492000000002 C 152.66545000000002 173.70604000000003 152.27463 173.61487000000002 151.87448 173.51638000000003 C 152.34457 179.81876000000003 157.59482 184.78924000000004 164.01738 184.78924000000004 L 205.30327 184.78924000000004 C 211.45531 184.78925 216.52905 180.22701 217.35971 174.30385 z" stroke-linecap="round" />
</g>
		<g transform="matrix(1 0 0 1 72.91350999999999 -30.593365)" id="path-08"  >
<path style="stroke: none; stroke-width: 1; stroke-dasharray: none; stroke-linecap: butt; stroke-dashoffset: 0; stroke-linejoin: miter; stroke-miterlimit: 4; fill: rgb(226,185,145); fill-rule: nonzero; opacity: 1;"  paint-order="stroke"  transform=" translate(-188.96152, -94.406635)" d="M 212.30882 107.50757 L 165.61422 107.50757 C 158.00044 107.50757 151.82822 102.70552 151.82822 95.09172 L 151.82822 95.0917 C 151.82822 87.4779 158.00043 81.3057 165.61422 81.3057 L 212.30882 81.3057 C 219.92262 81.3057 226.09482 87.4779 226.09482 95.0917 L 226.09482 95.09172000000001 C 226.09482 102.70552 219.92262 107.50757 212.30882 107.50757 z" stroke-linecap="round" />
</g>
		<g transform="matrix(1 0 0 1 72.86463999999997 -22.497154999999985)" id="path-07"  >
<path style="stroke: none; stroke-width: 1; stroke-dasharray: none; stroke-linecap: butt; stroke-dashoffset: 0; stroke-linejoin: miter; stroke-miterlimit: 4; fill: rgb(201,162,135); fill-rule: nonzero; opacity: 1;"  paint-order="stroke"  transform=" translate(-188.91264999999999, -102.50284500000001)" d="M 225.94475 97.01862 C 222.53556 97.50501 219.11775 97.93156 215.69098 98.27208 C 201.79797 99.65273 187.78629999999998 99.83469000000001 173.86202 98.81653 C 166.9413 98.31053 160.04221 97.50789 153.19053 96.40911 C 152.77514 96.34251 152.33312 96.2394 151.88055 96.128 C 152.41223 103.25604 158.35029 108.87769 165.61424 108.87769 L 212.30885 108.87769 C 219.26683 108.87768 225.00528 103.71774 225.94475 97.01862 z" stroke-linecap="round" />
</g>
		<g transform="matrix(1 0 0 1 72.91350999999999 22.632689999999954)" id="path-06"  >
<path style="stroke: none; stroke-width: 1; stroke-dasharray: none; stroke-linecap: butt; stroke-dashoffset: 0; stroke-linejoin: miter; stroke-miterlimit: 4; fill: rgb(226,185,145); fill-rule: nonzero; opacity: 1;"  paint-order="stroke"  transform=" translate(-188.96152, -147.63268999999997)" d="M 212.30882 160.41098 L 165.61422 160.41098 C 158.00044 160.41098 151.82822 156.25423 151.82822 148.64042999999998 L 151.82822 148.64039999999997 C 151.82822 141.02661999999998 158.00043 134.85439999999997 165.61422 134.85439999999997 L 212.30882 134.85439999999997 C 219.92262 134.85439999999997 226.09482 141.02660999999998 226.09482 148.64039999999997 L 226.09482 148.64042999999998 C 226.09482 156.25423 219.92262 160.41098 212.30882 160.41098 z" stroke-linecap="round" />
</g>
		<g transform="matrix(1 0 0 1 72.86463999999997 31.05153999999999)" id="path-05"  >
<path style="stroke: none; stroke-width: 1; stroke-dasharray: none; stroke-linecap: butt; stroke-dashoffset: 0; stroke-linejoin: miter; stroke-miterlimit: 4; fill: rgb(201,162,135); fill-rule: nonzero; opacity: 1;"  paint-order="stroke"  transform=" translate(-188.91264999999999, -156.05154)" d="M 225.94475 150.56732 C 222.53556 151.05371 219.11775 151.48024999999998 215.69098 151.82076999999998 C 201.79797 153.20141999999998 187.78629999999998 153.38338 173.86202 152.36522 C 166.9413 151.85922 160.04221 151.05658 153.19053 149.9578 C 152.77514 149.89121 152.33312 149.78808999999998 151.88055 149.67669999999998 C 152.41223 156.80474999999998 158.35029 162.42638 165.61424 162.42638 L 212.30885 162.42638 C 219.26683 162.42638 225.00528 157.26645 225.94475 150.56732 z" stroke-linecap="round" />
</g>
		<g transform="matrix(1 0 0 1 75.91412 -3.8190199999999876)" id="path-04"  >
<path style="stroke: none; stroke-width: 1; stroke-dasharray: none; stroke-linecap: butt; stroke-dashoffset: 0; stroke-linejoin: miter; stroke-miterlimit: 4; fill: rgb(226,185,145); fill-rule: nonzero; opacity: 1;"  paint-order="stroke"  transform=" translate(-191.96213, -121.18098)" d="M 217.19603 134.8544 L 166.72823 134.8544 C 158.4992 134.8544 151.82824 130.63663 151.82824 122.40758 L 151.82824 122.40755 C 151.82824 114.17852 158.4992 107.50756 166.72823 107.50756 L 217.19603 107.50756 C 225.42506 107.50756 232.09602 114.17851 232.09602 122.40755 L 232.09602 122.40758 C 232.09602 130.63663 225.42506 134.8544 217.19603 134.8544 z" stroke-linecap="round" />
</g>
		<g transform="matrix(1 0 0 1 75.86128 5.417565000000025)" id="path-03"  >
<path style="stroke: none; stroke-width: 1; stroke-dasharray: none; stroke-linecap: butt; stroke-dashoffset: 0; stroke-linejoin: miter; stroke-miterlimit: 4; fill: rgb(201,162,135); fill-rule: nonzero; opacity: 1;"  paint-order="stroke"  transform=" translate(-191.90929, -130.41756500000002)" d="M 231.93382 124.49019 C 228.24916 125.01588 224.55516 125.4769 220.85148 125.84493 C 205.83582 127.33714 190.69193 127.53381 175.64248 126.43338 C 168.16251 125.8865 160.70594 125.01899 153.30059 123.83141 C 152.85163 123.75943000000001 152.37391 123.64799000000001 151.88476 123.5276 C 152.45941 131.23163 158.8773 137.30753 166.72822 137.30753 L 217.19603999999998 137.30753 C 224.71629 137.30753 230.91844 131.73065 231.93382 124.49019 z" stroke-linecap="round" />
</g>
		<g transform="matrix(1 0 0 1 -21.998585000000006 -26.744664999999998)" id="path-02"  >
<path style="stroke: none; stroke-width: 1; stroke-dasharray: none; stroke-linecap: butt; stroke-dashoffset: 0; stroke-linejoin: miter; stroke-miterlimit: 4; fill: rgb(239,195,158); fill-rule: nonzero; opacity: 1;"  paint-order="stroke"  transform=" translate(-94.049425, -98.255335)" d="M 0 87.76517 L 77.89575 87.76517 C 84.41476 87.76517 90.73106000000001 85.49909 95.76330000000002 81.35491 L 110.70465000000002 69.05026000000001 C 120.49548000000001 61.65628000000001 132.9993 61.65628000000001 140.51874 61.65628000000001 L 173.7049 61.65628000000001 C 181.65445 61.65628000000001 188.09885 68.10067000000001 188.09885 76.05022000000001 L 188.09885 123.66487000000001 C 188.09885 123.66487000000001 162.4562 133.92193 162.4562 91.49499 C 162.4562 91.49499 154.06405 93.82614 144.73945 90.0963 C 144.73945 90.0963 141.47584 129.25963000000002 95.31906000000001 134.85439 L 0 134.85439 L 0 87.76517 z" stroke-linecap="round" />
</g>
		<g transform="matrix(1 0 0 1 69.44655500000003 -11.937245530606148)" id="path-01"  >
<path style="stroke: none; stroke-width: 1; stroke-dasharray: none; stroke-linecap: butt; stroke-dashoffset: 0; stroke-linejoin: miter; stroke-miterlimit: 4; fill: rgb(242,225,211); fill-rule: nonzero; opacity: 1;"  paint-order="stroke"  transform=" translate(-185.49456500000002, -113.06275446939385)" d="M 188.09885 103.71794 C 188.09885 103.71794 182.53896 105.00485 182.53896 110.63511 L 182.53896 118.96204 C 182.53896 121.20127000000001 184.6561 122.86872 186.82004 122.2929 C 187.40566 122.13707000000001 187.96973 121.95225 188.45017 121.73476000000001 L 188.09885 103.71794 z" stroke-linecap="round" />
</g>
</g>
</g>
</svg>