<svg xmlns="http://www.w3.org/2000/svg" viewBox="2.33334 2.1333400000000005 95.39999999999999 95.6" version="1.1" style="max-height: 500px" width="20" height="20">
 <path fill="#f99d3c" d="m50 2.5c-12.598 0-24.68 5.0039-33.586 13.914-8.9102 8.9062-13.914 20.988-13.914 33.586s5.0039 24.68 13.914 33.586c8.9062 8.9102 20.988 13.914 33.586 13.914s24.68-5.0039 33.586-13.914c8.9102-8.9062 13.914-20.988 13.914-33.586s-5.0039-24.68-13.914-33.586c-8.9062-8.9102-20.988-13.914-33.586-13.914zm25.41 29.453-26.391 36.945c-0.90234 1.2617-2.3125 2.0664-3.8594 2.1953-0.14844 0.011719-0.29297 0.015625-0.4375 0.015625-1.4023 0-2.7422-0.55469-3.7305-1.5469l-15.836-15.832c-1.3125-1.3359-1.8203-3.2695-1.3281-5.0781s1.9023-3.2227 3.7109-3.7109c1.8086-0.49219 3.7422 0.015625 5.0781 1.3281l11.43 11.426 22.77-31.875c1.0938-1.5352 2.9258-2.3672 4.8047-2.1875 1.875 0.17969 3.5156 1.3516 4.2969 3.0664 0.78125 1.7148 0.58984 3.7188-0.50781 5.2539z"/>
</svg>