<svg xml:space="preserve" viewBox="1287.9182902137234 242.63928 632.8008998875141 596.1600000000001" version="1.1" xmlns:xlink="http://www.w3.org/1999/xlink" xmlns="http://www.w3.org/2000/svg" style="max-height: 500px" width="632.8008998875141" height="596.1600000000001">
<desc>Created with Fabric.js 5.3.0</desc>
<defs>
</defs>
<g id="background-14396dae-b82c-488d-b13f-c7ba1ed5d0b8" transform="matrix(2.824150894809201 0 0 2.824150894809201 960.2113042351282 539.4129762793184)">
<rect height="382.5" width="680" ry="0" rx="0" y="-191.25" x="-340" paint-order="stroke" style="stroke: none; stroke-width: 0; stroke-dasharray: none; stroke-linecap: butt; stroke-dashoffset: 0; stroke-linejoin: miter; stroke-miterlimit: 4; fill: rgb(9,9,9); fill-opacity: 0; fill-rule: nonzero; opacity: 1;"/>
</g>
<g id="shape-53d32a4f-a607-460e-96cf-d1eacfe11103" transform="matrix(-6.044154956045799 0 0 6.0441549560458 1633.0550098139647 539.9516700725187)">
<g paint-order="stroke" style="">
		<g id="Shape-1" transform="matrix(1 0 0 1 -5.675000000000004 -22.11000000000002)">
<linearGradient y2="52" x2="0" y1="0" x1="0" gradientTransform="matrix(1 0 0 1 4.5 38.94)" gradientUnits="userSpaceOnUse" id="SVGID_13_42_40_844479">
<stop style="stop-color:rgb(250,217,97);stop-opacity: 1" offset="0%"/>
<stop style="stop-color:rgb(247,107,28);stop-opacity: 1" offset="100%"/>
</linearGradient>
<path stroke-linecap="round" d="M 19.05 86.9 L 32.79 86.9 L 43.42 76.27000000000001 L 82.32 76.27000000000001 L 89.52999999999999 83.48 L 98.07999999999998 83.48 C 98.32999999999998 84.3 99.07999999999998 84.89 99.97999999999999 84.89 C 101.08999999999999 84.89 101.99 83.99 101.99 82.89 C 101.99 81.78 101.08999999999999 80.88 99.97999999999999 80.88 C 99.16999999999999 80.88 98.47999999999999 81.36 98.16 82.06 L 90.11 82.06 L 82.9 74.85000000000001 L 44.84 74.85000000000001 L 54.17 65.52000000000001 L 76.95 65.52000000000001 C 77.24000000000001 66.28000000000002 77.96000000000001 66.82000000000001 78.83 66.82000000000001 C 79.92999999999999 66.82000000000001 80.84 65.92 80.84 64.81 C 80.84 63.7 79.93 62.800000000000004 78.83 62.800000000000004 C 77.97 62.800000000000004 77.24 63.34 76.95 64.10000000000001 L 53.6 64.10000000000001 L 42.85 74.84 L 40.480000000000004 74.84 L 35.790000000000006 70.16 L 44.940000000000005 61.01 L 67.4 61.01 L 72.72 55.69 L 92.83 55.69 C 92.99 56.3 93.53999999999999 56.76 94.2 56.76 C 94.98 56.76 95.61 56.12 95.61 55.339999999999996 C 95.61 54.559999999999995 94.98 53.93 94.2 53.93 C 93.54 53.93 92.98 54.38 92.83 54.99 L 72.41 54.99 L 67.11 60.300000000000004 L 45.66 60.300000000000004 L 50.739999999999995 55.230000000000004 L 62.169999999999995 55.230000000000004 C 62.169999999999995 56.010000000000005 62.809999999999995 56.64 63.589999999999996 56.64 C 64.36999999999999 56.64 65.00999999999999 56.01 65.00999999999999 55.230000000000004 C 65.00999999999999 54.45000000000001 64.36999999999999 53.81 63.58999999999999 53.81 C 63.069999999999986 53.81 62.60999999999999 54.1 62.36999999999999 54.52 L 50.42 54.52 L 44.64 60.31 L 37.49 60.31 L 28.150000000000002 50.980000000000004 L 37.400000000000006 50.980000000000004 C 37.56 51.59 38.11000000000001 52.040000000000006 38.77 52.040000000000006 C 39.550000000000004 52.040000000000006 40.17 51.410000000000004 40.17 50.620000000000005 C 40.17 50.36000000000001 40.1 50.120000000000005 39.980000000000004 49.92 L 49.31 40.58 L 62.660000000000004 40.58 C 62.77 41.25 63.36000000000001 41.769999999999996 64.06 41.769999999999996 C 64.84 41.769999999999996 65.48 41.129999999999995 65.48 40.349999999999994 C 65.48 39.57999999999999 64.84 38.94 64.06 38.94 C 63.45 38.94 62.92 39.339999999999996 62.730000000000004 39.879999999999995 L 49.03 39.879999999999995 L 39.480000000000004 49.419999999999995 C 39.27 49.3 39.040000000000006 49.21999999999999 38.78 49.21999999999999 C 38.120000000000005 49.21999999999999 37.57 49.67999999999999 37.410000000000004 50.279999999999994 L 27.450000000000003 50.279999999999994 L 20.42 43.25999999999999 C 20.55 43.04999999999999 20.62 42.79999999999999 20.62 42.53999999999999 C 20.62 41.75999999999999 19.98 41.129999999999995 19.200000000000003 41.129999999999995 C 18.540000000000003 41.129999999999995 17.980000000000004 41.58 17.830000000000002 42.19 L 4.5 42.19 L 4.5 42.9 L 17.82 42.9 C 17.98 43.51 18.53 43.96 19.19 43.96 C 19.450000000000003 43.96 19.700000000000003 43.88 19.91 43.76 L 26.44 50.28 L 4.5 50.28 L 4.5 50.99 L 27.15 50.99 L 37.2 61.02 L 43.93000000000001 61.02 L 35.290000000000006 69.66 L 27.53000000000001 61.91 L 8.92 61.91 L 4.5 66.33 L 4.5 68.33 L 9.5 63.33 L 26.95 63.33 L 34.28 70.67 L 19.46 85.49 L 4.5 85.49 L 4.5 86.89999999999999 L 18.05 86.89999999999999 L 14.74 90.21 L 4.5 90.21 L 4.5 90.91999999999999 L 15.03 90.91999999999999 L 19.05 86.9 z M 34.79 71.17 L 39.879999999999995 76.27 L 41.419999999999995 76.27 L 32.199999999999996 85.49 L 20.47 85.49 L 34.79 71.17 z" transform="translate(-53.245, -64.92999999999999)" paint-order="stroke" style="stroke: none; stroke-width: 1; stroke-dasharray: none; stroke-linecap: butt; stroke-dashoffset: 0; stroke-linejoin: miter; stroke-miterlimit: 4; fill: url(#SVGID_13_42_40_844479); fill-rule: nonzero; opacity: 1;"/>
</g>
		<g id="Shape-1" transform="matrix(1 0 0 1 12.584999999999994 -0.7900000000000205)">
<linearGradient y2="13" x2="0" y1="0" x1="0" gradientTransform="matrix(1 0 0 1 42.07999999999999 79.57)" gradientUnits="userSpaceOnUse" id="SVGID_25_844480">
<stop style="stop-color:rgb(250,217,97);stop-opacity: 1" offset="0%"/>
<stop style="stop-color:rgb(247,107,28);stop-opacity: 1" offset="100%"/>
</linearGradient>
<path stroke-linecap="round" d="M 98.15 91.16 L 84.29 91.16 L 73.77 80.64 L 44.87 80.64 C 44.71 80.03 44.16 79.57000000000001 43.5 79.57000000000001 C 42.72 79.57000000000001 42.08 80.21000000000001 42.08 80.99000000000001 C 42.08 81.77000000000001 42.72 82.41000000000001 43.5 82.41000000000001 C 44.16 82.41000000000001 44.71 81.96000000000001 44.87 81.35000000000001 L 73.49 81.35000000000001 L 84 91.87 L 98.15 91.87 C 98.31 92.48 98.85000000000001 92.93 99.51 92.93 C 100.29 92.93 100.93 92.29 100.93 91.51 C 100.93 90.73 100.29 90.10000000000001 99.51 90.10000000000001 C 98.85 90.1 98.3 90.55 98.15 91.16 z" transform="translate(-71.505, -86.25)" paint-order="stroke" style="stroke: none; stroke-width: 1; stroke-dasharray: none; stroke-linecap: butt; stroke-dashoffset: 0; stroke-linejoin: miter; stroke-miterlimit: 4; fill: url(#SVGID_25_844480); fill-rule: nonzero; opacity: 1;"/>
</g>
		<g id="Shape-1" transform="matrix(1 0 0 1 -40.370000000000005 -10.420000000000009)">
<linearGradient y2="3" x2="0" y1="0" x1="0" gradientTransform="matrix(1 0 0 1 17.14 75.2)" gradientUnits="userSpaceOnUse" id="SVGID_26_844481">
<stop style="stop-color:rgb(250,217,97);stop-opacity: 1" offset="0%"/>
<stop style="stop-color:rgb(247,107,28);stop-opacity: 1" offset="100%"/>
</linearGradient>
<path stroke-linecap="round" d="M 19.96 76.62 C 19.96 75.84 19.34 75.2 18.560000000000002 75.2 C 17.78 75.2 17.14 75.84 17.14 76.62 C 17.14 77.4 17.78 78.04 18.560000000000002 78.04 C 19.34 78.04 19.96 77.4 19.96 76.62 z" transform="translate(-18.55, -76.62)" paint-order="stroke" style="stroke: none; stroke-width: 1; stroke-dasharray: none; stroke-linecap: butt; stroke-dashoffset: 0; stroke-linejoin: miter; stroke-miterlimit: 4; fill: url(#SVGID_26_844481); fill-rule: nonzero; opacity: 1;"/>
</g>
		<g id="Shape-1" transform="matrix(1 0 0 1 0 26.940000000000012)">
<linearGradient y2="42" x2="0" y1="0" x1="0" gradientTransform="matrix(1 0 0 1 4.5 92.82000000000002)" gradientUnits="userSpaceOnUse" id="SVGID_27_844482">
<stop style="stop-color:rgb(250,217,97);stop-opacity: 1" offset="0%"/>
<stop style="stop-color:rgb(247,107,28);stop-opacity: 1" offset="100%"/>
</linearGradient>
<path stroke-linecap="round" d="M 111.93 107.7 C 111.61000000000001 107.7 111.31 107.81 111.07000000000001 108 L 105.10000000000001 102.03 L 61.96 102.03 C 61.71 101.61 61.26 101.32000000000001 60.74 101.32000000000001 C 59.980000000000004 101.32000000000001 59.34 101.96000000000001 59.34 102.74000000000001 C 59.34 102.97000000000001 59.400000000000006 103.18 59.5 103.38000000000001 L 53.75 109.13000000000001 L 35.59 109.13000000000001 L 32.050000000000004 105.58000000000001 L 41.74 105.58000000000001 L 52.61 94.71000000000001 L 62.019999999999996 94.71000000000001 C 62.22 95.26 62.739999999999995 95.65 63.36 95.65 C 64.14 95.65 64.76 95.02000000000001 64.76 94.24000000000001 C 64.76 93.46000000000001 64.14 92.82000000000001 63.36000000000001 92.82000000000001 C 62.660000000000004 92.82000000000001 62.080000000000005 93.33000000000001 61.96000000000001 94.01 L 52.32000000000001 94.01 L 41.45000000000001 104.88000000000001 L 31.34 104.88000000000001 L 22.96 96.49000000000001 C 23.080000000000002 96.28000000000002 23.150000000000002 96.05000000000001 23.150000000000002 95.79 C 23.150000000000002 95.01 22.51 94.38000000000001 21.730000000000004 94.38000000000001 C 21.080000000000005 94.38000000000001 20.540000000000003 94.82000000000001 20.380000000000003 95.42000000000002 L 4.5 95.42000000000002 L 4.5 96.13000000000001 L 20.369999999999997 96.13000000000001 C 20.519999999999996 96.75000000000001 21.06 97.21000000000001 21.729999999999997 97.21000000000001 C 21.999999999999996 97.21000000000001 22.249999999999996 97.13000000000001 22.459999999999997 97.00000000000001 L 30.33 104.87000000000002 L 15.14 104.87000000000002 C 15 104.23000000000002 14.43 103.75000000000001 13.77 103.75000000000001 C 12.99 103.75000000000001 12.35 104.39000000000001 12.35 105.17000000000002 C 12.35 105.49000000000001 12.459999999999999 105.78000000000002 12.639999999999999 106.02000000000001 L 4.499999999999998 114.16000000000001 L 4.499999999999998 115.16000000000001 L 13.189999999999998 106.47000000000001 C 13.369999999999997 106.55000000000001 13.559999999999997 106.59000000000002 13.769999999999998 106.59000000000002 C 14.389999999999997 106.59000000000002 14.929999999999998 106.16000000000001 15.099999999999998 105.58000000000001 L 31.04 105.58000000000001 L 35.3 109.84000000000002 L 53.03 109.84000000000002 L 28.450000000000003 134.43 L 4.5 134.43 L 4.5 135.14000000000001 L 28.75 135.14000000000001 L 54.04 109.84000000000002 L 71.25 109.84000000000002 C 71.45 110.39000000000001 71.97 110.78000000000002 72.59 110.78000000000002 C 73.37 110.78000000000002 73.99000000000001 110.15000000000002 73.99000000000001 109.37000000000002 C 73.99000000000001 108.59000000000002 73.37 107.95000000000002 72.59 107.95000000000002 C 71.89 107.95000000000002 71.31 108.47000000000001 71.19 109.14000000000001 L 54.75 109.14000000000001 L 59.96 103.93000000000002 C 60.18 104.08000000000003 60.45 104.17000000000002 60.74 104.17000000000002 C 61.52 104.17000000000002 62.160000000000004 103.54000000000002 62.160000000000004 102.76000000000002 L 104.81 102.76000000000002 L 110.62 108.57000000000002 C 110.54 108.74000000000002 110.5 108.94000000000003 110.5 109.14000000000001 C 110.5 109.92000000000002 111.14 110.55000000000001 111.92 110.55000000000001 C 112.7 110.55000000000001 113.34 109.92000000000002 113.34 109.14000000000001 C 113.34 108.36000000000001 112.71 107.7 111.93 107.7 z" transform="translate(-58.92, -113.98000000000002)" paint-order="stroke" style="stroke: none; stroke-width: 1; stroke-dasharray: none; stroke-linecap: butt; stroke-dashoffset: 0; stroke-linejoin: miter; stroke-miterlimit: 4; fill: url(#SVGID_27_844482); fill-rule: nonzero; opacity: 1;"/>
</g>
		<g id="Shape-1" transform="matrix(1 0 0 1 -35.67 -30.925000000000015)">
<linearGradient y2="4" x2="0" y1="0" x1="0" gradientTransform="matrix(1 0 0 1 21.240000000000002 54.11)" gradientUnits="userSpaceOnUse" id="SVGID_28_844483">
<stop style="stop-color:rgb(250,217,97);stop-opacity: 1" offset="0%"/>
<stop style="stop-color:rgb(247,107,28);stop-opacity: 1" offset="100%"/>
</linearGradient>
<path stroke-linecap="round" d="M 25.26 56.11 C 25.26 55.01 24.35 54.11 23.240000000000002 54.11 C 22.150000000000002 54.11 21.240000000000002 55.01 21.240000000000002 56.11 C 21.240000000000002 57.22 22.150000000000002 58.12 23.240000000000002 58.12 C 24.35 58.12 25.26 57.22 25.26 56.11 z" transform="translate(-23.25, -56.114999999999995)" paint-order="stroke" style="stroke: none; stroke-width: 1; stroke-dasharray: none; stroke-linecap: butt; stroke-dashoffset: 0; stroke-linejoin: miter; stroke-miterlimit: 4; fill: url(#SVGID_28_844483); fill-rule: nonzero; opacity: 1;"/>
</g>
</g>
</g>
</svg>