<?xml version="1.0" encoding="UTF-8" standalone="no" ?>
<!DOCTYPE svg PUBLIC "-//W3C//DTD SVG 1.1//EN" "http://www.w3.org/Graphics/SVG/1.1/DTD/svg11.dtd">
<svg xmlns="http://www.w3.org/2000/svg" xmlns:xlink="http://www.w3.org/1999/xlink" version="1.1" width="1280" height="1024" viewBox="0 0 1280 1024" xml:space="preserve">
<desc>Created with Fabric.js 5.3.0</desc>
<defs>
</defs>
<g transform="matrix(1 0 0 1 640 512)" id="background-logo"  >
<rect style="stroke: none; stroke-width: 0; stroke-dasharray: none; stroke-linecap: butt; stroke-dashoffset: 0; stroke-linejoin: miter; stroke-miterlimit: 4; fill: rgb(25,44,59); fill-opacity: 0; fill-rule: nonzero; opacity: 1;"  paint-order="stroke"  x="-640" y="-512" rx="0" ry="0" width="1280" height="1024" />
</g>
<g transform="matrix(3.7173361233680575 0 0 3.7173361233680575 640.2808704453442 555.6466507144032)" id="shape-68b36b6c-1e18-456a-9d3f-8de91959ed0f"  >
<g style=""  paint-order="stroke"   >
		<g transform="matrix(1 0 0 1 0 0)" id="Layer_1"  >
<linearGradient id="SVGID_848789" gradientUnits="userSpaceOnUse" gradientTransform="matrix(1 0 0 1 0 0)"  x1="0" y1="0" x2="0" y2="200">
<stop offset="0%" style="stop-color:rgb(250,217,97);stop-opacity: 1"/>
<stop offset="100%" style="stop-color:rgb(247,107,28);stop-opacity: 1"/>
</linearGradient>
<path style="stroke: none; stroke-width: 1; stroke-dasharray: none; stroke-linecap: butt; stroke-dashoffset: 0; stroke-linejoin: miter; stroke-miterlimit: 4; fill: url(#SVGID_848789); fill-rule: nonzero; opacity: 1;"  paint-order="stroke"  transform=" translate(-100, -100)" d="M 200 100 C 200 155.22847498307934 155.22847498307934 200 100 200 C 44.771525016920656 200 0 155.22847498307934 0 100 C 0 44.771525016920656 44.771525016920656 0 100 0 C 155.22847498307934 0 200 44.77152501692063 200 99.99999999999997 Z" stroke-linecap="round" />
</g>
</g>
</g>
<g transform="matrix(2.3569385532203184 0 0 2.3569385532203184 593.8364983319624 613.1195022815039)" id="shape-20c80d26-fc96-4dec-8e0c-09ad6e0f70f6"  >
<g style=""  paint-order="stroke"   >
		<g transform="matrix(1 0 0 1 1.2528161163228901 -17.04999999999997)" id="Path-05"  >
<path style="stroke: none; stroke-width: 1; stroke-dasharray: none; stroke-linecap: butt; stroke-dashoffset: 0; stroke-linejoin: miter; stroke-miterlimit: 4; fill: rgb(174,181,180); fill-rule: nonzero; opacity: 1;"  paint-order="stroke"  transform=" translate(-121.10281611632288, -107.95)" d="M 230.9 13.1 C 230.20000000000002 8.7 199.4 82.69999999999999 194.5 82.69999999999999 L 196.9 94.79999999999998 C 201.6 94.79999999999998 205.4 98.59999999999998 205.4 103.29999999999998 L 205.4 207.5 C 205.4 212.2 201.6 215.9 196.9 215.9 L 133.60000000000002 215.8 L 121.90000000000002 213.5 L 108.40000000000002 215.9 L 45.40000000000002 215.9 C 40.70000000000002 215.9 36.90000000000002 212.1 36.90000000000002 207.4 L 36.90000000000002 103.4 C 36.90000000000002 98.7 40.70000000000002 94.9 45.40000000000002 94.9 L 52.30000000000002 83.10000000000001 C 47.40000000000002 83.10000000000001 12.200000000000017 9.500000000000014 11.300000000000018 13.800000000000011 C 10.2 8 14.9 0 20.9 0 L 221.5 0 C 227.5 0 232 7.3 230.9 13.1 z" stroke-linecap="round" />
</g>
		<g transform="matrix(1 0 0 1 1.2747360617811552 -15.34999999999998)" id="Path-04"  >
<path style="stroke: none; stroke-width: 1; stroke-dasharray: none; stroke-linecap: butt; stroke-dashoffset: 0; stroke-linejoin: miter; stroke-miterlimit: 4; fill: rgb(151,160,159); fill-rule: nonzero; opacity: 1;"  paint-order="stroke"  transform=" translate(-121.12473606178115, -109.64999999999999)" d="M 195.5 105.8 L 46.1 105.8 C 45.2 105.8 44.5 106.5 44.5 107.39999999999999 L 44.5 165.29999999999998 C 44.5 166.2 45.2 166.89999999999998 46.1 166.89999999999998 L 195.5 166.89999999999998 C 196.4 166.89999999999998 197 166.2 197 165.29999999999998 L 197 107.19999999999999 C 197 106.6 196.3 105.8 195.5 105.8 z M 179 106.8 L 188.1 106.8 L 188.1 110.8 L 179 110.8 L 179 106.8 z M 183.6 132.7 L 174.5 132.7 L 174.5 123.1 L 183.6 123.1 L 183.6 132.7 z M 185.7 134.2 L 185.7 143.79999999999998 L 177 143.79999999999998 L 177 134.2 L 185.7 134.2 z M 67 134.2 L 75.7 134.2 L 75.7 143.79999999999998 L 67 143.79999999999998 L 67 134.2 z M 59.5 132.7 L 59.5 123.1 L 68.6 123.1 L 68.6 132.7 L 59.5 132.7 z M 70.1 132.7 L 70.1 123.1 L 79.19999999999999 123.1 L 79.19999999999999 132.7 L 70.1 132.7 z M 72.4 145.1 L 81.10000000000001 145.1 L 81.10000000000001 154.7 L 72.4 154.7 L 72.4 145.1 z M 77 143.8 L 77 134.20000000000002 L 85.7 134.20000000000002 L 85.7 143.8 L 77 143.8 z M 80.4 132.7 L 80.4 123.1 L 89.5 123.1 L 89.5 132.7 L 80.4 132.7 z M 87 134.2 L 95.7 134.2 L 95.7 143.79999999999998 L 87 143.79999999999998 L 87 134.2 z M 91 132.7 L 91 123.1 L 100.1 123.1 L 100.1 132.7 L 91 132.7 z M 92.6 145.1 L 101.3 145.1 L 101.3 154.7 L 92.6 154.7 L 92.6 145.1 z M 96.9 143.8 L 96.9 134.20000000000002 L 105.60000000000001 134.20000000000002 L 105.60000000000001 143.8 L 96.9 143.8 z M 101.3 132.7 L 101.3 123.1 L 110.39999999999999 123.1 L 110.39999999999999 132.7 L 101.3 132.7 z M 102.6 145.1 L 111.3 145.1 L 111.3 154.7 L 102.6 154.7 L 102.6 145.1 z M 106.9 143.8 L 106.9 134.20000000000002 L 115.60000000000001 134.20000000000002 L 115.60000000000001 143.8 L 106.9 143.8 z M 111.8 132.7 L 111.8 123.1 L 120.89999999999999 123.1 L 120.89999999999999 132.7 L 111.8 132.7 z M 112.7 145.1 L 121.4 145.1 L 121.4 154.7 L 112.7 154.7 L 112.7 145.1 z M 117.1 143.8 L 117.1 134.20000000000002 L 125.8 134.20000000000002 L 125.8 143.8 L 117.1 143.8 z M 122.4 132.7 L 122.4 123.1 L 131.5 123.1 L 131.5 132.7 L 122.4 132.7 z M 122.7 145.1 L 131.4 145.1 L 131.4 154.7 L 122.7 154.7 L 122.7 145.1 z M 127.1 143.8 L 127.1 134.20000000000002 L 135.79999999999998 134.20000000000002 L 135.79999999999998 143.8 L 127.1 143.8 z M 132.7 132.7 L 132.7 123.1 L 141.79999999999998 123.1 L 141.79999999999998 132.7 L 132.7 132.7 z M 132.7 145.1 L 141.39999999999998 145.1 L 141.39999999999998 154.7 L 132.7 154.7 L 132.7 145.1 z M 137.1 143.8 L 137.1 134.20000000000002 L 145.79999999999998 134.20000000000002 L 145.79999999999998 143.8 L 137.1 143.8 z M 143.2 132.7 L 143.2 123.1 L 152.29999999999998 123.1 L 152.29999999999998 132.7 L 143.2 132.7 z M 142.9 145.1 L 151.6 145.1 L 151.6 154.7 L 142.9 154.7 L 142.9 145.1 z M 147.1 143.8 L 147.1 134.20000000000002 L 155.79999999999998 134.20000000000002 L 155.79999999999998 143.8 L 147.1 143.8 z M 153.6 132.7 L 153.6 123.1 L 162.7 123.1 L 162.7 132.7 L 153.6 132.7 z M 152.9 145.1 L 161.6 145.1 L 161.6 154.7 L 152.9 154.7 L 152.9 145.1 z M 157 143.8 L 157 134.20000000000002 L 165.7 134.20000000000002 L 165.7 143.8 L 157 143.8 z M 164.1 132.7 L 164.1 123.1 L 173.2 123.1 L 173.2 132.7 L 164.1 132.7 z M 162.9 145.1 L 171.6 145.1 L 171.6 154.7 L 162.9 154.7 L 162.9 145.1 z M 167 143.8 L 167 134.20000000000002 L 175.7 134.20000000000002 L 175.7 143.8 L 167 143.8 z M 178.5 121.8 L 169.6 121.8 L 169.6 112.2 L 178.5 112.2 L 178.5 121.8 z M 168.5 106.8 L 177.6 106.8 L 177.6 110.8 L 168.5 110.8 L 168.5 106.8 z M 168.1 121.8 L 159 121.8 L 159 112.2 L 168.1 112.2 L 168.1 121.8 z M 158.1 106.8 L 167.2 106.8 L 167.2 110.8 L 158.1 110.8 L 158.1 106.8 z M 157.8 121.8 L 148.9 121.8 L 148.9 112.2 L 157.8 112.2 L 157.8 121.8 z M 147.8 106.8 L 156.9 106.8 L 156.9 110.8 L 147.8 110.8 L 147.8 106.8 z M 147.4 121.8 L 138.3 121.8 L 138.3 112.2 L 147.4 112.2 L 147.4 121.8 z M 137.4 106.8 L 146.5 106.8 L 146.5 110.8 L 137.4 110.8 L 137.4 106.8 z M 137.1 121.8 L 128 121.8 L 128 112.2 L 137.1 112.2 L 137.1 121.8 z M 127.1 106.8 L 136.2 106.8 L 136.2 110.8 L 127.1 110.8 L 127.1 106.8 z M 126.7 121.8 L 117.60000000000001 121.8 L 117.60000000000001 112.2 L 126.7 112.2 L 126.7 121.8 z M 116.6 106.8 L 125.69999999999999 106.8 L 125.69999999999999 110.8 L 116.6 110.8 L 116.6 106.8 z M 116.4 121.8 L 107.5 121.8 L 107.5 112.2 L 116.4 112.2 L 116.4 121.8 z M 106.2 106.8 L 115.3 106.8 L 115.3 110.8 L 106.2 110.8 L 106.2 106.8 z M 106 121.8 L 97.1 121.8 L 97.1 112.2 L 106 112.2 L 106 121.8 z M 95.9 106.8 L 105 106.8 L 105 110.8 L 95.9 110.8 C 95.9 110.7 95.9 106.8 95.9 106.8 z M 95.7 121.8 L 86.60000000000001 121.8 L 86.60000000000001 112.2 L 95.7 112.2 L 95.7 121.8 z M 85.5 106.8 L 94.6 106.8 L 94.6 110.8 L 85.5 110.8 L 85.5 106.8 z M 85.3 121.8 L 76.39999999999999 121.8 L 76.39999999999999 112.2 L 85.3 112.2 L 85.3 121.8 z M 75.2 106.8 L 84.3 106.8 L 84.3 110.8 L 75.2 110.8 L 75.2 106.8 z M 75 121.8 L 66.1 121.8 L 66.1 112.2 L 75 112.2 L 75 121.8 z M 64.6 106.8 L 73.69999999999999 106.8 L 73.69999999999999 110.8 L 64.6 110.8 L 64.6 106.8 z M 64.6 121.8 L 55.49999999999999 121.8 L 55.49999999999999 112.2 L 64.6 112.2 L 64.6 121.8 z M 54.3 106.8 L 63.4 106.8 L 63.4 110.8 L 54.3 110.8 C 54.3 110.8 54.3 106.8 54.3 106.8 z M 46.3 106.8 L 53 106.8 L 53 110.8 L 46.3 110.8 L 46.3 106.8 z M 46.3 112.2 L 54.3 112.2 L 54.3 121.8 L 46.3 121.8 L 46.3 112.2 z M 46.3 123.1 L 58.3 123.1 L 58.3 132.7 L 46.3 132.7 L 46.3 123.1 z M 46.3 134.2 L 65.69999999999999 134.2 L 65.69999999999999 143.79999999999998 L 46.3 143.79999999999998 L 46.3 134.2 z M 46.3 145.1 L 61 145.1 L 61 154.7 L 46.3 154.7 L 46.3 145.1 z M 58.3 165 L 46.3 165 L 46.3 156.1 L 58.3 156.1 L 58.3 165 z M 70.3 165 L 59.5 165 L 59.5 156.1 L 70.2 156.1 L 70.2 165 L 70.3 165 z M 71 154.7 L 62.3 154.7 L 62.3 145.1 L 71 145.1 L 71 154.7 z M 82.2 165 L 71.5 165 L 71.5 156.1 L 82.2 156.1 L 82.2 165 z M 82.4 145.1 L 91.10000000000001 145.1 L 91.10000000000001 154.7 L 82.4 154.7 L 82.4 145.1 z M 94.2 165 L 83.5 165 L 83.5 156.1 L 94.2 156.1 L 94.2 165 z M 143.6 165 L 95.7 165 L 95.7 156.1 L 143.6 156.1 L 143.6 165 z M 157 165 L 145 165 L 145 156.1 L 157 156.1 L 157 165 z M 167.6 165 L 158.29999999999998 165 L 158.29999999999998 156.1 L 167.6 156.1 L 167.6 165 z M 176.7 165 L 168.89999999999998 165 L 168.89999999999998 161.2 L 176.7 161.2 L 176.7 165 z M 185.7 165 L 178.1 165 L 178.1 161.2 L 185.7 161.2 L 185.7 165 z M 185.7 159.9 L 178.1 159.9 L 178.1 156.1 L 185.7 156.1 L 185.7 159.9 z M 195.7 165 L 187 165 L 187 161.2 L 195.7 161.2 L 195.7 165 z M 195.7 154.7 L 173 154.7 L 173 145.1 L 195.7 145.1 L 195.7 154.7 z M 195.7 143.8 L 187 143.8 L 187 134.20000000000002 L 195.7 134.20000000000002 L 195.7 143.8 z M 195.7 132.7 L 185 132.7 L 185 123.1 L 195.7 123.1 L 195.7 132.7 z M 195.7 121.8 L 179.7 121.8 L 179.7 112.2 L 195.7 112.2 L 195.7 121.8 z M 195.7 110.9 L 189.29999999999998 110.9 L 189.29999999999998 106.9 L 195.7 106.9 L 195.7 110.9 z M 230.4 16.2 L 205.3 87.4 C 205.3 87.4 203.8 94.80000000000001 197.9 94.80000000000001 L 174.1 94.80000000000001 L 174.1 98.60000000000001 L 68.3 98.60000000000001 L 68.3 94.80000000000001 L 44.3 94.80000000000001 C 38.099999999999994 94.80000000000001 36.9 87.4 36.9 87.4 L 11.8 16.2 C 11.3 14.6 11.100000000000001 12.899999999999999 11.4 11.299999999999999 C 12.1 6.899999999999999 15.9 3.499999999999999 20.8 3.499999999999999 L 221.4 3.499999999999999 C 226.3 3.499999999999999 230.1 6.899999999999999 230.8 11.299999999999999 C 231.1 12.9 231.1 14.5 230.4 16.2 z M 94.6 173.7 L 147.8 173.7 L 147.8 206.39999999999998 L 94.6 206.39999999999998 L 94.6 173.7 z M 130.2 212.2 L 112 212.2 C 110 212.2 108.4 213.79999999999998 108.4 215.79999999999998 L 108.4 215.79999999999998 L 133.6 215.79999999999998 L 133.6 215.79999999999998 C 133.8 213.9 132.2 212.2 130.2 212.2 z" stroke-linecap="round" />
</g>
		<g transform="matrix(1 0 0 1 1.2500000000000142 -74.99999999999997)" id="Path-03"  >
<path style="stroke: none; stroke-width: 1; stroke-dasharray: none; stroke-linecap: butt; stroke-dashoffset: 0; stroke-linejoin: miter; stroke-miterlimit: 4; fill: rgb(71,86,85); fill-rule: nonzero; opacity: 1;"  paint-order="stroke"  transform=" translate(-121.10000000000001, -50)" d="M 198.8 92 L 43.80000000000001 92 L 19.80000000000001 14.5 L 222.4 14.5 L 198.8 92 z M 121.1 8 C 122.5 8 123.6 8.8 123.6 9.8 C 123.6 10.8 122.5 11.600000000000001 121.1 11.600000000000001 C 119.69999999999999 11.600000000000001 118.6 10.8 118.6 9.8 C 118.6 8.8 119.7 8 121.1 8 z" stroke-linecap="round" />
</g>
		<g transform="matrix(1 0 0 1 0 51.195800195256226)" id="Path-02"  >
<path style="stroke: none; stroke-width: 1; stroke-dasharray: none; stroke-linecap: butt; stroke-dashoffset: 0; stroke-linejoin: miter; stroke-miterlimit: 4; fill: rgb(188,121,32); fill-rule: nonzero; opacity: 1;"  paint-order="stroke"  transform=" translate(-119.85, -176.1958001952562)" d="M 56.6 147.2 C 62.4 130.5 60 128.89999999999998 63.9 126.1 C 68.1 123.19999999999999 76.8 116.69999999999999 76.8 116.69999999999999 L 77 116.19999999999999 C 78.1 114.19999999999999 78.8 112.19999999999999 79.5 110.79999999999998 C 80.2 109.19999999999999 82.4 108.59999999999998 83.7 109.89999999999998 C 84.60000000000001 110.79999999999998 85.5 112.09999999999998 85.7 114.39999999999998 C 86.2 119.99999999999997 78.60000000000001 132.2 78.60000000000001 132.2 L 77.10000000000001 143.79999999999998 L 76.9 144.29999999999998 C 77.30000000000001 143.79999999999998 77.4 143.39999999999998 77.80000000000001 142.79999999999998 C 82.30000000000001 134.99999999999997 84.30000000000001 130.1 89.10000000000001 125.19999999999999 C 92.2 122.1 95.50000000000001 117.89999999999999 97.50000000000001 115.39999999999999 C 98.60000000000001 113.89999999999999 100.80000000000001 113.89999999999999 101.90000000000002 115.39999999999999 C 102.60000000000002 116.49999999999999 103.20000000000002 117.89999999999999 102.80000000000003 120.3 C 102 126 91.9 136 91.9 136 L 84.80000000000001 154.2 L 86.10000000000001 168.39999999999998 L 93.2 165.49999999999997 C 93.2 165.49999999999997 95 157.29999999999998 102.8 150.09999999999997 C 106.39999999999999 146.79999999999995 109.2 146.49999999999997 111 146.99999999999997 C 113 147.69999999999996 113.4 150.29999999999998 111.9 151.49999999999997 C 110.60000000000001 152.79999999999998 108.80000000000001 154.39999999999998 106.80000000000001 157.09999999999997 C 102.4 162.69999999999996 102.10000000000001 171.29999999999995 102.10000000000001 171.29999999999995 L 92.10000000000001 192.19999999999996 L 34.50000000000001 249.59999999999997 L 0 234.9 C 0 234.9 31.4 212 37 203.70000000000002 C 42.8 195.20000000000002 47 193.9 47 193.9 L 48.8 152.10000000000002 L 45 135.8 L 50.3 123.10000000000001 C 51 121.50000000000001 53.199999999999996 120.9 54.699999999999996 122.2 C 56.3 123.7 57.8 126 56.3 129.3 C 53.599999999999994 135.3 53.8 134.60000000000002 53.8 134.60000000000002 L 56.699999999999996 146.20000000000002 L 56.6 147.2 z M 181.7 139.6 C 175.89999999999998 122.69999999999999 178.6 122 174.6 119.39999999999999 C 170.4 116.49999999999999 161.7 109.99999999999999 161.7 109.99999999999999 L 161.5 109.59999999999998 C 160.6 107.79999999999998 159.5 105.59999999999998 159 103.99999999999999 C 158.3 102.39999999999999 156.1 101.79999999999998 154.8 103.09999999999998 C 153.9 103.99999999999999 153 105.29999999999998 152.8 107.59999999999998 C 152.3 113.19999999999997 159.9 125.39999999999998 159.9 125.39999999999998 L 161.70000000000002 137.59999999999997 L 161.00000000000003 136.09999999999997 C 158.30000000000004 131.19999999999996 156.50000000000003 127.19999999999996 155.70000000000002 124.79999999999997 C 155.20000000000002 123.29999999999997 154.10000000000002 122.29999999999997 152.60000000000002 121.69999999999997 L 138.8 116.29999999999997 C 137.3 115.89999999999996 135.9 116.79999999999997 135.5 118.29999999999997 L 135.3 119.19999999999997 C 134.8 121.39999999999998 135.70000000000002 123.69999999999997 137.8 124.59999999999998 L 146.9 128.99999999999997 L 154 147.19999999999996 L 152.7 161.39999999999995 L 145.6 158.49999999999994 C 145.6 158.49999999999994 143.79999999999998 150.29999999999995 136 143.09999999999994 C 132.4 139.79999999999993 129.6 139.49999999999994 127.8 139.99999999999994 C 125.8 140.69999999999993 125.39999999999999 143.29999999999995 126.89999999999999 144.49999999999994 C 128.2 145.59999999999994 130 147.39999999999995 132.2 150.09999999999994 C 136.6 155.69999999999993 136.89999999999998 164.29999999999993 136.89999999999998 164.29999999999993 L 146.89999999999998 185.19999999999993 L 205.2 249.99999999999994 L 239.7 235.49999999999994 C 239.7 235.49999999999994 207.6 205.39999999999995 201.89999999999998 196.99999999999994 C 196.09999999999997 188.49999999999994 191.89999999999998 187.19999999999993 191.89999999999998 187.19999999999993 L 190.09999999999997 145.39999999999992 L 193.19999999999996 130.0999999999999 L 192.29999999999995 115.79999999999991 C 189.59999999999997 114.29999999999991 187.79999999999995 115.3999999999999 187.79999999999995 115.3999999999999 C 185.79999999999995 116.6999999999999 184.69999999999996 118.79999999999991 184.89999999999995 121.1999999999999 L 185.39999999999995 127.59999999999991 L 182.29999999999995 140.2999999999999 L 181.7 139.6 z" stroke-linecap="round" />
</g>
		<g transform="matrix(1 0 0 1 -0.5000000000000142 17.955555555555584)" id="Path-01"  >
<path style="stroke: none; stroke-width: 1; stroke-dasharray: none; stroke-linecap: butt; stroke-dashoffset: 0; stroke-linejoin: miter; stroke-miterlimit: 4; fill: rgb(165,98,19); fill-rule: nonzero; opacity: 1;"  paint-order="stroke"  transform=" translate(-119.34999999999998, -142.95555555555555)" d="M 77.2 144.3 C 75.60000000000001 147 73.9 150.70000000000002 71.60000000000001 152.70000000000002 C 71.7 148.9 73.5 145.8 77.2 144.3 C 77 144.2 77.2 144.2 77.2 144.3 L 77.2 144.3 z M 77.2 116.4 C 77.2 116.2 77.2 116.2 77.2 116.4 C 77 116.4 71.9 124.80000000000001 71.9 124.80000000000001 C 67.5 133.70000000000002 65.5 143.5 62.800000000000004 153.10000000000002 C 62.800000000000004 153.3 63.00000000000001 153.3 63.00000000000001 153.10000000000002 C 68.60000000000001 144.70000000000002 68.60000000000001 134.20000000000002 72.80000000000001 125.10000000000002 C 72.8 125.3 77.2 116.4 77.2 116.4 L 77.2 116.4 z M 56.8 147.2 L 56.8 147.2 C 55.5 147.39999999999998 54.8 147.89999999999998 54.3 149 C 53.9 150.1 54.099999999999994 151 55 152.1 L 55.2 152.1 C 55.6 150.9 56.5 148.5 56.8 147.2 L 56.8 147.2 z M 161.8 109.7 C 161.8 109.5 161.6 109.7 161.8 109.7 C 161.60000000000002 109.7 166.20000000000002 118.4 166.20000000000002 118.4 C 170.20000000000002 127.30000000000001 170.4 137.8 175.8 146.20000000000002 C 175.8 146.4 176 146.20000000000002 176 146.20000000000002 C 173.3 136.8 171.3 127.00000000000001 166.9 118.10000000000002 L 161.8 109.7 L 161.8 109.7 z M 183.7 145.2 L 183.7 145.2 C 184.6 144.29999999999998 184.79999999999998 143.39999999999998 184.39999999999998 142.29999999999998 C 183.99999999999997 141.39999999999998 183.29999999999998 140.79999999999998 181.99999999999997 140.49999999999997 C 181.99999999999997 140.49999999999997 181.79999999999998 140.49999999999997 181.99999999999997 140.49999999999997 C 182.3 141.8 183.2 144 183.7 145.2 L 183.7 145.2 z M 161.8 137.3 C 161.8 137.3 161.6 137.3 161.8 137.3 C 162.5 138.8 163.3 140.20000000000002 164.20000000000002 141.70000000000002 C 165.10000000000002 143.20000000000002 166.00000000000003 144.4 167.10000000000002 145.70000000000002 L 167.3 145.70000000000002 C 167 142 165.2 138.9 161.8 137.3 L 161.8 137.3 z M 86.1 168.1 L 86.1 168.1 C 86.1 168.79999999999998 86.3 169.6 86.5 170.29999999999998 C 86.9 171.6 88.3 174.99999999999997 88.9 176.29999999999998 L 89 176.29999999999998 C 90.1 173 88.8 169.9 86.1 168.1 L 86.1 168.1 z M 147.8 168.1 L 147.8 168.1 C 148.5 167.7 148.9 167.2 149.3 166.6 C 150.20000000000002 165.5 152.20000000000002 162.6 152.9 161.29999999999998 L 152.70000000000002 161.1 C 149.6 162.1 147.8 164.9 147.8 168.1 L 147.8 168.1 z" stroke-linecap="round" />
</g>
</g>
</g>
<g transform="matrix(1.2740206844751627 0 0 1.2740206844751627 799.5334560047396 365.94516136018416)" id="shape-776754ad-7c2a-4b4f-8fb8-6ecaacc59553"  >
<g style=""  paint-order="stroke"   >
		<g transform="matrix(1 0 0 1 0 0)" id="path-01"  >
<linearGradient id="SVGID_848792" gradientUnits="userSpaceOnUse" gradientTransform="matrix(1 0 0 1 0 0)"  x1="0" y1="0" x2="0" y2="230">
<stop offset="0%" style="stop-color:rgb(48,35,174);stop-opacity: 1"/>
<stop offset="100%" style="stop-color:rgb(200,109,215);stop-opacity: 1"/>
</linearGradient>
<path style="stroke: none; stroke-width: 0; stroke-dasharray: none; stroke-linecap: butt; stroke-dashoffset: 0; stroke-linejoin: miter; stroke-miterlimit: 4; fill: url(#SVGID_848792); fill-rule: nonzero; opacity: 1;"  paint-order="stroke"  transform=" translate(-125, -114.9936)" d="M 222.48264 50.35272 L 250 50.35272 L 250 177.88674 L 217.4297 177.88674 L 217.4297 229.9872 L 158.0888 177.88674 L 74.44724 177.88674 L 105.78845 150.36968000000002 L 214.98264999999998 150.36968000000002 C 219.12448999999998 150.36968000000002 222.48263999999998 147.01153000000002 222.48263999999998 142.86969000000002 L 222.48263999999998 50.35272 Z M 36.48677 201.23511 L 36.48677 142.8697 L 0 142.8697 L 0 0 L 214.98265 0 L 214.98265 142.8697 L 102.96313 142.8697 L 36.48677000000001 201.23511 Z M 125.44815 71.43485 C 125.44815 61.517559999999996 117.40861 53.47802 107.49132 53.47802 C 97.57403000000001 53.47802 89.53465 61.51756 89.53465 71.43485 C 89.53465 81.35213999999999 97.57404 89.39137 107.49132 89.39137 C 117.4086 89.39137 125.44815 81.35182999999999 125.44815 71.43485 Z M 181.76308 71.43485 C 181.76308 61.517559999999996 173.72369 53.47802 163.80641 53.47802 C 153.88913 53.47802 145.84974 61.51756 145.84974 71.43485 C 145.84974 81.35213999999999 153.88913 89.39137 163.80641 89.39137 C 173.72369 89.39137 181.76308 81.35182999999999 181.76308 71.43485 Z M 51.17624 89.39137 C 61.09353 89.39137 69.13307 81.35182999999999 69.13307 71.43485 C 69.13307 61.51787 61.09353 53.47802 51.17624000000001 53.47802 C 41.25895000000001 53.47802 33.219570000000004 61.51756 33.219570000000004 71.43485 C 33.219570000000004 81.35213999999999 41.25896 89.39137 51.17624000000001 89.39137 Z" stroke-linecap="round" />
</g>
</g>
</g>
</svg>