<?xml version="1.0" encoding="UTF-8" standalone="no" ?>
<!DOCTYPE svg PUBLIC "-//W3C//DTD SVG 1.1//EN" "http://www.w3.org/Graphics/SVG/1.1/DTD/svg11.dtd">
<svg xmlns="http://www.w3.org/2000/svg" xmlns:xlink="http://www.w3.org/1999/xlink" version="1.1" width="1920" height="1080" viewBox="0 0 1920 1080" xml:space="preserve">
<desc>Created with Fabric.js 5.3.0</desc>
<defs>
</defs>
<g transform="matrix(2.8247448057948934 0 0 2.8247448057948934 960.4324181773278 539.5265617553322)" id="background-14396dae-b82c-488d-b13f-c7ba1ed5d0b8"  >
<rect style="stroke: none; stroke-width: 0; stroke-dasharray: none; stroke-linecap: butt; stroke-dashoffset: 0; stroke-linejoin: miter; stroke-miterlimit: 4; fill: rgb(9,9,9); fill-rule: nonzero; opacity: 1;"  paint-order="stroke"  x="-340" y="-191.25" rx="0" ry="0" width="680" height="382.5" />
</g>
<g transform="matrix(-7.855076706516847 0 0 7.855076706516847 1443.7160125457767 540.9389341582296)" id="shape-fa42c309-98aa-401a-b7d0-454f7c2929eb"  >
<g style="opacity: 0.31;"  paint-order="stroke"   >
		<g transform="matrix(1 0 0 1 -6.490000000000009 -25.31499999999999)" id="Shape-2"  >
<linearGradient id="SVGID_13_37_369682" gradientUnits="userSpaceOnUse" gradientTransform="matrix(1 0 0 1 4.5 32.83999999999999)"  x1="0" y1="0" x2="0" y2="60">
<stop offset="0%" style="stop-color:rgb(250,217,97);stop-opacity: 1"/>
<stop offset="100%" style="stop-color:rgb(247,107,28);stop-opacity: 1"/>
</linearGradient>
<path style="stroke: none; stroke-width: 1; stroke-dasharray: none; stroke-linecap: butt; stroke-dashoffset: 0; stroke-linejoin: miter; stroke-miterlimit: 4; fill: url(#SVGID_13_37_369682); fill-rule: nonzero; opacity: 0.28;"  paint-order="stroke"  transform=" translate(-59.035, -62.62)" d="M 18.55 87.81 L 34.3 87.81 L 46.48 75.63 L 91.03 75.63 L 99.28 83.88 L 109.08 83.88 C 109.37 84.82 110.23 85.5 111.27 85.5 C 112.55 85.5 113.57 84.48 113.57 83.21 C 113.57 81.92999999999999 112.55 80.91 111.27 80.91 C 110.33999999999999 80.91 109.55 81.46 109.17999999999999 82.25 L 99.96 82.25 L 91.68 74 L 48.1 74 L 58.79 63.31 L 84.88 63.31 C 85.21 64.18 86.03 64.81 87.02 64.81 C 88.3 64.81 89.33 63.78 89.33 62.5 C 89.33 61.23 88.3 60.2 87.02 60.2 C 86.03999999999999 60.2 85.21 60.82 84.89 61.690000000000005 L 58.12 61.690000000000005 L 45.8 74 L 43.08 74 L 37.72 68.63 L 48.2 58.16 L 73.93 58.16 L 80.01 52.06999999999999 L 103.04 52.06999999999999 C 103.22000000000001 52.769999999999996 103.86 53.29999999999999 104.61 53.29999999999999 C 105.51 53.29999999999999 106.23 52.56999999999999 106.23 51.66999999999999 C 106.23 50.76999999999998 105.51 50.04999999999999 104.61 50.04999999999999 C 103.85 50.04999999999999 103.22 50.56999999999999 103.04 51.26999999999999 L 79.67 51.26999999999999 L 73.59 57.34999999999999 L 49.01 57.34999999999999 L 54.83 51.52999999999999 L 67.94 51.52999999999999 C 67.94 52.429999999999986 68.66 53.149999999999984 69.57 53.149999999999984 C 70.46 53.149999999999984 71.19999999999999 52.429999999999986 71.19999999999999 51.52999999999999 C 71.19999999999999 50.62999999999999 70.46 49.899999999999984 69.57 49.899999999999984 C 68.96 49.899999999999984 68.44999999999999 50.22999999999998 68.16999999999999 50.70999999999999 L 54.49 50.70999999999999 L 47.86 57.33999999999999 L 39.68 57.33999999999999 L 28.98 46.64999999999999 L 39.57 46.64999999999999 C 39.75 47.349999999999994 40.37 47.86999999999999 41.12 47.86999999999999 C 42.029999999999994 47.86999999999999 42.75 47.14999999999999 42.75 46.23999999999999 C 42.75 45.93999999999999 42.66 45.65999999999999 42.52 45.41999999999999 L 53.21 34.73999999999999 L 68.5 34.73999999999999 C 68.63 35.499999999999986 69.3 36.08999999999999 70.1 36.08999999999999 C 71 36.08999999999999 71.72 35.35999999999999 71.72 34.45999999999999 C 71.72 33.569999999999986 71 32.83999999999999 70.1 32.83999999999999 C 69.39 32.83999999999999 68.8 33.29999999999999 68.57 33.91999999999999 L 52.86999999999999 33.91999999999999 L 41.94 44.85 C 41.699999999999996 44.71 41.419999999999995 44.620000000000005 41.12 44.620000000000005 C 40.37 44.620000000000005 39.75 45.14000000000001 39.57 45.84 L 28.16 45.84 L 20.11 37.800000000000004 C 20.259999999999998 37.56 20.34 37.28 20.34 36.970000000000006 C 20.34 36.07000000000001 19.61 35.35000000000001 18.71 35.35000000000001 C 17.95 35.35000000000001 17.32 35.87000000000001 17.14 36.57000000000001 L 4.5 36.57000000000001 L 4.5 37.38000000000001 L 17.15 37.38000000000001 C 17.33 38.08000000000001 17.97 38.60000000000001 18.72 38.60000000000001 C 19.02 38.60000000000001 19.299999999999997 38.510000000000005 19.54 38.37000000000001 L 27.009999999999998 45.84000000000001 L 4.5 45.84000000000001 L 4.5 46.65000000000001 L 27.82 46.65000000000001 L 39.32 58.16000000000001 L 47.04 58.16000000000001 L 37.14 68.06000000000002 L 28.259999999999998 59.170000000000016 L 6.94 59.170000000000016 L 4.5 61.61 L 4.5 63.91 L 7.609999999999999 60.8 L 27.59 60.8 L 36 69.21 L 19.02 86.19 L 4.5 86.19 L 4.5 87.81 L 17.4 87.81 L 13.62 91.59 L 4.5 91.59 L 4.5 92.4 L 13.95 92.4 L 18.55 87.81 z M 36.57 69.78 L 42.42 75.63 L 44.17 75.63 L 33.61 86.19 L 20.17 86.19 L 36.57 69.78 z" stroke-linecap="round" />
</g>
		<g transform="matrix(1 0 0 1 13.099999999999994 -0.8749999999999787)" id="Shape-2"  >
<linearGradient id="SVGID_369663" gradientUnits="userSpaceOnUse" gradientTransform="matrix(1 0 0 1 44.92 79.4)"  x1="0" y1="0" x2="0" y2="15">
<stop offset="0%" style="stop-color:rgb(250,217,97);stop-opacity: 1"/>
<stop offset="100%" style="stop-color:rgb(247,107,28);stop-opacity: 1"/>
</linearGradient>
<path style="stroke: none; stroke-width: 1; stroke-dasharray: none; stroke-linecap: butt; stroke-dashoffset: 0; stroke-linejoin: miter; stroke-miterlimit: 4; fill: url(#SVGID_369663); fill-rule: nonzero; opacity: 0.28;"  paint-order="stroke"  transform=" translate(-78.625, -87.06)" d="M 109.14 92.69 L 93.27 92.69 L 81.23 80.63 L 48.11 80.63 C 47.93 79.92999999999999 47.31 79.39999999999999 46.55 79.39999999999999 C 45.65 79.39999999999999 44.919999999999995 80.13 44.919999999999995 81.02999999999999 C 44.919999999999995 81.92999999999999 45.64999999999999 82.65999999999998 46.55 82.65999999999998 C 47.309999999999995 82.65999999999998 47.93 82.13999999999999 48.11 81.43999999999998 L 80.9 81.43999999999998 L 92.94 93.5 L 109.14 93.5 C 109.32000000000001 94.2 109.95 94.72 110.71 94.72 C 111.6 94.72 112.33 93.99 112.33 93.09 C 112.33 92.19 111.6 91.47 110.71 91.47 C 109.95 91.47 109.32 91.99 109.14 92.69 z" stroke-linecap="round" />
</g>
		<g transform="matrix(1 0 0 1 -47.550000000000004 -11.904999999999987)" id="Shape-2"  >
<linearGradient id="SVGID_369664" gradientUnits="userSpaceOnUse" gradientTransform="matrix(1 0 0 1 16.36 74.4)"  x1="0" y1="0" x2="0" y2="3">
<stop offset="0%" style="stop-color:rgb(250,217,97);stop-opacity: 1"/>
<stop offset="100%" style="stop-color:rgb(247,107,28);stop-opacity: 1"/>
</linearGradient>
<path style="stroke: none; stroke-width: 1; stroke-dasharray: none; stroke-linecap: butt; stroke-dashoffset: 0; stroke-linejoin: miter; stroke-miterlimit: 4; fill: url(#SVGID_369664); fill-rule: nonzero; opacity: 0.28;"  paint-order="stroke"  transform=" translate(-17.975, -76.03)" d="M 19.59 76.03 C 19.59 75.13 18.87 74.4 17.98 74.4 C 17.07 74.4 16.36 75.13000000000001 16.36 76.03 C 16.36 76.93 17.07 77.66 17.98 77.66 C 18.87 77.66 19.59 76.93 19.59 76.03 z" stroke-linecap="round" />
</g>
		<g transform="matrix(1 0 0 1 0 30.860000000000007)" id="Shape-2"  >
<linearGradient id="SVGID_369665" gradientUnits="userSpaceOnUse" gradientTransform="matrix(1 0 0 1 4.500000000000007 94.56)"  x1="0" y1="0" x2="0" y2="48">
<stop offset="0%" style="stop-color:rgb(250,217,97);stop-opacity: 1"/>
<stop offset="100%" style="stop-color:rgb(247,107,28);stop-opacity: 1"/>
</linearGradient>
<path style="stroke: none; stroke-width: 1; stroke-dasharray: none; stroke-linecap: butt; stroke-dashoffset: 0; stroke-linejoin: miter; stroke-miterlimit: 4; fill: url(#SVGID_369665); fill-rule: nonzero; opacity: 0.28;"  paint-order="stroke"  transform=" translate(-65.525, -118.79499999999999)" d="M 124.92 111.63 C 124.55 111.63 124.21000000000001 111.75999999999999 123.93 111.97 L 117.10000000000001 105.13 L 67.7 105.13 C 67.41 104.64999999999999 66.89 104.31 66.29 104.31 C 65.41000000000001 104.31 64.67 105.04 64.67 105.94 C 64.67 106.21 64.74 106.45 64.86 106.67 L 58.28 113.25 L 37.5 113.25 L 33.44 109.19 L 44.54 109.19 L 56.98 96.74 L 67.75999999999999 96.74 C 67.97999999999999 97.36999999999999 68.57 97.80999999999999 69.27999999999999 97.80999999999999 C 70.17999999999999 97.80999999999999 70.89999999999999 97.08999999999999 70.89999999999999 96.18999999999998 C 70.89999999999999 95.28999999999998 70.17999999999999 94.55999999999999 69.27999999999999 94.55999999999999 C 68.46999999999998 94.55999999999999 67.82 95.14999999999999 67.68999999999998 95.91999999999999 L 56.65 95.91999999999999 L 44.21 108.36999999999999 L 32.63 108.36999999999999 L 23.040000000000003 98.77 C 23.180000000000003 98.53 23.270000000000003 98.25999999999999 23.270000000000003 97.96 C 23.270000000000003 97.05999999999999 22.530000000000005 96.33999999999999 21.640000000000004 96.33999999999999 C 20.880000000000003 96.33999999999999 20.260000000000005 96.85 20.070000000000004 97.53999999999999 L 4.5 97.53999999999999 L 4.5 98.35999999999999 L 20.05 98.35999999999999 C 20.23 99.06999999999998 20.86 99.59999999999998 21.630000000000003 99.59999999999998 C 21.930000000000003 99.59999999999998 22.220000000000002 99.50999999999998 22.46 99.35999999999999 L 31.48 108.37999999999998 L 14.080000000000002 108.37999999999998 C 13.920000000000002 107.64999999999998 13.270000000000001 107.08999999999997 12.500000000000002 107.08999999999997 C 11.600000000000001 107.08999999999997 10.890000000000002 107.81999999999998 10.890000000000002 108.71999999999997 C 10.890000000000002 109.08999999999997 11.020000000000003 109.42999999999996 11.220000000000002 109.69999999999997 L 4.5100000000000025 116.40999999999997 L 4.5100000000000025 117.54999999999997 L 11.860000000000003 110.19999999999997 C 12.060000000000002 110.28999999999998 12.280000000000003 110.33999999999997 12.510000000000003 110.33999999999997 C 13.230000000000004 110.33999999999997 13.850000000000003 109.84999999999998 14.050000000000004 109.18999999999997 L 32.31 109.18999999999997 L 37.190000000000005 114.06999999999996 L 57.49000000000001 114.06999999999996 L 29.34000000000001 142.21999999999997 L 4.5 142.21999999999997 L 4.5 143.02999999999997 L 29.65 143.02999999999997 L 58.61 114.05999999999997 L 78.32 114.05999999999997 C 78.53999999999999 114.68999999999997 79.13 115.12999999999997 79.83999999999999 115.12999999999997 C 80.74 115.12999999999997 81.46 114.40999999999997 81.46 113.50999999999996 C 81.46 112.60999999999996 80.74 111.87999999999997 79.83999999999999 111.87999999999997 C 79.02999999999999 111.87999999999997 78.38 112.46999999999997 78.24999999999999 113.23999999999997 L 59.43 113.23999999999997 L 65.4 107.26999999999997 C 65.66000000000001 107.43999999999997 65.97 107.54999999999997 66.30000000000001 107.54999999999997 C 67.20000000000002 107.54999999999997 67.94000000000001 106.82999999999997 67.94000000000001 105.92999999999996 L 116.77000000000001 105.92999999999996 L 123.43 112.58999999999996 C 123.34 112.78999999999996 123.29 113.00999999999996 123.29 113.23999999999997 C 123.29 114.13999999999997 124.02000000000001 114.85999999999997 124.92 114.85999999999997 C 125.82000000000001 114.85999999999997 126.55 114.13999999999997 126.55 113.23999999999997 C 126.55 112.36 125.82 111.63 124.92 111.63 z" stroke-linecap="round" />
</g>
		<g transform="matrix(1 0 0 1 -42.165000000000006 -35.389999999999986)" id="Shape-2"  >
<linearGradient id="SVGID_369666" gradientUnits="userSpaceOnUse" gradientTransform="matrix(1 0 0 1 21.049999999999997 50.25)"  x1="0" y1="0" x2="0" y2="5">
<stop offset="0%" style="stop-color:rgb(250,217,97);stop-opacity: 1"/>
<stop offset="100%" style="stop-color:rgb(247,107,28);stop-opacity: 1"/>
</linearGradient>
<path style="stroke: none; stroke-width: 1; stroke-dasharray: none; stroke-linecap: butt; stroke-dashoffset: 0; stroke-linejoin: miter; stroke-miterlimit: 4; fill: url(#SVGID_369666); fill-rule: nonzero; opacity: 0.28;"  paint-order="stroke"  transform=" translate(-23.36, -52.545)" d="M 25.67 52.54 C 25.67 51.269999999999996 24.62 50.25 23.35 50.25 C 22.080000000000002 50.25 21.05 51.27 21.05 52.54 C 21.05 53.81 22.080000000000002 54.839999999999996 23.35 54.839999999999996 C 24.62 54.84 25.67 53.81 25.67 52.54 z" stroke-linecap="round" />
</g>
</g>
</g>
<g transform="matrix(-6.045426024824107 0 0 6.045426024824108 1633.417620893988 540.0653688343211)" id="shape-53d32a4f-a607-460e-96cf-d1eacfe11103"  >
<g style=""  paint-order="stroke"   >
		<g transform="matrix(1 0 0 1 -5.675000000000004 -22.11000000000002)" id="Shape-1"  >
<linearGradient id="SVGID_13_42_369683" gradientUnits="userSpaceOnUse" gradientTransform="matrix(1 0 0 1 4.5 38.94)"  x1="0" y1="0" x2="0" y2="52">
<stop offset="0%" style="stop-color:rgb(250,217,97);stop-opacity: 1"/>
<stop offset="100%" style="stop-color:rgb(247,107,28);stop-opacity: 1"/>
</linearGradient>
<path style="stroke: none; stroke-width: 1; stroke-dasharray: none; stroke-linecap: butt; stroke-dashoffset: 0; stroke-linejoin: miter; stroke-miterlimit: 4; fill: url(#SVGID_13_42_369683); fill-rule: nonzero; opacity: 1;"  paint-order="stroke"  transform=" translate(-53.245, -64.92999999999999)" d="M 19.05 86.9 L 32.79 86.9 L 43.42 76.27000000000001 L 82.32 76.27000000000001 L 89.52999999999999 83.48 L 98.07999999999998 83.48 C 98.32999999999998 84.3 99.07999999999998 84.89 99.97999999999999 84.89 C 101.08999999999999 84.89 101.99 83.99 101.99 82.89 C 101.99 81.78 101.08999999999999 80.88 99.97999999999999 80.88 C 99.16999999999999 80.88 98.47999999999999 81.36 98.16 82.06 L 90.11 82.06 L 82.9 74.85000000000001 L 44.84 74.85000000000001 L 54.17 65.52000000000001 L 76.95 65.52000000000001 C 77.24000000000001 66.28000000000002 77.96000000000001 66.82000000000001 78.83 66.82000000000001 C 79.92999999999999 66.82000000000001 80.84 65.92 80.84 64.81 C 80.84 63.7 79.93 62.800000000000004 78.83 62.800000000000004 C 77.97 62.800000000000004 77.24 63.34 76.95 64.10000000000001 L 53.6 64.10000000000001 L 42.85 74.84 L 40.480000000000004 74.84 L 35.790000000000006 70.16 L 44.940000000000005 61.01 L 67.4 61.01 L 72.72 55.69 L 92.83 55.69 C 92.99 56.3 93.53999999999999 56.76 94.2 56.76 C 94.98 56.76 95.61 56.12 95.61 55.339999999999996 C 95.61 54.559999999999995 94.98 53.93 94.2 53.93 C 93.54 53.93 92.98 54.38 92.83 54.99 L 72.41 54.99 L 67.11 60.300000000000004 L 45.66 60.300000000000004 L 50.739999999999995 55.230000000000004 L 62.169999999999995 55.230000000000004 C 62.169999999999995 56.010000000000005 62.809999999999995 56.64 63.589999999999996 56.64 C 64.36999999999999 56.64 65.00999999999999 56.01 65.00999999999999 55.230000000000004 C 65.00999999999999 54.45000000000001 64.36999999999999 53.81 63.58999999999999 53.81 C 63.069999999999986 53.81 62.60999999999999 54.1 62.36999999999999 54.52 L 50.42 54.52 L 44.64 60.31 L 37.49 60.31 L 28.150000000000002 50.980000000000004 L 37.400000000000006 50.980000000000004 C 37.56 51.59 38.11000000000001 52.040000000000006 38.77 52.040000000000006 C 39.550000000000004 52.040000000000006 40.17 51.410000000000004 40.17 50.620000000000005 C 40.17 50.36000000000001 40.1 50.120000000000005 39.980000000000004 49.92 L 49.31 40.58 L 62.660000000000004 40.58 C 62.77 41.25 63.36000000000001 41.769999999999996 64.06 41.769999999999996 C 64.84 41.769999999999996 65.48 41.129999999999995 65.48 40.349999999999994 C 65.48 39.57999999999999 64.84 38.94 64.06 38.94 C 63.45 38.94 62.92 39.339999999999996 62.730000000000004 39.879999999999995 L 49.03 39.879999999999995 L 39.480000000000004 49.419999999999995 C 39.27 49.3 39.040000000000006 49.21999999999999 38.78 49.21999999999999 C 38.120000000000005 49.21999999999999 37.57 49.67999999999999 37.410000000000004 50.279999999999994 L 27.450000000000003 50.279999999999994 L 20.42 43.25999999999999 C 20.55 43.04999999999999 20.62 42.79999999999999 20.62 42.53999999999999 C 20.62 41.75999999999999 19.98 41.129999999999995 19.200000000000003 41.129999999999995 C 18.540000000000003 41.129999999999995 17.980000000000004 41.58 17.830000000000002 42.19 L 4.5 42.19 L 4.5 42.9 L 17.82 42.9 C 17.98 43.51 18.53 43.96 19.19 43.96 C 19.450000000000003 43.96 19.700000000000003 43.88 19.91 43.76 L 26.44 50.28 L 4.5 50.28 L 4.5 50.99 L 27.15 50.99 L 37.2 61.02 L 43.93000000000001 61.02 L 35.290000000000006 69.66 L 27.53000000000001 61.91 L 8.92 61.91 L 4.5 66.33 L 4.5 68.33 L 9.5 63.33 L 26.95 63.33 L 34.28 70.67 L 19.46 85.49 L 4.5 85.49 L 4.5 86.89999999999999 L 18.05 86.89999999999999 L 14.74 90.21 L 4.5 90.21 L 4.5 90.91999999999999 L 15.03 90.91999999999999 L 19.05 86.9 z M 34.79 71.17 L 39.879999999999995 76.27 L 41.419999999999995 76.27 L 32.199999999999996 85.49 L 20.47 85.49 L 34.79 71.17 z" stroke-linecap="round" />
</g>
		<g transform="matrix(1 0 0 1 12.584999999999994 -0.7900000000000205)" id="Shape-1"  >
<linearGradient id="SVGID_369668" gradientUnits="userSpaceOnUse" gradientTransform="matrix(1 0 0 1 42.07999999999999 79.57)"  x1="0" y1="0" x2="0" y2="13">
<stop offset="0%" style="stop-color:rgb(250,217,97);stop-opacity: 1"/>
<stop offset="100%" style="stop-color:rgb(247,107,28);stop-opacity: 1"/>
</linearGradient>
<path style="stroke: none; stroke-width: 1; stroke-dasharray: none; stroke-linecap: butt; stroke-dashoffset: 0; stroke-linejoin: miter; stroke-miterlimit: 4; fill: url(#SVGID_369668); fill-rule: nonzero; opacity: 1;"  paint-order="stroke"  transform=" translate(-71.505, -86.25)" d="M 98.15 91.16 L 84.29 91.16 L 73.77 80.64 L 44.87 80.64 C 44.71 80.03 44.16 79.57000000000001 43.5 79.57000000000001 C 42.72 79.57000000000001 42.08 80.21000000000001 42.08 80.99000000000001 C 42.08 81.77000000000001 42.72 82.41000000000001 43.5 82.41000000000001 C 44.16 82.41000000000001 44.71 81.96000000000001 44.87 81.35000000000001 L 73.49 81.35000000000001 L 84 91.87 L 98.15 91.87 C 98.31 92.48 98.85000000000001 92.93 99.51 92.93 C 100.29 92.93 100.93 92.29 100.93 91.51 C 100.93 90.73 100.29 90.10000000000001 99.51 90.10000000000001 C 98.85 90.1 98.3 90.55 98.15 91.16 z" stroke-linecap="round" />
</g>
		<g transform="matrix(1 0 0 1 -40.370000000000005 -10.420000000000009)" id="Shape-1"  >
<linearGradient id="SVGID_369669" gradientUnits="userSpaceOnUse" gradientTransform="matrix(1 0 0 1 17.14 75.2)"  x1="0" y1="0" x2="0" y2="3">
<stop offset="0%" style="stop-color:rgb(250,217,97);stop-opacity: 1"/>
<stop offset="100%" style="stop-color:rgb(247,107,28);stop-opacity: 1"/>
</linearGradient>
<path style="stroke: none; stroke-width: 1; stroke-dasharray: none; stroke-linecap: butt; stroke-dashoffset: 0; stroke-linejoin: miter; stroke-miterlimit: 4; fill: url(#SVGID_369669); fill-rule: nonzero; opacity: 1;"  paint-order="stroke"  transform=" translate(-18.55, -76.62)" d="M 19.96 76.62 C 19.96 75.84 19.34 75.2 18.560000000000002 75.2 C 17.78 75.2 17.14 75.84 17.14 76.62 C 17.14 77.4 17.78 78.04 18.560000000000002 78.04 C 19.34 78.04 19.96 77.4 19.96 76.62 z" stroke-linecap="round" />
</g>
		<g transform="matrix(1 0 0 1 0 26.940000000000012)" id="Shape-1"  >
<linearGradient id="SVGID_369670" gradientUnits="userSpaceOnUse" gradientTransform="matrix(1 0 0 1 4.5 92.82000000000002)"  x1="0" y1="0" x2="0" y2="42">
<stop offset="0%" style="stop-color:rgb(250,217,97);stop-opacity: 1"/>
<stop offset="100%" style="stop-color:rgb(247,107,28);stop-opacity: 1"/>
</linearGradient>
<path style="stroke: none; stroke-width: 1; stroke-dasharray: none; stroke-linecap: butt; stroke-dashoffset: 0; stroke-linejoin: miter; stroke-miterlimit: 4; fill: url(#SVGID_369670); fill-rule: nonzero; opacity: 1;"  paint-order="stroke"  transform=" translate(-58.92, -113.98000000000002)" d="M 111.93 107.7 C 111.61000000000001 107.7 111.31 107.81 111.07000000000001 108 L 105.10000000000001 102.03 L 61.96 102.03 C 61.71 101.61 61.26 101.32000000000001 60.74 101.32000000000001 C 59.980000000000004 101.32000000000001 59.34 101.96000000000001 59.34 102.74000000000001 C 59.34 102.97000000000001 59.400000000000006 103.18 59.5 103.38000000000001 L 53.75 109.13000000000001 L 35.59 109.13000000000001 L 32.050000000000004 105.58000000000001 L 41.74 105.58000000000001 L 52.61 94.71000000000001 L 62.019999999999996 94.71000000000001 C 62.22 95.26 62.739999999999995 95.65 63.36 95.65 C 64.14 95.65 64.76 95.02000000000001 64.76 94.24000000000001 C 64.76 93.46000000000001 64.14 92.82000000000001 63.36000000000001 92.82000000000001 C 62.660000000000004 92.82000000000001 62.080000000000005 93.33000000000001 61.96000000000001 94.01 L 52.32000000000001 94.01 L 41.45000000000001 104.88000000000001 L 31.34 104.88000000000001 L 22.96 96.49000000000001 C 23.080000000000002 96.28000000000002 23.150000000000002 96.05000000000001 23.150000000000002 95.79 C 23.150000000000002 95.01 22.51 94.38000000000001 21.730000000000004 94.38000000000001 C 21.080000000000005 94.38000000000001 20.540000000000003 94.82000000000001 20.380000000000003 95.42000000000002 L 4.5 95.42000000000002 L 4.5 96.13000000000001 L 20.369999999999997 96.13000000000001 C 20.519999999999996 96.75000000000001 21.06 97.21000000000001 21.729999999999997 97.21000000000001 C 21.999999999999996 97.21000000000001 22.249999999999996 97.13000000000001 22.459999999999997 97.00000000000001 L 30.33 104.87000000000002 L 15.14 104.87000000000002 C 15 104.23000000000002 14.43 103.75000000000001 13.77 103.75000000000001 C 12.99 103.75000000000001 12.35 104.39000000000001 12.35 105.17000000000002 C 12.35 105.49000000000001 12.459999999999999 105.78000000000002 12.639999999999999 106.02000000000001 L 4.499999999999998 114.16000000000001 L 4.499999999999998 115.16000000000001 L 13.189999999999998 106.47000000000001 C 13.369999999999997 106.55000000000001 13.559999999999997 106.59000000000002 13.769999999999998 106.59000000000002 C 14.389999999999997 106.59000000000002 14.929999999999998 106.16000000000001 15.099999999999998 105.58000000000001 L 31.04 105.58000000000001 L 35.3 109.84000000000002 L 53.03 109.84000000000002 L 28.450000000000003 134.43 L 4.5 134.43 L 4.5 135.14000000000001 L 28.75 135.14000000000001 L 54.04 109.84000000000002 L 71.25 109.84000000000002 C 71.45 110.39000000000001 71.97 110.78000000000002 72.59 110.78000000000002 C 73.37 110.78000000000002 73.99000000000001 110.15000000000002 73.99000000000001 109.37000000000002 C 73.99000000000001 108.59000000000002 73.37 107.95000000000002 72.59 107.95000000000002 C 71.89 107.95000000000002 71.31 108.47000000000001 71.19 109.14000000000001 L 54.75 109.14000000000001 L 59.96 103.93000000000002 C 60.18 104.08000000000003 60.45 104.17000000000002 60.74 104.17000000000002 C 61.52 104.17000000000002 62.160000000000004 103.54000000000002 62.160000000000004 102.76000000000002 L 104.81 102.76000000000002 L 110.62 108.57000000000002 C 110.54 108.74000000000002 110.5 108.94000000000003 110.5 109.14000000000001 C 110.5 109.92000000000002 111.14 110.55000000000001 111.92 110.55000000000001 C 112.7 110.55000000000001 113.34 109.92000000000002 113.34 109.14000000000001 C 113.34 108.36000000000001 112.71 107.7 111.93 107.7 z" stroke-linecap="round" />
</g>
		<g transform="matrix(1 0 0 1 -35.67 -30.925000000000015)" id="Shape-1"  >
<linearGradient id="SVGID_369671" gradientUnits="userSpaceOnUse" gradientTransform="matrix(1 0 0 1 21.240000000000002 54.11)"  x1="0" y1="0" x2="0" y2="4">
<stop offset="0%" style="stop-color:rgb(250,217,97);stop-opacity: 1"/>
<stop offset="100%" style="stop-color:rgb(247,107,28);stop-opacity: 1"/>
</linearGradient>
<path style="stroke: none; stroke-width: 1; stroke-dasharray: none; stroke-linecap: butt; stroke-dashoffset: 0; stroke-linejoin: miter; stroke-miterlimit: 4; fill: url(#SVGID_369671); fill-rule: nonzero; opacity: 1;"  paint-order="stroke"  transform=" translate(-23.25, -56.114999999999995)" d="M 25.26 56.11 C 25.26 55.01 24.35 54.11 23.240000000000002 54.11 C 22.150000000000002 54.11 21.240000000000002 55.01 21.240000000000002 56.11 C 21.240000000000002 57.22 22.150000000000002 58.12 23.240000000000002 58.12 C 24.35 58.12 25.26 57.22 25.26 56.11 z" stroke-linecap="round" />
</g>
</g>
</g>
<g transform="matrix(7.795019043124444 0 0 7.795019043124443 469.23471803775357 544.27783995453)" id="shape-3932a081-62ce-450e-a683-0a5c10eb14da"  >
<g style="opacity: 0.31;"  paint-order="stroke"   >
		<g transform="matrix(1 0 0 1 -6.490000000000009 -25.31499999999999)" id="Shape-2"  >
<linearGradient id="SVGID_13_47_369684" gradientUnits="userSpaceOnUse" gradientTransform="matrix(1 0 0 1 4.5 32.83999999999999)"  x1="0" y1="0" x2="0" y2="60">
<stop offset="0%" style="stop-color:rgb(250,217,97);stop-opacity: 1"/>
<stop offset="100%" style="stop-color:rgb(247,107,28);stop-opacity: 1"/>
</linearGradient>
<path style="stroke: none; stroke-width: 1; stroke-dasharray: none; stroke-linecap: butt; stroke-dashoffset: 0; stroke-linejoin: miter; stroke-miterlimit: 4; fill: url(#SVGID_13_47_369684); fill-rule: nonzero; opacity: 0.28;"  paint-order="stroke"  transform=" translate(-59.035, -62.62)" d="M 18.55 87.81 L 34.3 87.81 L 46.48 75.63 L 91.03 75.63 L 99.28 83.88 L 109.08 83.88 C 109.37 84.82 110.23 85.5 111.27 85.5 C 112.55 85.5 113.57 84.48 113.57 83.21 C 113.57 81.92999999999999 112.55 80.91 111.27 80.91 C 110.33999999999999 80.91 109.55 81.46 109.17999999999999 82.25 L 99.96 82.25 L 91.68 74 L 48.1 74 L 58.79 63.31 L 84.88 63.31 C 85.21 64.18 86.03 64.81 87.02 64.81 C 88.3 64.81 89.33 63.78 89.33 62.5 C 89.33 61.23 88.3 60.2 87.02 60.2 C 86.03999999999999 60.2 85.21 60.82 84.89 61.690000000000005 L 58.12 61.690000000000005 L 45.8 74 L 43.08 74 L 37.72 68.63 L 48.2 58.16 L 73.93 58.16 L 80.01 52.06999999999999 L 103.04 52.06999999999999 C 103.22000000000001 52.769999999999996 103.86 53.29999999999999 104.61 53.29999999999999 C 105.51 53.29999999999999 106.23 52.56999999999999 106.23 51.66999999999999 C 106.23 50.76999999999998 105.51 50.04999999999999 104.61 50.04999999999999 C 103.85 50.04999999999999 103.22 50.56999999999999 103.04 51.26999999999999 L 79.67 51.26999999999999 L 73.59 57.34999999999999 L 49.01 57.34999999999999 L 54.83 51.52999999999999 L 67.94 51.52999999999999 C 67.94 52.429999999999986 68.66 53.149999999999984 69.57 53.149999999999984 C 70.46 53.149999999999984 71.19999999999999 52.429999999999986 71.19999999999999 51.52999999999999 C 71.19999999999999 50.62999999999999 70.46 49.899999999999984 69.57 49.899999999999984 C 68.96 49.899999999999984 68.44999999999999 50.22999999999998 68.16999999999999 50.70999999999999 L 54.49 50.70999999999999 L 47.86 57.33999999999999 L 39.68 57.33999999999999 L 28.98 46.64999999999999 L 39.57 46.64999999999999 C 39.75 47.349999999999994 40.37 47.86999999999999 41.12 47.86999999999999 C 42.029999999999994 47.86999999999999 42.75 47.14999999999999 42.75 46.23999999999999 C 42.75 45.93999999999999 42.66 45.65999999999999 42.52 45.41999999999999 L 53.21 34.73999999999999 L 68.5 34.73999999999999 C 68.63 35.499999999999986 69.3 36.08999999999999 70.1 36.08999999999999 C 71 36.08999999999999 71.72 35.35999999999999 71.72 34.45999999999999 C 71.72 33.569999999999986 71 32.83999999999999 70.1 32.83999999999999 C 69.39 32.83999999999999 68.8 33.29999999999999 68.57 33.91999999999999 L 52.86999999999999 33.91999999999999 L 41.94 44.85 C 41.699999999999996 44.71 41.419999999999995 44.620000000000005 41.12 44.620000000000005 C 40.37 44.620000000000005 39.75 45.14000000000001 39.57 45.84 L 28.16 45.84 L 20.11 37.800000000000004 C 20.259999999999998 37.56 20.34 37.28 20.34 36.970000000000006 C 20.34 36.07000000000001 19.61 35.35000000000001 18.71 35.35000000000001 C 17.95 35.35000000000001 17.32 35.87000000000001 17.14 36.57000000000001 L 4.5 36.57000000000001 L 4.5 37.38000000000001 L 17.15 37.38000000000001 C 17.33 38.08000000000001 17.97 38.60000000000001 18.72 38.60000000000001 C 19.02 38.60000000000001 19.299999999999997 38.510000000000005 19.54 38.37000000000001 L 27.009999999999998 45.84000000000001 L 4.5 45.84000000000001 L 4.5 46.65000000000001 L 27.82 46.65000000000001 L 39.32 58.16000000000001 L 47.04 58.16000000000001 L 37.14 68.06000000000002 L 28.259999999999998 59.170000000000016 L 6.94 59.170000000000016 L 4.5 61.61 L 4.5 63.91 L 7.609999999999999 60.8 L 27.59 60.8 L 36 69.21 L 19.02 86.19 L 4.5 86.19 L 4.5 87.81 L 17.4 87.81 L 13.62 91.59 L 4.5 91.59 L 4.5 92.4 L 13.95 92.4 L 18.55 87.81 z M 36.57 69.78 L 42.42 75.63 L 44.17 75.63 L 33.61 86.19 L 20.17 86.19 L 36.57 69.78 z" stroke-linecap="round" />
</g>
		<g transform="matrix(1 0 0 1 13.099999999999994 -0.8749999999999787)" id="Shape-2"  >
<linearGradient id="SVGID_369673" gradientUnits="userSpaceOnUse" gradientTransform="matrix(1 0 0 1 44.92 79.4)"  x1="0" y1="0" x2="0" y2="15">
<stop offset="0%" style="stop-color:rgb(250,217,97);stop-opacity: 1"/>
<stop offset="100%" style="stop-color:rgb(247,107,28);stop-opacity: 1"/>
</linearGradient>
<path style="stroke: none; stroke-width: 1; stroke-dasharray: none; stroke-linecap: butt; stroke-dashoffset: 0; stroke-linejoin: miter; stroke-miterlimit: 4; fill: url(#SVGID_369673); fill-rule: nonzero; opacity: 0.28;"  paint-order="stroke"  transform=" translate(-78.625, -87.06)" d="M 109.14 92.69 L 93.27 92.69 L 81.23 80.63 L 48.11 80.63 C 47.93 79.92999999999999 47.31 79.39999999999999 46.55 79.39999999999999 C 45.65 79.39999999999999 44.919999999999995 80.13 44.919999999999995 81.02999999999999 C 44.919999999999995 81.92999999999999 45.64999999999999 82.65999999999998 46.55 82.65999999999998 C 47.309999999999995 82.65999999999998 47.93 82.13999999999999 48.11 81.43999999999998 L 80.9 81.43999999999998 L 92.94 93.5 L 109.14 93.5 C 109.32000000000001 94.2 109.95 94.72 110.71 94.72 C 111.6 94.72 112.33 93.99 112.33 93.09 C 112.33 92.19 111.6 91.47 110.71 91.47 C 109.95 91.47 109.32 91.99 109.14 92.69 z" stroke-linecap="round" />
</g>
		<g transform="matrix(1 0 0 1 -47.550000000000004 -11.904999999999987)" id="Shape-2"  >
<linearGradient id="SVGID_369674" gradientUnits="userSpaceOnUse" gradientTransform="matrix(1 0 0 1 16.36 74.4)"  x1="0" y1="0" x2="0" y2="3">
<stop offset="0%" style="stop-color:rgb(250,217,97);stop-opacity: 1"/>
<stop offset="100%" style="stop-color:rgb(247,107,28);stop-opacity: 1"/>
</linearGradient>
<path style="stroke: none; stroke-width: 1; stroke-dasharray: none; stroke-linecap: butt; stroke-dashoffset: 0; stroke-linejoin: miter; stroke-miterlimit: 4; fill: url(#SVGID_369674); fill-rule: nonzero; opacity: 0.28;"  paint-order="stroke"  transform=" translate(-17.975, -76.03)" d="M 19.59 76.03 C 19.59 75.13 18.87 74.4 17.98 74.4 C 17.07 74.4 16.36 75.13000000000001 16.36 76.03 C 16.36 76.93 17.07 77.66 17.98 77.66 C 18.87 77.66 19.59 76.93 19.59 76.03 z" stroke-linecap="round" />
</g>
		<g transform="matrix(1 0 0 1 0 30.860000000000007)" id="Shape-2"  >
<linearGradient id="SVGID_369675" gradientUnits="userSpaceOnUse" gradientTransform="matrix(1 0 0 1 4.500000000000007 94.56)"  x1="0" y1="0" x2="0" y2="48">
<stop offset="0%" style="stop-color:rgb(250,217,97);stop-opacity: 1"/>
<stop offset="100%" style="stop-color:rgb(247,107,28);stop-opacity: 1"/>
</linearGradient>
<path style="stroke: none; stroke-width: 1; stroke-dasharray: none; stroke-linecap: butt; stroke-dashoffset: 0; stroke-linejoin: miter; stroke-miterlimit: 4; fill: url(#SVGID_369675); fill-rule: nonzero; opacity: 0.28;"  paint-order="stroke"  transform=" translate(-65.525, -118.79499999999999)" d="M 124.92 111.63 C 124.55 111.63 124.21000000000001 111.75999999999999 123.93 111.97 L 117.10000000000001 105.13 L 67.7 105.13 C 67.41 104.64999999999999 66.89 104.31 66.29 104.31 C 65.41000000000001 104.31 64.67 105.04 64.67 105.94 C 64.67 106.21 64.74 106.45 64.86 106.67 L 58.28 113.25 L 37.5 113.25 L 33.44 109.19 L 44.54 109.19 L 56.98 96.74 L 67.75999999999999 96.74 C 67.97999999999999 97.36999999999999 68.57 97.80999999999999 69.27999999999999 97.80999999999999 C 70.17999999999999 97.80999999999999 70.89999999999999 97.08999999999999 70.89999999999999 96.18999999999998 C 70.89999999999999 95.28999999999998 70.17999999999999 94.55999999999999 69.27999999999999 94.55999999999999 C 68.46999999999998 94.55999999999999 67.82 95.14999999999999 67.68999999999998 95.91999999999999 L 56.65 95.91999999999999 L 44.21 108.36999999999999 L 32.63 108.36999999999999 L 23.040000000000003 98.77 C 23.180000000000003 98.53 23.270000000000003 98.25999999999999 23.270000000000003 97.96 C 23.270000000000003 97.05999999999999 22.530000000000005 96.33999999999999 21.640000000000004 96.33999999999999 C 20.880000000000003 96.33999999999999 20.260000000000005 96.85 20.070000000000004 97.53999999999999 L 4.5 97.53999999999999 L 4.5 98.35999999999999 L 20.05 98.35999999999999 C 20.23 99.06999999999998 20.86 99.59999999999998 21.630000000000003 99.59999999999998 C 21.930000000000003 99.59999999999998 22.220000000000002 99.50999999999998 22.46 99.35999999999999 L 31.48 108.37999999999998 L 14.080000000000002 108.37999999999998 C 13.920000000000002 107.64999999999998 13.270000000000001 107.08999999999997 12.500000000000002 107.08999999999997 C 11.600000000000001 107.08999999999997 10.890000000000002 107.81999999999998 10.890000000000002 108.71999999999997 C 10.890000000000002 109.08999999999997 11.020000000000003 109.42999999999996 11.220000000000002 109.69999999999997 L 4.5100000000000025 116.40999999999997 L 4.5100000000000025 117.54999999999997 L 11.860000000000003 110.19999999999997 C 12.060000000000002 110.28999999999998 12.280000000000003 110.33999999999997 12.510000000000003 110.33999999999997 C 13.230000000000004 110.33999999999997 13.850000000000003 109.84999999999998 14.050000000000004 109.18999999999997 L 32.31 109.18999999999997 L 37.190000000000005 114.06999999999996 L 57.49000000000001 114.06999999999996 L 29.34000000000001 142.21999999999997 L 4.5 142.21999999999997 L 4.5 143.02999999999997 L 29.65 143.02999999999997 L 58.61 114.05999999999997 L 78.32 114.05999999999997 C 78.53999999999999 114.68999999999997 79.13 115.12999999999997 79.83999999999999 115.12999999999997 C 80.74 115.12999999999997 81.46 114.40999999999997 81.46 113.50999999999996 C 81.46 112.60999999999996 80.74 111.87999999999997 79.83999999999999 111.87999999999997 C 79.02999999999999 111.87999999999997 78.38 112.46999999999997 78.24999999999999 113.23999999999997 L 59.43 113.23999999999997 L 65.4 107.26999999999997 C 65.66000000000001 107.43999999999997 65.97 107.54999999999997 66.30000000000001 107.54999999999997 C 67.20000000000002 107.54999999999997 67.94000000000001 106.82999999999997 67.94000000000001 105.92999999999996 L 116.77000000000001 105.92999999999996 L 123.43 112.58999999999996 C 123.34 112.78999999999996 123.29 113.00999999999996 123.29 113.23999999999997 C 123.29 114.13999999999997 124.02000000000001 114.85999999999997 124.92 114.85999999999997 C 125.82000000000001 114.85999999999997 126.55 114.13999999999997 126.55 113.23999999999997 C 126.55 112.36 125.82 111.63 124.92 111.63 z" stroke-linecap="round" />
</g>
		<g transform="matrix(1 0 0 1 -42.165000000000006 -35.389999999999986)" id="Shape-2"  >
<linearGradient id="SVGID_369676" gradientUnits="userSpaceOnUse" gradientTransform="matrix(1 0 0 1 21.049999999999997 50.25)"  x1="0" y1="0" x2="0" y2="5">
<stop offset="0%" style="stop-color:rgb(250,217,97);stop-opacity: 1"/>
<stop offset="100%" style="stop-color:rgb(247,107,28);stop-opacity: 1"/>
</linearGradient>
<path style="stroke: none; stroke-width: 1; stroke-dasharray: none; stroke-linecap: butt; stroke-dashoffset: 0; stroke-linejoin: miter; stroke-miterlimit: 4; fill: url(#SVGID_369676); fill-rule: nonzero; opacity: 0.28;"  paint-order="stroke"  transform=" translate(-23.36, -52.545)" d="M 25.67 52.54 C 25.67 51.269999999999996 24.62 50.25 23.35 50.25 C 22.080000000000002 50.25 21.05 51.27 21.05 52.54 C 21.05 53.81 22.080000000000002 54.839999999999996 23.35 54.839999999999996 C 24.62 54.84 25.67 53.81 25.67 52.54 z" stroke-linecap="round" />
</g>
</g>
</g>
<g transform="matrix(6.06340061996625 0 0 6.0634006199662505 288.4343802258742 540.9389341582296)" id="shape-660caab6-5f47-41b5-b481-3003a3673264"  >
<g style=""  paint-order="stroke"   >
		<g transform="matrix(1 0 0 1 -5.675000000000004 -22.11000000000002)" id="Shape-1"  >
<linearGradient id="SVGID_13_52_369685" gradientUnits="userSpaceOnUse" gradientTransform="matrix(1 0 0 1 4.5 38.94)"  x1="0" y1="0" x2="0" y2="52">
<stop offset="0%" style="stop-color:rgb(250,217,97);stop-opacity: 1"/>
<stop offset="100%" style="stop-color:rgb(247,107,28);stop-opacity: 1"/>
</linearGradient>
<path style="stroke: none; stroke-width: 1; stroke-dasharray: none; stroke-linecap: butt; stroke-dashoffset: 0; stroke-linejoin: miter; stroke-miterlimit: 4; fill: url(#SVGID_13_52_369685); fill-rule: nonzero; opacity: 1;"  paint-order="stroke"  transform=" translate(-53.245, -64.92999999999999)" d="M 19.05 86.9 L 32.79 86.9 L 43.42 76.27000000000001 L 82.32 76.27000000000001 L 89.52999999999999 83.48 L 98.07999999999998 83.48 C 98.32999999999998 84.3 99.07999999999998 84.89 99.97999999999999 84.89 C 101.08999999999999 84.89 101.99 83.99 101.99 82.89 C 101.99 81.78 101.08999999999999 80.88 99.97999999999999 80.88 C 99.16999999999999 80.88 98.47999999999999 81.36 98.16 82.06 L 90.11 82.06 L 82.9 74.85000000000001 L 44.84 74.85000000000001 L 54.17 65.52000000000001 L 76.95 65.52000000000001 C 77.24000000000001 66.28000000000002 77.96000000000001 66.82000000000001 78.83 66.82000000000001 C 79.92999999999999 66.82000000000001 80.84 65.92 80.84 64.81 C 80.84 63.7 79.93 62.800000000000004 78.83 62.800000000000004 C 77.97 62.800000000000004 77.24 63.34 76.95 64.10000000000001 L 53.6 64.10000000000001 L 42.85 74.84 L 40.480000000000004 74.84 L 35.790000000000006 70.16 L 44.940000000000005 61.01 L 67.4 61.01 L 72.72 55.69 L 92.83 55.69 C 92.99 56.3 93.53999999999999 56.76 94.2 56.76 C 94.98 56.76 95.61 56.12 95.61 55.339999999999996 C 95.61 54.559999999999995 94.98 53.93 94.2 53.93 C 93.54 53.93 92.98 54.38 92.83 54.99 L 72.41 54.99 L 67.11 60.300000000000004 L 45.66 60.300000000000004 L 50.739999999999995 55.230000000000004 L 62.169999999999995 55.230000000000004 C 62.169999999999995 56.010000000000005 62.809999999999995 56.64 63.589999999999996 56.64 C 64.36999999999999 56.64 65.00999999999999 56.01 65.00999999999999 55.230000000000004 C 65.00999999999999 54.45000000000001 64.36999999999999 53.81 63.58999999999999 53.81 C 63.069999999999986 53.81 62.60999999999999 54.1 62.36999999999999 54.52 L 50.42 54.52 L 44.64 60.31 L 37.49 60.31 L 28.150000000000002 50.980000000000004 L 37.400000000000006 50.980000000000004 C 37.56 51.59 38.11000000000001 52.040000000000006 38.77 52.040000000000006 C 39.550000000000004 52.040000000000006 40.17 51.410000000000004 40.17 50.620000000000005 C 40.17 50.36000000000001 40.1 50.120000000000005 39.980000000000004 49.92 L 49.31 40.58 L 62.660000000000004 40.58 C 62.77 41.25 63.36000000000001 41.769999999999996 64.06 41.769999999999996 C 64.84 41.769999999999996 65.48 41.129999999999995 65.48 40.349999999999994 C 65.48 39.57999999999999 64.84 38.94 64.06 38.94 C 63.45 38.94 62.92 39.339999999999996 62.730000000000004 39.879999999999995 L 49.03 39.879999999999995 L 39.480000000000004 49.419999999999995 C 39.27 49.3 39.040000000000006 49.21999999999999 38.78 49.21999999999999 C 38.120000000000005 49.21999999999999 37.57 49.67999999999999 37.410000000000004 50.279999999999994 L 27.450000000000003 50.279999999999994 L 20.42 43.25999999999999 C 20.55 43.04999999999999 20.62 42.79999999999999 20.62 42.53999999999999 C 20.62 41.75999999999999 19.98 41.129999999999995 19.200000000000003 41.129999999999995 C 18.540000000000003 41.129999999999995 17.980000000000004 41.58 17.830000000000002 42.19 L 4.5 42.19 L 4.5 42.9 L 17.82 42.9 C 17.98 43.51 18.53 43.96 19.19 43.96 C 19.450000000000003 43.96 19.700000000000003 43.88 19.91 43.76 L 26.44 50.28 L 4.5 50.28 L 4.5 50.99 L 27.15 50.99 L 37.2 61.02 L 43.93000000000001 61.02 L 35.290000000000006 69.66 L 27.53000000000001 61.91 L 8.92 61.91 L 4.5 66.33 L 4.5 68.33 L 9.5 63.33 L 26.95 63.33 L 34.28 70.67 L 19.46 85.49 L 4.5 85.49 L 4.5 86.89999999999999 L 18.05 86.89999999999999 L 14.74 90.21 L 4.5 90.21 L 4.5 90.91999999999999 L 15.03 90.91999999999999 L 19.05 86.9 z M 34.79 71.17 L 39.879999999999995 76.27 L 41.419999999999995 76.27 L 32.199999999999996 85.49 L 20.47 85.49 L 34.79 71.17 z" stroke-linecap="round" />
</g>
		<g transform="matrix(1 0 0 1 12.584999999999994 -0.7900000000000205)" id="Shape-1"  >
<linearGradient id="SVGID_369678" gradientUnits="userSpaceOnUse" gradientTransform="matrix(1 0 0 1 42.07999999999999 79.57)"  x1="0" y1="0" x2="0" y2="13">
<stop offset="0%" style="stop-color:rgb(250,217,97);stop-opacity: 1"/>
<stop offset="100%" style="stop-color:rgb(247,107,28);stop-opacity: 1"/>
</linearGradient>
<path style="stroke: none; stroke-width: 1; stroke-dasharray: none; stroke-linecap: butt; stroke-dashoffset: 0; stroke-linejoin: miter; stroke-miterlimit: 4; fill: url(#SVGID_369678); fill-rule: nonzero; opacity: 1;"  paint-order="stroke"  transform=" translate(-71.505, -86.25)" d="M 98.15 91.16 L 84.29 91.16 L 73.77 80.64 L 44.87 80.64 C 44.71 80.03 44.16 79.57000000000001 43.5 79.57000000000001 C 42.72 79.57000000000001 42.08 80.21000000000001 42.08 80.99000000000001 C 42.08 81.77000000000001 42.72 82.41000000000001 43.5 82.41000000000001 C 44.16 82.41000000000001 44.71 81.96000000000001 44.87 81.35000000000001 L 73.49 81.35000000000001 L 84 91.87 L 98.15 91.87 C 98.31 92.48 98.85000000000001 92.93 99.51 92.93 C 100.29 92.93 100.93 92.29 100.93 91.51 C 100.93 90.73 100.29 90.10000000000001 99.51 90.10000000000001 C 98.85 90.1 98.3 90.55 98.15 91.16 z" stroke-linecap="round" />
</g>
		<g transform="matrix(1 0 0 1 -40.370000000000005 -10.420000000000009)" id="Shape-1"  >
<linearGradient id="SVGID_369679" gradientUnits="userSpaceOnUse" gradientTransform="matrix(1 0 0 1 17.14 75.2)"  x1="0" y1="0" x2="0" y2="3">
<stop offset="0%" style="stop-color:rgb(250,217,97);stop-opacity: 1"/>
<stop offset="100%" style="stop-color:rgb(247,107,28);stop-opacity: 1"/>
</linearGradient>
<path style="stroke: none; stroke-width: 1; stroke-dasharray: none; stroke-linecap: butt; stroke-dashoffset: 0; stroke-linejoin: miter; stroke-miterlimit: 4; fill: url(#SVGID_369679); fill-rule: nonzero; opacity: 1;"  paint-order="stroke"  transform=" translate(-18.55, -76.62)" d="M 19.96 76.62 C 19.96 75.84 19.34 75.2 18.560000000000002 75.2 C 17.78 75.2 17.14 75.84 17.14 76.62 C 17.14 77.4 17.78 78.04 18.560000000000002 78.04 C 19.34 78.04 19.96 77.4 19.96 76.62 z" stroke-linecap="round" />
</g>
		<g transform="matrix(1 0 0 1 0 26.940000000000012)" id="Shape-1"  >
<linearGradient id="SVGID_369680" gradientUnits="userSpaceOnUse" gradientTransform="matrix(1 0 0 1 4.5 92.82000000000002)"  x1="0" y1="0" x2="0" y2="42">
<stop offset="0%" style="stop-color:rgb(250,217,97);stop-opacity: 1"/>
<stop offset="100%" style="stop-color:rgb(247,107,28);stop-opacity: 1"/>
</linearGradient>
<path style="stroke: none; stroke-width: 1; stroke-dasharray: none; stroke-linecap: butt; stroke-dashoffset: 0; stroke-linejoin: miter; stroke-miterlimit: 4; fill: url(#SVGID_369680); fill-rule: nonzero; opacity: 1;"  paint-order="stroke"  transform=" translate(-58.92, -113.98000000000002)" d="M 111.93 107.7 C 111.61000000000001 107.7 111.31 107.81 111.07000000000001 108 L 105.10000000000001 102.03 L 61.96 102.03 C 61.71 101.61 61.26 101.32000000000001 60.74 101.32000000000001 C 59.980000000000004 101.32000000000001 59.34 101.96000000000001 59.34 102.74000000000001 C 59.34 102.97000000000001 59.400000000000006 103.18 59.5 103.38000000000001 L 53.75 109.13000000000001 L 35.59 109.13000000000001 L 32.050000000000004 105.58000000000001 L 41.74 105.58000000000001 L 52.61 94.71000000000001 L 62.019999999999996 94.71000000000001 C 62.22 95.26 62.739999999999995 95.65 63.36 95.65 C 64.14 95.65 64.76 95.02000000000001 64.76 94.24000000000001 C 64.76 93.46000000000001 64.14 92.82000000000001 63.36000000000001 92.82000000000001 C 62.660000000000004 92.82000000000001 62.080000000000005 93.33000000000001 61.96000000000001 94.01 L 52.32000000000001 94.01 L 41.45000000000001 104.88000000000001 L 31.34 104.88000000000001 L 22.96 96.49000000000001 C 23.080000000000002 96.28000000000002 23.150000000000002 96.05000000000001 23.150000000000002 95.79 C 23.150000000000002 95.01 22.51 94.38000000000001 21.730000000000004 94.38000000000001 C 21.080000000000005 94.38000000000001 20.540000000000003 94.82000000000001 20.380000000000003 95.42000000000002 L 4.5 95.42000000000002 L 4.5 96.13000000000001 L 20.369999999999997 96.13000000000001 C 20.519999999999996 96.75000000000001 21.06 97.21000000000001 21.729999999999997 97.21000000000001 C 21.999999999999996 97.21000000000001 22.249999999999996 97.13000000000001 22.459999999999997 97.00000000000001 L 30.33 104.87000000000002 L 15.14 104.87000000000002 C 15 104.23000000000002 14.43 103.75000000000001 13.77 103.75000000000001 C 12.99 103.75000000000001 12.35 104.39000000000001 12.35 105.17000000000002 C 12.35 105.49000000000001 12.459999999999999 105.78000000000002 12.639999999999999 106.02000000000001 L 4.499999999999998 114.16000000000001 L 4.499999999999998 115.16000000000001 L 13.189999999999998 106.47000000000001 C 13.369999999999997 106.55000000000001 13.559999999999997 106.59000000000002 13.769999999999998 106.59000000000002 C 14.389999999999997 106.59000000000002 14.929999999999998 106.16000000000001 15.099999999999998 105.58000000000001 L 31.04 105.58000000000001 L 35.3 109.84000000000002 L 53.03 109.84000000000002 L 28.450000000000003 134.43 L 4.5 134.43 L 4.5 135.14000000000001 L 28.75 135.14000000000001 L 54.04 109.84000000000002 L 71.25 109.84000000000002 C 71.45 110.39000000000001 71.97 110.78000000000002 72.59 110.78000000000002 C 73.37 110.78000000000002 73.99000000000001 110.15000000000002 73.99000000000001 109.37000000000002 C 73.99000000000001 108.59000000000002 73.37 107.95000000000002 72.59 107.95000000000002 C 71.89 107.95000000000002 71.31 108.47000000000001 71.19 109.14000000000001 L 54.75 109.14000000000001 L 59.96 103.93000000000002 C 60.18 104.08000000000003 60.45 104.17000000000002 60.74 104.17000000000002 C 61.52 104.17000000000002 62.160000000000004 103.54000000000002 62.160000000000004 102.76000000000002 L 104.81 102.76000000000002 L 110.62 108.57000000000002 C 110.54 108.74000000000002 110.5 108.94000000000003 110.5 109.14000000000001 C 110.5 109.92000000000002 111.14 110.55000000000001 111.92 110.55000000000001 C 112.7 110.55000000000001 113.34 109.92000000000002 113.34 109.14000000000001 C 113.34 108.36000000000001 112.71 107.7 111.93 107.7 z" stroke-linecap="round" />
</g>
		<g transform="matrix(1 0 0 1 -35.67 -30.925000000000015)" id="Shape-1"  >
<linearGradient id="SVGID_369681" gradientUnits="userSpaceOnUse" gradientTransform="matrix(1 0 0 1 21.240000000000002 54.11)"  x1="0" y1="0" x2="0" y2="4">
<stop offset="0%" style="stop-color:rgb(250,217,97);stop-opacity: 1"/>
<stop offset="100%" style="stop-color:rgb(247,107,28);stop-opacity: 1"/>
</linearGradient>
<path style="stroke: none; stroke-width: 1; stroke-dasharray: none; stroke-linecap: butt; stroke-dashoffset: 0; stroke-linejoin: miter; stroke-miterlimit: 4; fill: url(#SVGID_369681); fill-rule: nonzero; opacity: 1;"  paint-order="stroke"  transform=" translate(-23.25, -56.114999999999995)" d="M 25.26 56.11 C 25.26 55.01 24.35 54.11 23.240000000000002 54.11 C 22.150000000000002 54.11 21.240000000000002 55.01 21.240000000000002 56.11 C 21.240000000000002 57.22 22.150000000000002 58.12 23.240000000000002 58.12 C 24.35 58.12 25.26 57.22 25.26 56.11 z" stroke-linecap="round" />
</g>
</g>
</g>
<g transform="matrix(0.9647589952099481 0 0 0.9647589952099481 959.886474190208 540.9389341582296)" id="maker-logo"  >
<g style=""  paint-order="stroke"   >
		<g transform="matrix(1 0 0 1 0 0)" id="background-logo"  >
<rect style="stroke: none; stroke-width: 0; stroke-dasharray: none; stroke-linecap: butt; stroke-dashoffset: 0; stroke-linejoin: miter; stroke-miterlimit: 4; fill: rgb(9,9,9); fill-rule: nonzero; opacity: 0; visibility: hidden;"  paint-order="stroke"  x="-325" y="-260" rx="0" ry="0" width="650" height="520" />
</g>
		<g transform="matrix(1 0 0 1 1.1856988304094784 78.34331154920561)" id="text-logo"  >
<g style=""  paint-order="stroke"   >
		<g transform="matrix(1 0 0 1 0 0)" id="text-logo-path-0"  >
<linearGradient id="SVGID_369717" gradientUnits="userSpaceOnUse" gradientTransform="matrix(1 0 0 1 4.090000000000003 -45.61)"  x1="-4.092000000000013" y1="-12.41724" x2="-4.092000000000013" y2="62.58276">
<stop offset="0%" style="stop-color:rgb(250,217,97);stop-opacity: 1"/>
<stop offset="100%" style="stop-color:rgb(247,107,28);stop-opacity: 1"/>
</linearGradient>
<path style="stroke: none; stroke-width: 0; stroke-dasharray: none; stroke-linecap: butt; stroke-dashoffset: 0; stroke-linejoin: miter; stroke-miterlimit: 4; fill: url(#SVGID_369717); fill-rule: nonzero; opacity: 1;"  paint-order="stroke"  transform=" translate(-190.705, 22.345)" d="M 32.41 -34.72 L 32.41 -45.14 L 4.09 -45.14 L 4.09 0 L 15.11 0 L 15.11 -17.09 L 31.75 -17.09 L 31.75 -27.52 L 15.11 -27.52 L 15.11 -34.72 Z M 49.83 -10.36 L 49.83 -45.14 L 38.81 -45.14 L 38.81 0 L 67.32 0 L 67.32 -10.36 Z M 103.29 0 L 115.04 0 L 98.47 -45.14 L 86.72 -45.14 L 70.22 0 L 81.97 0 L 84.88 -7.85 L 100.39 -7.85 Z M 88.64 -18.28 L 92.66 -29.17 L 96.56 -18.28 Z M 152.66 -45.08 L 152.59 -45.14 L 140.78 -25.41 L 128.96 -45.14 L 117.94 -45.14 L 117.94 0 L 128.96 0 L 128.96 -25.01 L 139.46 -7.39 L 142.16 -7.39 L 152.66 -25.01 L 152.66 0 L 163.61 0 L 163.61 -45.14 L 152.66 -45.14 Z M 182.82 -10.36 L 182.82 -17.89 L 198.53 -17.89 L 198.53 -28.25 L 182.82 -28.25 L 182.82 -34.72 L 200.11 -34.72 L 200.11 -45.14 L 171.8 -45.14 L 171.8 0 L 200.44 0 L 200.44 -10.36 Z M 255.55 -45.14 L 248.56 -17.89 L 240.77 -45.14 L 229.42 -45.14 L 221.63 -17.89 L 214.7 -45.14 L 203.35 -45.14 L 215.56 0 L 227.24 0 L 235.09 -26.27 L 242.95 0 L 254.63 0 L 266.84 -45.14 Z M 270.4 -45.14 L 270.4 0 L 281.42 0 L 281.42 -45.14 Z M 315.28 -45.14 L 315.28 -22.18 L 300.63 -45.14 L 289.61 -45.14 L 289.61 0 L 300.63 0 L 300.63 -25.81 L 317.13 0 L 326.3 0 L 326.3 -45.14 Z M 377.32 -20.72 L 377.32 -25.21 L 352.37 -25.21 L 352.37 -14.78 L 363.99 -14.78 C 361.68 -11.81 358.18 -10.1 354.42 -10.1 C 347.69 -10.1 342.08 -15.71 342.08 -22.37 C 342.08 -29.11 347.75 -34.65 354.42 -34.65 C 358.51 -34.65 361.75 -32.87 364.25 -29.63 L 372.83 -36.43 C 368.35 -42.24 361.81 -45.61 354.42 -45.61 C 341.48 -45.61 331.12 -35.18 331.12 -22.37 C 331.12 -9.5 341.68 0.92 354.42 0.92 C 366.43 0.92 377.32 -8.45 377.32 -20.72 Z" stroke-linecap="round" />
</g>
</g>
</g>
		<g transform="matrix(1 0 0 1 1.7061988304093774 141.6797915492056)" id="tagline-067d9d5c-40fc-4e5e-9cb0-984cbb6e144c-logo"  >
<g style=""  paint-order="stroke"   >
		<g transform="matrix(1 0 0 1 0 0)" id="tagline-067d9d5c-40fc-4e5e-9cb0-984cbb6e144c-logo-path-0"  >
<linearGradient id="SVGID_369718" gradientUnits="userSpaceOnUse" gradientTransform="matrix(1 0 0 1 3.6500000000000057 -35.52)"  x1="-3.647999999999996" y1="-6.678719999999998" x2="-3.647999999999996" y2="47.32128">
<stop offset="0%" style="stop-color:rgb(250,217,97);stop-opacity: 1"/>
<stop offset="100%" style="stop-color:rgb(247,107,28);stop-opacity: 1"/>
</linearGradient>
<path style="stroke: none; stroke-width: 0; stroke-dasharray: none; stroke-linecap: butt; stroke-dashoffset: 0; stroke-linejoin: miter; stroke-miterlimit: 4; fill: url(#SVGID_369718); fill-rule: nonzero; opacity: 1;"  paint-order="stroke"  transform=" translate(-78.24000000000001, 17.76)" d="M 40.51 0 L 40.51 -35.52 L 35.04 -35.52 L 22.08 -5.28 L 9.12 -35.52 L 3.65 -35.52 L 3.65 0 L 7.2 0 L 7.2 -31.49 L 20.54 0 L 23.62 0 L 36.96 -31.58 L 36.96 0 Z M 67.49 0 L 67.49 -3.26 L 51.65 -3.26 L 51.65 -16.32 L 67.01 -16.32 L 67.01 -19.49 L 51.65 -19.49 L 51.65 -32.26 L 67.49 -32.26 L 67.49 -35.52 L 48.1 -35.52 L 48.1 0 Z M 104.16 -17.86 C 104.16 -23.04 101.86 -27.17 98.98 -30.14 C 95.52 -33.79 89.95 -35.52 84.38 -35.52 L 74.21 -35.52 L 74.21 0 L 85.15 0 C 91.1 0 96 -2.02 98.88 -5.09 C 102.62 -9.02 104.16 -13.15 104.16 -17.86 Z M 100.61 -17.86 C 100.61 -12.96 98.59 -9.41 95.14 -6.53 C 91.97 -3.84 87.55 -3.26 83.52 -3.26 L 77.76 -3.26 L 77.76 -32.26 L 84.48 -32.26 C 89.57 -32.26 93.98 -30.72 97.06 -27.26 C 99.26 -24.86 100.61 -21.7 100.61 -17.86 Z M 113.86 0 L 113.86 -35.52 L 110.3 -35.52 L 110.3 0 Z M 152.83 0 L 137.57 -35.52 L 133.63 -35.52 L 118.37 0 L 122.21 0 L 127.3 -11.9 L 143.81 -11.9 L 148.99 0 Z M 142.46 -15.17 L 128.74 -15.17 L 135.65 -31.39 Z" stroke-linecap="round" />
</g>
</g>
</g>
		<g transform="matrix(1.1277969010046367 0 0 1.1277969010046367 0.1461988304093893 -64.17608187134496)" id="shape-4b17c70d-43ce-4f62-aa49-ac9a192a1df5"  >
<g style=""  paint-order="stroke"   >
		<g transform="matrix(1 0 0 1 0 0)" id="path-01_00000097483187905052878960000005548186538314872210_"  >
<linearGradient id="SVGID_369716" gradientUnits="userSpaceOnUse" gradientTransform="matrix(1 0 0 1 67.23094757279767 302.27131999999995)"  x1="0" y1="0" x2="0" y2="189">
<stop offset="0%" style="stop-color:rgb(250,217,97);stop-opacity: 1"/>
<stop offset="100%" style="stop-color:rgb(247,107,28);stop-opacity: 1"/>
</linearGradient>
<path style="stroke: none; stroke-width: 1; stroke-dasharray: none; stroke-linecap: butt; stroke-dashoffset: 0; stroke-linejoin: miter; stroke-miterlimit: 4; fill: url(#SVGID_369716); fill-rule: nonzero; opacity: 1;"  paint-order="stroke"  transform=" translate(-192.23094066692266, -397.00216499999993)" d="M 305.35995 338.88928 C 302.52594000000005 341.11572 299.33401000000003 342.73355 296.54199000000006 345.02588 C 293.7500600000001 347.31820999999997 291.29077000000007 350.50806 290.80740000000003 354.43429999999995 C 290.70709000000005 355.24917999999997 290.73056 356.19085999999993 291.25702 356.78518999999994 C 292.01910000000004 357.6455399999999 293.27631 357.23898999999994 294.18912 356.67977999999994 C 297.13166 354.87719999999996 299.55313 352.0426999999999 301.05338 348.6447799999999 C 302.16642 351.98403999999994 301.07731 355.7565699999999 299.13941 358.4262099999999 C 295.5283 363.4006999999999 289.4538 365.2205799999999 283.6782 365.3140899999999 C 277.90253 365.4075299999999 272.12922000000003 364.0530399999999 266.34626000000003 363.8957599999999 C 260.56327000000005 363.7384699999999 253.67400000000004 364.9166299999999 249.57063000000002 369.3678099999999 C 251.66527000000002 363.6064599999999 256.28984 359.5595499999999 261.24574 356.9070299999999 C 266.20161 354.25452999999993 271.5991 352.7594499999999 276.72923000000003 350.5416399999999 C 295.45283 342.4473699999999 310.26408000000004 324.18515999999994 315.87806 302.27131999999995 C 319.68527 315.62598 315.23053 331.13486 305.35995 338.88928 z M 248.99419 397.19632 C 235.24268 399.05212 220.25782 404.58914000000004 215.09566 419.45139 C 227.82613 407.72782 244.37303 408.84839 260.32175 407.58127 C 270.42151 406.77884 280.68836 404.40604 288.83182 398.22904 C 296.97537 392.05204 302.59711 381.45261 301.04064999999997 370.82511 C 291.99411 392.56638 268.63528 394.54572 248.99419 397.19632 z M 293.38614 369.3678 C 284.94846 374.53183 273.60529 373.19815 265.43842 378.78067 C 261.96625 381.15416999999997 259.36258 384.61066 257.29844 388.27515 C 263.82447 382.95874 276.34443000000005 385.99152 283.5763 381.68408999999997 C 288.14468 378.9631 290.8707 374.05252 293.38614 369.3678 z M 210.47734 421.86841 C 208.81653 415.70696999999996 212.72711 409.43237 217.20517999999998 404.88613999999995 C 222.37323999999998 399.63940999999994 228.56544 395.40530999999993 235.32966 392.49288999999993 C 241.01853 390.0434899999999 247.16934999999998 388.4844099999999 252.27928 384.98412999999994 C 257.38916 381.48385999999994 261.34735 375.23214999999993 259.74444 369.24938999999995 C 256.70971 373.95983999999993 251.56593 377.49932999999993 246.08735 378.67876999999993 C 241.04473 379.76436999999993 234.93925 378.40343999999993 234.57460999999998 372.23891999999995 C 234.23431999999997 366.48668999999995 238.91714 361.52068999999995 243.08135 358.1729399999999 C 247.39616999999998 354.7041299999999 252.43606999999997 352.2350399999999 257.5602 350.2073299999999 C 267.59151 346.2377299999999 278.81224000000003 343.7086399999999 287.15752000000003 336.4887299999999 C 295.16088 329.5646299999999 299.38430000000005 319.1521499999999 301.30004 308.7441899999999 C 296.40172 317.81333999999987 288.83657000000005 325.4211599999999 279.79513000000003 330.3703799999999 C 270.80920000000003 335.2892299999999 260.64257000000003 337.5351399999999 250.61830000000003 339.6460099999999 C 240.59404000000004 341.7569099999999 230.41444000000004 343.83835999999985 221.28154000000004 348.4785899999999 C 212.14862000000002 353.1187899999999 204.02681000000004 360.7351199999999 201.17282000000003 370.5736199999999 C 201.17282000000003 370.5736199999999 194.80070000000003 332.2227599999999 219.91746000000003 343.9950399999999 C 219.91746000000003 343.9950399999999 217.92132000000004 329.4498099999999 193.26098000000005 329.3838599999999 C 175.26542000000003 329.33575999999994 167.27812000000006 327.0742899999999 164.53549000000004 319.1350799999999 C 164.53549000000004 319.1350799999999 161.60040000000004 332.9926199999999 181.61680000000004 338.2854099999999 C 181.61680000000004 338.2854099999999 177.95995000000005 343.1932799999999 181.32812000000004 353.3939599999999 C 184.69624000000005 363.5946099999999 183.28906000000003 370.5736199999999 183.28906000000003 370.5736199999999 C 180.43507000000002 360.7351199999999 172.31326000000004 353.1187899999999 163.18034000000003 348.4785899999999 C 154.04744000000002 343.8383599999999 143.86786000000004 341.7569099999999 133.84358000000003 339.6460099999999 C 123.81932000000003 337.5351399999999 113.65268000000003 335.28922999999986 104.66677000000003 330.3703799999999 C 95.62530000000002 325.4211599999999 88.06016000000002 317.8133399999999 83.16185000000003 308.7441899999999 C 85.07759000000003 319.1521499999999 89.30101000000003 329.5646199999999 97.30436000000003 336.4887299999999 C 105.64964000000003 343.70863999999995 116.87038000000004 346.2377199999999 126.90169000000003 350.2073299999999 C 132.02582000000004 352.2350399999999 137.06571000000002 354.7041299999999 141.38054000000002 358.1729399999999 C 145.54474000000002 361.52068999999995 150.22756000000004 366.48668999999995 149.88727000000003 372.23891999999995 C 149.52265000000003 378.40343999999993 143.41716000000002 379.76436999999993 138.37454000000002 378.67876999999993 C 132.89595000000003 377.49932999999993 127.75219000000003 373.95983999999993 124.71744000000002 369.24938999999995 C 123.11453000000003 375.23214999999993 127.07273000000002 381.48385999999994 132.18261 384.98412999999994 C 137.29252000000002 388.48439999999994 143.44334 390.04348999999996 149.13221000000001 392.49288999999993 C 155.89643 395.40529999999995 162.08863000000002 399.6393999999999 167.25669000000002 404.88613999999995 C 171.73478000000003 409.43236999999993 175.64535 415.70696999999996 173.98455 421.8684099999999 C 172.68003000000002 426.70800999999994 168.32293 430.01971999999995 165.65414 434.26244999999994 C 162.00506000000001 440.06353999999993 161.76478 447.8467099999999 165.04908 453.86181999999997 C 167.42123 439.26273 180.33813 438.37699 179.96372 445.66464999999994 C 179.80407 448.77270999999996 177.78476 451.8828199999999 176.3781 454.56454999999994 C 175.38155999999998 456.46444999999994 174.39202999999998 458.19827999999995 174.15475999999998 460.36907999999994 C 173.66485999999998 464.85116999999997 175.41873999999999 470.5333299999999 177.90663999999998 473.8843099999999 C 177.39337999999998 471.5209699999999 177.36057 469.0079999999999 178.15865 466.72500999999994 C 178.85666 464.72833999999995 180.34664999999998 462.75051999999994 182.27503 461.78982999999994 C 183.75109999999998 461.05447999999996 185.18357999999998 461.3325499999999 185.72455 462.95724999999993 C 186.17684 464.3157099999999 185.99689999999998 465.97399999999993 185.88365 467.37799999999993 C 185.17238999999998 476.19656999999995 186.66794 484.58041999999995 192.23092 491.7330099999999 C 197.79391 484.58041999999995 199.28945 476.1965699999999 198.57819 467.37799999999993 C 198.46494 465.9740099999999 198.28502 464.3157099999999 198.73731 462.95724999999993 C 199.27828 461.33255999999994 200.71074000000002 461.05447999999996 202.18683000000001 461.78982999999994 C 204.11519 462.75051999999994 205.60518000000002 464.72833999999995 206.30319000000003 466.72500999999994 C 207.10129000000003 469.0079999999999 207.06846000000002 471.5209699999999 206.55520000000004 473.8843099999999 C 209.04310000000004 470.5333299999999 210.79698000000005 464.8511699999999 210.30708000000004 460.36907999999994 C 210.06981000000005 458.1982699999999 209.08027000000004 456.46444999999994 208.08374000000003 454.56454999999994 C 206.67708000000005 451.8828199999999 204.65779000000003 448.77270999999996 204.49812000000003 445.66464999999994 C 204.12372000000002 438.3769899999999 217.04063000000002 439.2627299999999 219.41276000000002 453.86181999999997 C 222.69706000000002 447.84671 222.45678 440.06354 218.8077 434.26244999999994 C 216.13895 430.01971 211.78185 426.70801 210.47734 421.86841 z M 135.46771 397.19632 C 115.82657 394.54572 92.46774000000002 392.56638000000004 83.42124000000001 370.8251 C 81.86475000000002 381.4526 87.48651000000001 392.05203 95.63003 398.22903 C 103.77355 404.40603000000004 114.04037000000001 406.77883 124.1401 407.58126000000004 C 140.08885 408.84838 156.63576 407.72781000000003 169.36623 419.45138000000003 C 164.20409 404.58914 149.21918 399.05212 135.46771 397.19632 z M 91.07575 369.3678 C 93.5912 374.05252 96.31721 378.96311 100.88559 381.68408 C 108.11744999999999 385.99151 120.63743 382.95874 127.16345 388.27514 C 125.09929 384.61065 122.49564 381.15417 119.02345 378.78066 C 110.85662 373.19815 99.51344 374.53183 91.07575 369.3678 z M 90.27277 356.67978 C 87.33023 354.8772 84.90871 352.04269999999997 83.40849999999999 348.64477999999997 C 82.29547 351.98404 83.38454999999999 355.75656999999995 85.32248999999999 358.42620999999997 C 88.93356999999999 363.4007 95.00809999999998 365.22058 100.78368999999999 365.31408999999996 C 106.55931999999999 365.40752999999995 112.33263 364.05303999999995 118.11560999999999 363.89575999999994 C 123.89858999999998 363.7384799999999 130.78786 364.91662999999994 134.89127 369.36780999999996 C 132.79659999999998 363.60645999999997 128.17204999999998 359.55954999999994 123.21616999999999 356.90702999999996 C 118.26026999999999 354.25453 112.86277999999999 352.75944999999996 107.73263999999999 350.54164 C 89.00907999999998 342.44737 74.19779 324.18516 68.58382999999999 302.27131999999995 C 64.77660999999999 315.6259999999999 69.23132999999999 331.13487999999995 79.10189999999999 338.88929999999993 C 81.93594999999999 341.11573999999996 85.12784999999998 342.73356999999993 87.91985999999999 345.0258999999999 C 90.71184999999998 347.3182299999999 93.17110999999998 350.50807999999995 93.65445999999999 354.4343199999999 C 93.75476999999998 355.2491999999999 93.73133999999999 356.1908799999999 93.20486999999999 356.7852099999999 C 92.44279 357.64554 91.18559 357.23898 90.27277 356.67978 z" stroke-linecap="round" />
</g>
</g>
</g>
</g>
</g>
</svg>