<?xml version="1.0" encoding="UTF-8" standalone="no" ?>
<!DOCTYPE svg PUBLIC "-//W3C//DTD SVG 1.1//EN" "http://www.w3.org/Graphics/SVG/1.1/DTD/svg11.dtd">
<svg xmlns="http://www.w3.org/2000/svg" xmlns:xlink="http://www.w3.org/1999/xlink" version="1.1" width="1280" height="1024" viewBox="0 0 1280 1024" xml:space="preserve">
<desc>Created with Fabric.js 5.3.0</desc>
<defs>
</defs>
<g transform="matrix(1 0 0 1 640 512)" id="background-logo"  >
<rect style="stroke: none; stroke-width: 0; stroke-dasharray: none; stroke-linecap: butt; stroke-dashoffset: 0; stroke-linejoin: miter; stroke-miterlimit: 4; fill: rgb(25,44,59); fill-opacity: 0; fill-rule: nonzero; opacity: 1;"  paint-order="stroke"  x="-640" y="-512" rx="0" ry="0" width="1280" height="1024" />
</g>
<g transform="matrix(3.7173361233680575 0 0 3.7173361233680575 640.2808704453442 555.6466507144032)" id="shape-68b36b6c-1e18-456a-9d3f-8de91959ed0f"  >
<g style=""  paint-order="stroke"   >
		<g transform="matrix(1 0 0 1 0 0)" id="Layer_1"  >
<linearGradient id="SVGID_2_2_78079" gradientUnits="userSpaceOnUse" gradientTransform="matrix(1 0 0 1 0 0)"  x1="0" y1="0" x2="0" y2="200">
<stop offset="0%" style="stop-color:rgb(250,217,97);stop-opacity: 1"/>
<stop offset="100%" style="stop-color:rgb(247,107,28);stop-opacity: 1"/>
</linearGradient>
<path style="stroke: none; stroke-width: 1; stroke-dasharray: none; stroke-linecap: butt; stroke-dashoffset: 0; stroke-linejoin: miter; stroke-miterlimit: 4; fill: url(#SVGID_2_2_78079); fill-rule: nonzero; opacity: 1;"  paint-order="stroke"  transform=" translate(-100, -100)" d="M 200 100 C 200 155.22847498307934 155.22847498307934 200 100 200 C 44.771525016920656 200 0 155.22847498307934 0 100 C 0 44.771525016920656 44.771525016920656 0 100 0 C 155.22847498307934 0 200 44.77152501692063 200 99.99999999999997 Z" stroke-linecap="round" />
</g>
</g>
</g>
<g transform="matrix(2.2278154872651292 0 0 2.2278154872651292 640.2808704453442 571.3636138222593)" id="shape-f6fd2b37-2bf6-462f-aee4-f00f79d7479d"  >
<g style=""  paint-order="stroke"   >
		<g transform="matrix(1 0 0 1 0.018914671611526046 128.05)" id="path-08"  >
<path style="stroke: none; stroke-width: 1; stroke-dasharray: none; stroke-linecap: butt; stroke-dashoffset: 0; stroke-linejoin: miter; stroke-miterlimit: 4; fill: rgb(88,89,91); fill-rule: nonzero; opacity: 1;"  paint-order="stroke"  transform=" translate(-150.00000000000003, -272.1)" d="M 299.9 256.2 C 299 262.3 293.7 267.4 286.9 267.4 L 13.1 267.4 C 6.3 267.4 1.0999999999999996 262.4 0.09999999999999964 256.2 L 0 256.2 L 0 275 C 0 282.2 5.9 288.1 13.1 288.1 L 286.90000000000003 288.1 C 294.1 288.1 300.00000000000006 282.20000000000005 300.00000000000006 275 L 300.00000000000006 256.1 L 299.90000000000003 256.1 L 299.90000000000003 256.2 z" stroke-linecap="round" />
</g>
		<g transform="matrix(1 0 0 1 -0.00319583547423008 73.14999999999998)" id="path-07"  >
<path style="stroke: none; stroke-width: 1; stroke-dasharray: none; stroke-linecap: butt; stroke-dashoffset: 0; stroke-linejoin: miter; stroke-miterlimit: 4; fill: rgb(147,149,152); fill-rule: nonzero; opacity: 1;"  paint-order="stroke"  transform=" translate(-149.97788949291427, -217.2)" d="M 299.9 256.2 C 299 262.3 293.7 267.4 286.9 267.4 L 13.1 267.4 C 6.3 267.4 1.0999999999999996 262.4 0.09999999999999964 256.2 C -0.20000000000000034 254.29999999999998 -3.608224830031759e-16 252.2 0.5999999999999996 250.2 L 27.8 167 L 272.3 167 L 299.40000000000003 250.2 C 300 252.2 300.1 254.2 299.9 256.2 z" stroke-linecap="round" />
</g>
		<g transform="matrix(1 0 0 1 0.06891467161150899 -60.55000000000001)" id="path-06"  >
<path style="stroke: none; stroke-width: 1; stroke-dasharray: none; stroke-linecap: butt; stroke-dashoffset: 0; stroke-linejoin: miter; stroke-miterlimit: 4; fill: rgb(0,0,0); fill-rule: nonzero; opacity: 1;"  paint-order="stroke"  transform=" translate(-150.05, -83.5)" d="M 256.6 0 L 43.4 0 C 34.8 0 27.799999999999997 7 27.799999999999997 15.6 L 27.799999999999997 167 L 272.3 167 L 272.3 15.6 C 272.2 7 265.2 0 256.6 0 z M 259.1 153.9 L 40.9 153.9 L 40.9 13.1 L 259.2 13.1 L 259.2 153.9 L 259.1 153.9 z" stroke-linecap="round" />
</g>
		<g transform="matrix(1 0 0 1 -21.931085328388484 100.1)" id="path-05"  >
<polygon style="stroke: none; stroke-width: 1; stroke-dasharray: none; stroke-linecap: butt; stroke-dashoffset: 0; stroke-linejoin: miter; stroke-miterlimit: 4; fill: rgb(209,211,212); fill-rule: nonzero; opacity: 1;"  paint-order="stroke"  points="31.349999999999994,-10.150000000000006 19.75,10.150000000000006 -31.35000000000001,10.150000000000006 -28.85000000000001,-10.150000000000006 " />
</g>
		<g transform="matrix(1 0 0 1 0.06891467161150899 -60.55000000000001)" id="path-04"  >
<linearGradient id="SVGID_78081" gradientUnits="userSpaceOnUse" gradientTransform="matrix(1 0 0 1 -109.15 -70.4)"  x1="0" y1="0" x2="0" y2="141">
<stop offset="0%" style="stop-color:rgb(91,36,122);stop-opacity: 1"/>
<stop offset="100%" style="stop-color:rgb(27,206,223);stop-opacity: 1"/>
</linearGradient>
<rect style="stroke: none; stroke-width: 0; stroke-dasharray: none; stroke-linecap: butt; stroke-dashoffset: 0; stroke-linejoin: miter; stroke-miterlimit: 4; fill: url(#SVGID_78081); fill-rule: nonzero; opacity: 1;"  paint-order="stroke"  x="-109.15" y="-70.4" rx="0" ry="0" width="218.3" height="140.8" />
</g>
		<g transform="matrix(1 0 0 1 70.1657188361373 73.19999999999996)" id="path-03"  >
<path style="stroke: none; stroke-width: 1; stroke-dasharray: none; stroke-linecap: butt; stroke-dashoffset: 0; stroke-linejoin: miter; stroke-miterlimit: 4; fill: rgb(109,110,113); fill-rule: nonzero; opacity: 1;"  paint-order="stroke"  transform=" translate(-220.1468041645258, -217.24999999999997)" d="M 299.9 256.2 C 299 262.3 293.7 267.4 286.9 267.4 L 140.3 267.4 L 147.8 254.29999999999998 L 203.4 254.29999999999998 L 200.8 233.99999999999997 L 159.4 233.99999999999997 L 197.60000000000002 167.09999999999997 L 272.3 167.09999999999997 L 299.40000000000003 250.29999999999995 C 300 252.2 300.1 254.2 299.9 256.2 z" stroke-linecap="round" />
</g>
		<g transform="matrix(1 0 0 1 0.018914671611497624 57.349999999999994)" id="path-02"  >
<path style="stroke: none; stroke-width: 1; stroke-dasharray: none; stroke-linecap: butt; stroke-dashoffset: 0; stroke-linejoin: miter; stroke-miterlimit: 4; fill: rgb(65,64,66); fill-rule: nonzero; opacity: 1;"  paint-order="stroke"  transform=" translate(-150, -201.4)" d="M 270.7 210.3 L 247.1 210.3 L 247.9 213.4 L 249.8 221 L 274.2 221 L 270.7 210.3 z M 230.5 201.4 L 231.8 206.8 L 269.6 206.8 L 266.1 196.10000000000002 L 229.10000000000002 196.10000000000002 L 230.5 201.4 z M 242.6 192.6 L 265 192.6 L 261.5 181.79999999999998 L 239.9 181.79999999999998 L 241.3 187.2 L 242.6 192.6 z M 219.8 210.3 L 221.8 221 L 246.20000000000002 221 L 243.50000000000003 210.3 L 219.8 210.3 z M 216.6 192.6 L 239.1 192.6 L 237.7 187.2 L 236.29999999999998 181.79999999999998 L 214.7 181.79999999999998 L 215.7 187.2 L 216.6 192.6 z M 202.9 196.1 L 203.8 201.4 L 204.8 206.8 L 228.3 206.8 L 226.9 201.4 L 225.6 196.1 L 202.9 196.1 z M 192.5 210.3 L 192.8 213.20000000000002 L 193.70000000000002 221.00000000000003 L 218.3 221.00000000000003 L 216.3 210.30000000000004 L 192.5 210.30000000000004 z M 190.7 192.6 L 213.1 192.6 L 212.2 187.2 L 211.2 181.79999999999998 L 189.5 181.79999999999998 L 190.1 187.2 L 190.7 192.6 z M 176.7 196.1 L 177.7 206.79999999999998 L 201.29999999999998 206.79999999999998 L 200.29999999999998 201.39999999999998 L 199.39999999999998 196.09999999999997 L 176.7 196.09999999999997 z M 110.8 210.3 L 109.7 221 L 190.3 221 L 189 210.3 L 110.8 210.3 z M 164.7 192.6 L 187.2 192.6 L 186.6 187.2 L 186 181.79999999999998 L 164.3 181.79999999999998 L 164.5 187.2 L 164.7 192.6 z M 150.6 201.4 L 150.7 206.8 L 174.29999999999998 206.8 L 173.2 196.10000000000002 L 150.39999999999998 196.10000000000002 L 150.6 201.4 z M 161.1 187.2 L 160.9 181.79999999999998 L 139.1 181.79999999999998 L 138.9 187.2 L 138.8 192.6 L 161.20000000000002 192.6 L 161.1 187.2 z M 124.2 196.1 L 123.8 206.79999999999998 L 147.3 206.79999999999998 L 147.10000000000002 201.39999999999998 L 147.00000000000003 196.09999999999997 L 124.2 196.09999999999997 z M 135.5 187.2 L 135.7 181.79999999999998 L 114 181.79999999999998 L 113.4 187.2 L 112.80000000000001 192.6 L 135.3 192.6 L 135.5 187.2 z M 97.4 201.4 L 96.80000000000001 206.8 L 120.30000000000001 206.8 L 120.80000000000001 196.10000000000002 L 98 196.10000000000002 L 97.4 201.4 z M 109.9 187.2 L 110.5 181.79999999999998 L 88.8 181.79999999999998 L 87.8 187.2 L 86.89999999999999 192.6 L 109.29999999999998 192.6 L 109.9 187.2 z M 81.7 221 L 106.2 221 L 107.3 210.3 L 83.6 210.3 L 81.7 221 z M 70.8 201.4 L 69.8 206.8 L 93.3 206.8 L 93.89999999999999 201.4 L 94.6 196.1 L 71.8 196.1 L 70.8 201.4 z M 84.3 187.2 L 85.3 181.79999999999998 L 63.7 181.79999999999998 L 62.300000000000004 187.2 L 60.900000000000006 192.6 L 83.30000000000001 192.6 L 84.3 187.2 z M 54.9 216.4 L 53.699999999999996 221 L 78.19999999999999 221 L 79.99999999999999 210.3 L 56.4 210.3 L 54.9 216.4 z M 67.3 201.4 L 68.39999999999999 196.1 L 33.9 196.1 L 30.4 206.79999999999998 L 66.3 206.79999999999998 L 67.3 201.4 z M 58.7 187.2 L 60.1 181.79999999999998 L 38.5 181.79999999999998 L 35 192.6 L 57.4 192.6 L 58.7 187.2 z M 25.8 221 L 50.2 221 L 52.900000000000006 210.3 L 29.3 210.3 L 25.8 221 z" stroke-linecap="round" />
</g>
		<g transform="matrix(1 0 0 1 0.7189146716114863 -60.55000000000001)" id="path-01"  >
<linearGradient id="SVGID_78082" gradientUnits="userSpaceOnUse" gradientTransform="matrix(1 0 0 1 64.69999999999999 13.099999999999994)"  x1="0" y1="0" x2="0" y2="141">
<stop offset="0%" style="stop-color:rgb(91,36,122);stop-opacity: 1"/>
<stop offset="100%" style="stop-color:rgb(27,206,223);stop-opacity: 1"/>
</linearGradient>
<path style="stroke: none; stroke-width: 1; stroke-dasharray: none; stroke-linecap: butt; stroke-dashoffset: 0; stroke-linejoin: miter; stroke-miterlimit: 4; fill: url(#SVGID_78082); fill-rule: nonzero; opacity: 1;"  paint-order="stroke"  transform=" translate(-150.7, -83.5)" d="M 186.7 13.1 L 106.39999999999999 153.9 L 64.7 153.9 L 145.10000000000002 13.099999999999994 L 186.7 13.099999999999994 z M 214.4 13.1 L 134 153.9 L 156.3 153.9 L 236.70000000000002 13.099999999999994 L 214.4 13.099999999999994 z" stroke-linecap="round" />
</g>
</g>
</g>
<g transform="matrix(1.83295366169282 0 0 1.83295366169282 640.2808704453442 437.7278836868379)" id="shape-884f2859-5c73-4194-842f-770fa43a2dc9"  >
<g style=""  paint-order="stroke"   >
		<g transform="matrix(1 0 0 1 -0.00000500000001579792 -7.10543e-15)" id="path-02"  >
<linearGradient id="SVGID_78076" gradientUnits="userSpaceOnUse" gradientTransform="matrix(1 0 0 1 -52.21002 -58.024995)"  x1="0" y1="0" x2="0" y2="116">
<stop offset="0%" style="stop-color:rgb(250,217,97);stop-opacity: 1"/>
<stop offset="100%" style="stop-color:rgb(247,107,28);stop-opacity: 1"/>
</linearGradient>
<polygon style="stroke: none; stroke-width: 0; stroke-dasharray: none; stroke-linecap: butt; stroke-dashoffset: 0; stroke-linejoin: miter; stroke-miterlimit: 4; fill: url(#SVGID_78076); fill-rule: nonzero; opacity: 1;"  paint-order="stroke"  points="52.210020000000014,-58.024995 38.0899,-36.514984999999996 -23.970029999999994,58.024995 -52.21001999999999,58.024995 -38.10003999999999,36.535005000000005 23.980040000000017,-58.014984999999996 52.210020000000014,-58.024995 " />
</g>
		<g transform="matrix(1 0 0 1 0 0)" id="path-01"  >
<linearGradient id="SVGID_78077" gradientUnits="userSpaceOnUse" gradientTransform="matrix(1 0 0 1 0 0)"  x1="0" y1="0" x2="0" y2="116">
<stop offset="0%" style="stop-color:rgb(250,217,97);stop-opacity: 1"/>
<stop offset="100%" style="stop-color:rgb(247,107,28);stop-opacity: 1"/>
</linearGradient>
<path style="stroke: none; stroke-width: 0; stroke-dasharray: none; stroke-linecap: butt; stroke-dashoffset: 0; stroke-linejoin: miter; stroke-miterlimit: 4; fill: url(#SVGID_78077); fill-rule: nonzero; opacity: 1;"  paint-order="stroke"  transform=" translate(-100.307995, -58.024995000000004)" d="M 28.22998 58.03998 L 52.19995 94.56 L 38.089960000000005 116.04999000000001 L 14.119870000000006 79.53998000000001 L 0 58.03998 L 14.11987 36.53003 L 38.08997 0.02002 L 66.31995 0.01001 L 28.22998 58.03998 Z M 186.506 36.52002 L 162.52602 0 L 148.40589999999997 21.51001 L 172.38588 58.030030000000004 L 134.28602999999998 116.04999000000001 L 162.52602 116.04999000000001 L 186.506 79.53003000000001 L 200.61599 58.03003000000001 L 186.506 36.52002000000001 Z" stroke-linecap="round" />
</g>
</g>
</g>
</svg>