<?xml version="1.0" encoding="UTF-8" standalone="no" ?>
<!DOCTYPE svg PUBLIC "-//W3C//DTD SVG 1.1//EN" "http://www.w3.org/Graphics/SVG/1.1/DTD/svg11.dtd">
<svg xmlns="http://www.w3.org/2000/svg" xmlns:xlink="http://www.w3.org/1999/xlink" version="1.1" width="1920" height="1080" viewBox="0 0 1920 1080" xml:space="preserve">
<desc>Created with Fabric.js 5.3.0</desc>
<defs>
</defs>
<g transform="matrix(2.8247448057948934 0 0 2.8247448057948934 960.4324181773278 539.5265617553322)" id="background-14396dae-b82c-488d-b13f-c7ba1ed5d0b8"  >
<rect style="stroke: none; stroke-width: 0; stroke-dasharray: none; stroke-linecap: butt; stroke-dashoffset: 0; stroke-linejoin: miter; stroke-miterlimit: 4; fill: rgb(9,9,9); fill-opacity: 0; fill-rule: nonzero; opacity: 1;"  paint-order="stroke"  x="-340" y="-191.25" rx="0" ry="0" width="680" height="382.5" />
</g>
<g transform="matrix(-6.1267711403500655 0 0 6.1267711403500655 1550.0500125041885 444.85378620718734)" id="shape-fa42c309-98aa-401a-b7d0-454f7c2929eb"  >
<g style="opacity: 0.31;"  paint-order="stroke"   >
		<g transform="matrix(1 0 0 1 -6.490000000000009 -25.31499999999999)" id="Shape-2"  >
<linearGradient id="SVGID_13_37_39_487171" gradientUnits="userSpaceOnUse" gradientTransform="matrix(1 0 0 1 4.5 32.83999999999999)"  x1="0" y1="0" x2="0" y2="60">
<stop offset="0%" style="stop-color:rgb(250,217,97);stop-opacity: 1"/>
<stop offset="100%" style="stop-color:rgb(247,107,28);stop-opacity: 1"/>
</linearGradient>
<path style="stroke: none; stroke-width: 1; stroke-dasharray: none; stroke-linecap: butt; stroke-dashoffset: 0; stroke-linejoin: miter; stroke-miterlimit: 4; fill: url(#SVGID_13_37_39_487171); fill-rule: nonzero; opacity: 0.28;"  paint-order="stroke"  transform=" translate(-59.035, -62.62)" d="M 18.55 87.81 L 34.3 87.81 L 46.48 75.63 L 91.03 75.63 L 99.28 83.88 L 109.08 83.88 C 109.37 84.82 110.23 85.5 111.27 85.5 C 112.55 85.5 113.57 84.48 113.57 83.21 C 113.57 81.92999999999999 112.55 80.91 111.27 80.91 C 110.33999999999999 80.91 109.55 81.46 109.17999999999999 82.25 L 99.96 82.25 L 91.68 74 L 48.1 74 L 58.79 63.31 L 84.88 63.31 C 85.21 64.18 86.03 64.81 87.02 64.81 C 88.3 64.81 89.33 63.78 89.33 62.5 C 89.33 61.23 88.3 60.2 87.02 60.2 C 86.03999999999999 60.2 85.21 60.82 84.89 61.690000000000005 L 58.12 61.690000000000005 L 45.8 74 L 43.08 74 L 37.72 68.63 L 48.2 58.16 L 73.93 58.16 L 80.01 52.06999999999999 L 103.04 52.06999999999999 C 103.22000000000001 52.769999999999996 103.86 53.29999999999999 104.61 53.29999999999999 C 105.51 53.29999999999999 106.23 52.56999999999999 106.23 51.66999999999999 C 106.23 50.76999999999998 105.51 50.04999999999999 104.61 50.04999999999999 C 103.85 50.04999999999999 103.22 50.56999999999999 103.04 51.26999999999999 L 79.67 51.26999999999999 L 73.59 57.34999999999999 L 49.01 57.34999999999999 L 54.83 51.52999999999999 L 67.94 51.52999999999999 C 67.94 52.429999999999986 68.66 53.149999999999984 69.57 53.149999999999984 C 70.46 53.149999999999984 71.19999999999999 52.429999999999986 71.19999999999999 51.52999999999999 C 71.19999999999999 50.62999999999999 70.46 49.899999999999984 69.57 49.899999999999984 C 68.96 49.899999999999984 68.44999999999999 50.22999999999998 68.16999999999999 50.70999999999999 L 54.49 50.70999999999999 L 47.86 57.33999999999999 L 39.68 57.33999999999999 L 28.98 46.64999999999999 L 39.57 46.64999999999999 C 39.75 47.349999999999994 40.37 47.86999999999999 41.12 47.86999999999999 C 42.029999999999994 47.86999999999999 42.75 47.14999999999999 42.75 46.23999999999999 C 42.75 45.93999999999999 42.66 45.65999999999999 42.52 45.41999999999999 L 53.21 34.73999999999999 L 68.5 34.73999999999999 C 68.63 35.499999999999986 69.3 36.08999999999999 70.1 36.08999999999999 C 71 36.08999999999999 71.72 35.35999999999999 71.72 34.45999999999999 C 71.72 33.569999999999986 71 32.83999999999999 70.1 32.83999999999999 C 69.39 32.83999999999999 68.8 33.29999999999999 68.57 33.91999999999999 L 52.86999999999999 33.91999999999999 L 41.94 44.85 C 41.699999999999996 44.71 41.419999999999995 44.620000000000005 41.12 44.620000000000005 C 40.37 44.620000000000005 39.75 45.14000000000001 39.57 45.84 L 28.16 45.84 L 20.11 37.800000000000004 C 20.259999999999998 37.56 20.34 37.28 20.34 36.970000000000006 C 20.34 36.07000000000001 19.61 35.35000000000001 18.71 35.35000000000001 C 17.95 35.35000000000001 17.32 35.87000000000001 17.14 36.57000000000001 L 4.5 36.57000000000001 L 4.5 37.38000000000001 L 17.15 37.38000000000001 C 17.33 38.08000000000001 17.97 38.60000000000001 18.72 38.60000000000001 C 19.02 38.60000000000001 19.299999999999997 38.510000000000005 19.54 38.37000000000001 L 27.009999999999998 45.84000000000001 L 4.5 45.84000000000001 L 4.5 46.65000000000001 L 27.82 46.65000000000001 L 39.32 58.16000000000001 L 47.04 58.16000000000001 L 37.14 68.06000000000002 L 28.259999999999998 59.170000000000016 L 6.94 59.170000000000016 L 4.5 61.61 L 4.5 63.91 L 7.609999999999999 60.8 L 27.59 60.8 L 36 69.21 L 19.02 86.19 L 4.5 86.19 L 4.5 87.81 L 17.4 87.81 L 13.62 91.59 L 4.5 91.59 L 4.5 92.4 L 13.95 92.4 L 18.55 87.81 z M 36.57 69.78 L 42.42 75.63 L 44.17 75.63 L 33.61 86.19 L 20.17 86.19 L 36.57 69.78 z" stroke-linecap="round" />
</g>
		<g transform="matrix(1 0 0 1 13.099999999999994 -0.8749999999999787)" id="Shape-2"  >
<linearGradient id="SVGID_20_487172" gradientUnits="userSpaceOnUse" gradientTransform="matrix(1 0 0 1 44.92 79.4)"  x1="0" y1="0" x2="0" y2="15">
<stop offset="0%" style="stop-color:rgb(250,217,97);stop-opacity: 1"/>
<stop offset="100%" style="stop-color:rgb(247,107,28);stop-opacity: 1"/>
</linearGradient>
<path style="stroke: none; stroke-width: 1; stroke-dasharray: none; stroke-linecap: butt; stroke-dashoffset: 0; stroke-linejoin: miter; stroke-miterlimit: 4; fill: url(#SVGID_20_487172); fill-rule: nonzero; opacity: 0.28;"  paint-order="stroke"  transform=" translate(-78.625, -87.06)" d="M 109.14 92.69 L 93.27 92.69 L 81.23 80.63 L 48.11 80.63 C 47.93 79.92999999999999 47.31 79.39999999999999 46.55 79.39999999999999 C 45.65 79.39999999999999 44.919999999999995 80.13 44.919999999999995 81.02999999999999 C 44.919999999999995 81.92999999999999 45.64999999999999 82.65999999999998 46.55 82.65999999999998 C 47.309999999999995 82.65999999999998 47.93 82.13999999999999 48.11 81.43999999999998 L 80.9 81.43999999999998 L 92.94 93.5 L 109.14 93.5 C 109.32000000000001 94.2 109.95 94.72 110.71 94.72 C 111.6 94.72 112.33 93.99 112.33 93.09 C 112.33 92.19 111.6 91.47 110.71 91.47 C 109.95 91.47 109.32 91.99 109.14 92.69 z" stroke-linecap="round" />
</g>
		<g transform="matrix(1 0 0 1 -47.550000000000004 -11.904999999999987)" id="Shape-2"  >
<linearGradient id="SVGID_21_487173" gradientUnits="userSpaceOnUse" gradientTransform="matrix(1 0 0 1 16.36 74.4)"  x1="0" y1="0" x2="0" y2="3">
<stop offset="0%" style="stop-color:rgb(250,217,97);stop-opacity: 1"/>
<stop offset="100%" style="stop-color:rgb(247,107,28);stop-opacity: 1"/>
</linearGradient>
<path style="stroke: none; stroke-width: 1; stroke-dasharray: none; stroke-linecap: butt; stroke-dashoffset: 0; stroke-linejoin: miter; stroke-miterlimit: 4; fill: url(#SVGID_21_487173); fill-rule: nonzero; opacity: 0.28;"  paint-order="stroke"  transform=" translate(-17.975, -76.03)" d="M 19.59 76.03 C 19.59 75.13 18.87 74.4 17.98 74.4 C 17.07 74.4 16.36 75.13000000000001 16.36 76.03 C 16.36 76.93 17.07 77.66 17.98 77.66 C 18.87 77.66 19.59 76.93 19.59 76.03 z" stroke-linecap="round" />
</g>
		<g transform="matrix(1 0 0 1 0 30.860000000000007)" id="Shape-2"  >
<linearGradient id="SVGID_22_487174" gradientUnits="userSpaceOnUse" gradientTransform="matrix(1 0 0 1 4.500000000000007 94.56)"  x1="0" y1="0" x2="0" y2="48">
<stop offset="0%" style="stop-color:rgb(250,217,97);stop-opacity: 1"/>
<stop offset="100%" style="stop-color:rgb(247,107,28);stop-opacity: 1"/>
</linearGradient>
<path style="stroke: none; stroke-width: 1; stroke-dasharray: none; stroke-linecap: butt; stroke-dashoffset: 0; stroke-linejoin: miter; stroke-miterlimit: 4; fill: url(#SVGID_22_487174); fill-rule: nonzero; opacity: 0.28;"  paint-order="stroke"  transform=" translate(-65.525, -118.79499999999999)" d="M 124.92 111.63 C 124.55 111.63 124.21000000000001 111.75999999999999 123.93 111.97 L 117.10000000000001 105.13 L 67.7 105.13 C 67.41 104.64999999999999 66.89 104.31 66.29 104.31 C 65.41000000000001 104.31 64.67 105.04 64.67 105.94 C 64.67 106.21 64.74 106.45 64.86 106.67 L 58.28 113.25 L 37.5 113.25 L 33.44 109.19 L 44.54 109.19 L 56.98 96.74 L 67.75999999999999 96.74 C 67.97999999999999 97.36999999999999 68.57 97.80999999999999 69.27999999999999 97.80999999999999 C 70.17999999999999 97.80999999999999 70.89999999999999 97.08999999999999 70.89999999999999 96.18999999999998 C 70.89999999999999 95.28999999999998 70.17999999999999 94.55999999999999 69.27999999999999 94.55999999999999 C 68.46999999999998 94.55999999999999 67.82 95.14999999999999 67.68999999999998 95.91999999999999 L 56.65 95.91999999999999 L 44.21 108.36999999999999 L 32.63 108.36999999999999 L 23.040000000000003 98.77 C 23.180000000000003 98.53 23.270000000000003 98.25999999999999 23.270000000000003 97.96 C 23.270000000000003 97.05999999999999 22.530000000000005 96.33999999999999 21.640000000000004 96.33999999999999 C 20.880000000000003 96.33999999999999 20.260000000000005 96.85 20.070000000000004 97.53999999999999 L 4.5 97.53999999999999 L 4.5 98.35999999999999 L 20.05 98.35999999999999 C 20.23 99.06999999999998 20.86 99.59999999999998 21.630000000000003 99.59999999999998 C 21.930000000000003 99.59999999999998 22.220000000000002 99.50999999999998 22.46 99.35999999999999 L 31.48 108.37999999999998 L 14.080000000000002 108.37999999999998 C 13.920000000000002 107.64999999999998 13.270000000000001 107.08999999999997 12.500000000000002 107.08999999999997 C 11.600000000000001 107.08999999999997 10.890000000000002 107.81999999999998 10.890000000000002 108.71999999999997 C 10.890000000000002 109.08999999999997 11.020000000000003 109.42999999999996 11.220000000000002 109.69999999999997 L 4.5100000000000025 116.40999999999997 L 4.5100000000000025 117.54999999999997 L 11.860000000000003 110.19999999999997 C 12.060000000000002 110.28999999999998 12.280000000000003 110.33999999999997 12.510000000000003 110.33999999999997 C 13.230000000000004 110.33999999999997 13.850000000000003 109.84999999999998 14.050000000000004 109.18999999999997 L 32.31 109.18999999999997 L 37.190000000000005 114.06999999999996 L 57.49000000000001 114.06999999999996 L 29.34000000000001 142.21999999999997 L 4.5 142.21999999999997 L 4.5 143.02999999999997 L 29.65 143.02999999999997 L 58.61 114.05999999999997 L 78.32 114.05999999999997 C 78.53999999999999 114.68999999999997 79.13 115.12999999999997 79.83999999999999 115.12999999999997 C 80.74 115.12999999999997 81.46 114.40999999999997 81.46 113.50999999999996 C 81.46 112.60999999999996 80.74 111.87999999999997 79.83999999999999 111.87999999999997 C 79.02999999999999 111.87999999999997 78.38 112.46999999999997 78.24999999999999 113.23999999999997 L 59.43 113.23999999999997 L 65.4 107.26999999999997 C 65.66000000000001 107.43999999999997 65.97 107.54999999999997 66.30000000000001 107.54999999999997 C 67.20000000000002 107.54999999999997 67.94000000000001 106.82999999999997 67.94000000000001 105.92999999999996 L 116.77000000000001 105.92999999999996 L 123.43 112.58999999999996 C 123.34 112.78999999999996 123.29 113.00999999999996 123.29 113.23999999999997 C 123.29 114.13999999999997 124.02000000000001 114.85999999999997 124.92 114.85999999999997 C 125.82000000000001 114.85999999999997 126.55 114.13999999999997 126.55 113.23999999999997 C 126.55 112.36 125.82 111.63 124.92 111.63 z" stroke-linecap="round" />
</g>
		<g transform="matrix(1 0 0 1 -42.165000000000006 -35.389999999999986)" id="Shape-2"  >
<linearGradient id="SVGID_23_487175" gradientUnits="userSpaceOnUse" gradientTransform="matrix(1 0 0 1 21.049999999999997 50.25)"  x1="0" y1="0" x2="0" y2="5">
<stop offset="0%" style="stop-color:rgb(250,217,97);stop-opacity: 1"/>
<stop offset="100%" style="stop-color:rgb(247,107,28);stop-opacity: 1"/>
</linearGradient>
<path style="stroke: none; stroke-width: 1; stroke-dasharray: none; stroke-linecap: butt; stroke-dashoffset: 0; stroke-linejoin: miter; stroke-miterlimit: 4; fill: url(#SVGID_23_487175); fill-rule: nonzero; opacity: 0.28;"  paint-order="stroke"  transform=" translate(-23.36, -52.545)" d="M 25.67 52.54 C 25.67 51.269999999999996 24.62 50.25 23.35 50.25 C 22.080000000000002 50.25 21.05 51.27 21.05 52.54 C 21.05 53.81 22.080000000000002 54.839999999999996 23.35 54.839999999999996 C 24.62 54.84 25.67 53.81 25.67 52.54 z" stroke-linecap="round" />
</g>
</g>
</g>
<g transform="matrix(-6.045426024824107 0 0 6.045426024824108 1633.417620893988 540.0653688343211)" id="shape-53d32a4f-a607-460e-96cf-d1eacfe11103"  >
<g style=""  paint-order="stroke"   >
		<g transform="matrix(1 0 0 1 -5.675000000000004 -22.11000000000002)" id="Shape-1"  >
<linearGradient id="SVGID_13_42_40_487176" gradientUnits="userSpaceOnUse" gradientTransform="matrix(1 0 0 1 4.5 38.94)"  x1="0" y1="0" x2="0" y2="52">
<stop offset="0%" style="stop-color:rgb(250,217,97);stop-opacity: 1"/>
<stop offset="100%" style="stop-color:rgb(247,107,28);stop-opacity: 1"/>
</linearGradient>
<path style="stroke: none; stroke-width: 1; stroke-dasharray: none; stroke-linecap: butt; stroke-dashoffset: 0; stroke-linejoin: miter; stroke-miterlimit: 4; fill: url(#SVGID_13_42_40_487176); fill-rule: nonzero; opacity: 1;"  paint-order="stroke"  transform=" translate(-53.245, -64.92999999999999)" d="M 19.05 86.9 L 32.79 86.9 L 43.42 76.27000000000001 L 82.32 76.27000000000001 L 89.52999999999999 83.48 L 98.07999999999998 83.48 C 98.32999999999998 84.3 99.07999999999998 84.89 99.97999999999999 84.89 C 101.08999999999999 84.89 101.99 83.99 101.99 82.89 C 101.99 81.78 101.08999999999999 80.88 99.97999999999999 80.88 C 99.16999999999999 80.88 98.47999999999999 81.36 98.16 82.06 L 90.11 82.06 L 82.9 74.85000000000001 L 44.84 74.85000000000001 L 54.17 65.52000000000001 L 76.95 65.52000000000001 C 77.24000000000001 66.28000000000002 77.96000000000001 66.82000000000001 78.83 66.82000000000001 C 79.92999999999999 66.82000000000001 80.84 65.92 80.84 64.81 C 80.84 63.7 79.93 62.800000000000004 78.83 62.800000000000004 C 77.97 62.800000000000004 77.24 63.34 76.95 64.10000000000001 L 53.6 64.10000000000001 L 42.85 74.84 L 40.480000000000004 74.84 L 35.790000000000006 70.16 L 44.940000000000005 61.01 L 67.4 61.01 L 72.72 55.69 L 92.83 55.69 C 92.99 56.3 93.53999999999999 56.76 94.2 56.76 C 94.98 56.76 95.61 56.12 95.61 55.339999999999996 C 95.61 54.559999999999995 94.98 53.93 94.2 53.93 C 93.54 53.93 92.98 54.38 92.83 54.99 L 72.41 54.99 L 67.11 60.300000000000004 L 45.66 60.300000000000004 L 50.739999999999995 55.230000000000004 L 62.169999999999995 55.230000000000004 C 62.169999999999995 56.010000000000005 62.809999999999995 56.64 63.589999999999996 56.64 C 64.36999999999999 56.64 65.00999999999999 56.01 65.00999999999999 55.230000000000004 C 65.00999999999999 54.45000000000001 64.36999999999999 53.81 63.58999999999999 53.81 C 63.069999999999986 53.81 62.60999999999999 54.1 62.36999999999999 54.52 L 50.42 54.52 L 44.64 60.31 L 37.49 60.31 L 28.150000000000002 50.980000000000004 L 37.400000000000006 50.980000000000004 C 37.56 51.59 38.11000000000001 52.040000000000006 38.77 52.040000000000006 C 39.550000000000004 52.040000000000006 40.17 51.410000000000004 40.17 50.620000000000005 C 40.17 50.36000000000001 40.1 50.120000000000005 39.980000000000004 49.92 L 49.31 40.58 L 62.660000000000004 40.58 C 62.77 41.25 63.36000000000001 41.769999999999996 64.06 41.769999999999996 C 64.84 41.769999999999996 65.48 41.129999999999995 65.48 40.349999999999994 C 65.48 39.57999999999999 64.84 38.94 64.06 38.94 C 63.45 38.94 62.92 39.339999999999996 62.730000000000004 39.879999999999995 L 49.03 39.879999999999995 L 39.480000000000004 49.419999999999995 C 39.27 49.3 39.040000000000006 49.21999999999999 38.78 49.21999999999999 C 38.120000000000005 49.21999999999999 37.57 49.67999999999999 37.410000000000004 50.279999999999994 L 27.450000000000003 50.279999999999994 L 20.42 43.25999999999999 C 20.55 43.04999999999999 20.62 42.79999999999999 20.62 42.53999999999999 C 20.62 41.75999999999999 19.98 41.129999999999995 19.200000000000003 41.129999999999995 C 18.540000000000003 41.129999999999995 17.980000000000004 41.58 17.830000000000002 42.19 L 4.5 42.19 L 4.5 42.9 L 17.82 42.9 C 17.98 43.51 18.53 43.96 19.19 43.96 C 19.450000000000003 43.96 19.700000000000003 43.88 19.91 43.76 L 26.44 50.28 L 4.5 50.28 L 4.5 50.99 L 27.15 50.99 L 37.2 61.02 L 43.93000000000001 61.02 L 35.290000000000006 69.66 L 27.53000000000001 61.91 L 8.92 61.91 L 4.5 66.33 L 4.5 68.33 L 9.5 63.33 L 26.95 63.33 L 34.28 70.67 L 19.46 85.49 L 4.5 85.49 L 4.5 86.89999999999999 L 18.05 86.89999999999999 L 14.74 90.21 L 4.5 90.21 L 4.5 90.91999999999999 L 15.03 90.91999999999999 L 19.05 86.9 z M 34.79 71.17 L 39.879999999999995 76.27 L 41.419999999999995 76.27 L 32.199999999999996 85.49 L 20.47 85.49 L 34.79 71.17 z" stroke-linecap="round" />
</g>
		<g transform="matrix(1 0 0 1 12.584999999999994 -0.7900000000000205)" id="Shape-1"  >
<linearGradient id="SVGID_25_487177" gradientUnits="userSpaceOnUse" gradientTransform="matrix(1 0 0 1 42.07999999999999 79.57)"  x1="0" y1="0" x2="0" y2="13">
<stop offset="0%" style="stop-color:rgb(250,217,97);stop-opacity: 1"/>
<stop offset="100%" style="stop-color:rgb(247,107,28);stop-opacity: 1"/>
</linearGradient>
<path style="stroke: none; stroke-width: 1; stroke-dasharray: none; stroke-linecap: butt; stroke-dashoffset: 0; stroke-linejoin: miter; stroke-miterlimit: 4; fill: url(#SVGID_25_487177); fill-rule: nonzero; opacity: 1;"  paint-order="stroke"  transform=" translate(-71.505, -86.25)" d="M 98.15 91.16 L 84.29 91.16 L 73.77 80.64 L 44.87 80.64 C 44.71 80.03 44.16 79.57000000000001 43.5 79.57000000000001 C 42.72 79.57000000000001 42.08 80.21000000000001 42.08 80.99000000000001 C 42.08 81.77000000000001 42.72 82.41000000000001 43.5 82.41000000000001 C 44.16 82.41000000000001 44.71 81.96000000000001 44.87 81.35000000000001 L 73.49 81.35000000000001 L 84 91.87 L 98.15 91.87 C 98.31 92.48 98.85000000000001 92.93 99.51 92.93 C 100.29 92.93 100.93 92.29 100.93 91.51 C 100.93 90.73 100.29 90.10000000000001 99.51 90.10000000000001 C 98.85 90.1 98.3 90.55 98.15 91.16 z" stroke-linecap="round" />
</g>
		<g transform="matrix(1 0 0 1 -40.370000000000005 -10.420000000000009)" id="Shape-1"  >
<linearGradient id="SVGID_26_487178" gradientUnits="userSpaceOnUse" gradientTransform="matrix(1 0 0 1 17.14 75.2)"  x1="0" y1="0" x2="0" y2="3">
<stop offset="0%" style="stop-color:rgb(250,217,97);stop-opacity: 1"/>
<stop offset="100%" style="stop-color:rgb(247,107,28);stop-opacity: 1"/>
</linearGradient>
<path style="stroke: none; stroke-width: 1; stroke-dasharray: none; stroke-linecap: butt; stroke-dashoffset: 0; stroke-linejoin: miter; stroke-miterlimit: 4; fill: url(#SVGID_26_487178); fill-rule: nonzero; opacity: 1;"  paint-order="stroke"  transform=" translate(-18.55, -76.62)" d="M 19.96 76.62 C 19.96 75.84 19.34 75.2 18.560000000000002 75.2 C 17.78 75.2 17.14 75.84 17.14 76.62 C 17.14 77.4 17.78 78.04 18.560000000000002 78.04 C 19.34 78.04 19.96 77.4 19.96 76.62 z" stroke-linecap="round" />
</g>
		<g transform="matrix(1 0 0 1 0 26.940000000000012)" id="Shape-1"  >
<linearGradient id="SVGID_27_487179" gradientUnits="userSpaceOnUse" gradientTransform="matrix(1 0 0 1 4.5 92.82000000000002)"  x1="0" y1="0" x2="0" y2="42">
<stop offset="0%" style="stop-color:rgb(250,217,97);stop-opacity: 1"/>
<stop offset="100%" style="stop-color:rgb(247,107,28);stop-opacity: 1"/>
</linearGradient>
<path style="stroke: none; stroke-width: 1; stroke-dasharray: none; stroke-linecap: butt; stroke-dashoffset: 0; stroke-linejoin: miter; stroke-miterlimit: 4; fill: url(#SVGID_27_487179); fill-rule: nonzero; opacity: 1;"  paint-order="stroke"  transform=" translate(-58.92, -113.98000000000002)" d="M 111.93 107.7 C 111.61000000000001 107.7 111.31 107.81 111.07000000000001 108 L 105.10000000000001 102.03 L 61.96 102.03 C 61.71 101.61 61.26 101.32000000000001 60.74 101.32000000000001 C 59.980000000000004 101.32000000000001 59.34 101.96000000000001 59.34 102.74000000000001 C 59.34 102.97000000000001 59.400000000000006 103.18 59.5 103.38000000000001 L 53.75 109.13000000000001 L 35.59 109.13000000000001 L 32.050000000000004 105.58000000000001 L 41.74 105.58000000000001 L 52.61 94.71000000000001 L 62.019999999999996 94.71000000000001 C 62.22 95.26 62.739999999999995 95.65 63.36 95.65 C 64.14 95.65 64.76 95.02000000000001 64.76 94.24000000000001 C 64.76 93.46000000000001 64.14 92.82000000000001 63.36000000000001 92.82000000000001 C 62.660000000000004 92.82000000000001 62.080000000000005 93.33000000000001 61.96000000000001 94.01 L 52.32000000000001 94.01 L 41.45000000000001 104.88000000000001 L 31.34 104.88000000000001 L 22.96 96.49000000000001 C 23.080000000000002 96.28000000000002 23.150000000000002 96.05000000000001 23.150000000000002 95.79 C 23.150000000000002 95.01 22.51 94.38000000000001 21.730000000000004 94.38000000000001 C 21.080000000000005 94.38000000000001 20.540000000000003 94.82000000000001 20.380000000000003 95.42000000000002 L 4.5 95.42000000000002 L 4.5 96.13000000000001 L 20.369999999999997 96.13000000000001 C 20.519999999999996 96.75000000000001 21.06 97.21000000000001 21.729999999999997 97.21000000000001 C 21.999999999999996 97.21000000000001 22.249999999999996 97.13000000000001 22.459999999999997 97.00000000000001 L 30.33 104.87000000000002 L 15.14 104.87000000000002 C 15 104.23000000000002 14.43 103.75000000000001 13.77 103.75000000000001 C 12.99 103.75000000000001 12.35 104.39000000000001 12.35 105.17000000000002 C 12.35 105.49000000000001 12.459999999999999 105.78000000000002 12.639999999999999 106.02000000000001 L 4.499999999999998 114.16000000000001 L 4.499999999999998 115.16000000000001 L 13.189999999999998 106.47000000000001 C 13.369999999999997 106.55000000000001 13.559999999999997 106.59000000000002 13.769999999999998 106.59000000000002 C 14.389999999999997 106.59000000000002 14.929999999999998 106.16000000000001 15.099999999999998 105.58000000000001 L 31.04 105.58000000000001 L 35.3 109.84000000000002 L 53.03 109.84000000000002 L 28.450000000000003 134.43 L 4.5 134.43 L 4.5 135.14000000000001 L 28.75 135.14000000000001 L 54.04 109.84000000000002 L 71.25 109.84000000000002 C 71.45 110.39000000000001 71.97 110.78000000000002 72.59 110.78000000000002 C 73.37 110.78000000000002 73.99000000000001 110.15000000000002 73.99000000000001 109.37000000000002 C 73.99000000000001 108.59000000000002 73.37 107.95000000000002 72.59 107.95000000000002 C 71.89 107.95000000000002 71.31 108.47000000000001 71.19 109.14000000000001 L 54.75 109.14000000000001 L 59.96 103.93000000000002 C 60.18 104.08000000000003 60.45 104.17000000000002 60.74 104.17000000000002 C 61.52 104.17000000000002 62.160000000000004 103.54000000000002 62.160000000000004 102.76000000000002 L 104.81 102.76000000000002 L 110.62 108.57000000000002 C 110.54 108.74000000000002 110.5 108.94000000000003 110.5 109.14000000000001 C 110.5 109.92000000000002 111.14 110.55000000000001 111.92 110.55000000000001 C 112.7 110.55000000000001 113.34 109.92000000000002 113.34 109.14000000000001 C 113.34 108.36000000000001 112.71 107.7 111.93 107.7 z" stroke-linecap="round" />
</g>
		<g transform="matrix(1 0 0 1 -35.67 -30.925000000000015)" id="Shape-1"  >
<linearGradient id="SVGID_28_487180" gradientUnits="userSpaceOnUse" gradientTransform="matrix(1 0 0 1 21.240000000000002 54.11)"  x1="0" y1="0" x2="0" y2="4">
<stop offset="0%" style="stop-color:rgb(250,217,97);stop-opacity: 1"/>
<stop offset="100%" style="stop-color:rgb(247,107,28);stop-opacity: 1"/>
</linearGradient>
<path style="stroke: none; stroke-width: 1; stroke-dasharray: none; stroke-linecap: butt; stroke-dashoffset: 0; stroke-linejoin: miter; stroke-miterlimit: 4; fill: url(#SVGID_28_487180); fill-rule: nonzero; opacity: 1;"  paint-order="stroke"  transform=" translate(-23.25, -56.114999999999995)" d="M 25.26 56.11 C 25.26 55.01 24.35 54.11 23.240000000000002 54.11 C 22.150000000000002 54.11 21.240000000000002 55.01 21.240000000000002 56.11 C 21.240000000000002 57.22 22.150000000000002 58.12 23.240000000000002 58.12 C 24.35 58.12 25.26 57.22 25.26 56.11 z" stroke-linecap="round" />
</g>
</g>
</g>
<g transform="matrix(6.300740364988647 0 0 6.300740364988646 377.2992223654486 461.2034168435704)" id="shape-3932a081-62ce-450e-a683-0a5c10eb14da"  >
<g style="opacity: 0.31;"  paint-order="stroke"   >
		<g transform="matrix(1 0 0 1 -6.490000000000009 -25.31499999999999)" id="Shape-2"  >
<linearGradient id="SVGID_13_47_41_487181" gradientUnits="userSpaceOnUse" gradientTransform="matrix(1 0 0 1 4.5 32.83999999999999)"  x1="0" y1="0" x2="0" y2="60">
<stop offset="0%" style="stop-color:rgb(250,217,97);stop-opacity: 1"/>
<stop offset="100%" style="stop-color:rgb(247,107,28);stop-opacity: 1"/>
</linearGradient>
<path style="stroke: none; stroke-width: 1; stroke-dasharray: none; stroke-linecap: butt; stroke-dashoffset: 0; stroke-linejoin: miter; stroke-miterlimit: 4; fill: url(#SVGID_13_47_41_487181); fill-rule: nonzero; opacity: 0.28;"  paint-order="stroke"  transform=" translate(-59.035, -62.62)" d="M 18.55 87.81 L 34.3 87.81 L 46.48 75.63 L 91.03 75.63 L 99.28 83.88 L 109.08 83.88 C 109.37 84.82 110.23 85.5 111.27 85.5 C 112.55 85.5 113.57 84.48 113.57 83.21 C 113.57 81.92999999999999 112.55 80.91 111.27 80.91 C 110.33999999999999 80.91 109.55 81.46 109.17999999999999 82.25 L 99.96 82.25 L 91.68 74 L 48.1 74 L 58.79 63.31 L 84.88 63.31 C 85.21 64.18 86.03 64.81 87.02 64.81 C 88.3 64.81 89.33 63.78 89.33 62.5 C 89.33 61.23 88.3 60.2 87.02 60.2 C 86.03999999999999 60.2 85.21 60.82 84.89 61.690000000000005 L 58.12 61.690000000000005 L 45.8 74 L 43.08 74 L 37.72 68.63 L 48.2 58.16 L 73.93 58.16 L 80.01 52.06999999999999 L 103.04 52.06999999999999 C 103.22000000000001 52.769999999999996 103.86 53.29999999999999 104.61 53.29999999999999 C 105.51 53.29999999999999 106.23 52.56999999999999 106.23 51.66999999999999 C 106.23 50.76999999999998 105.51 50.04999999999999 104.61 50.04999999999999 C 103.85 50.04999999999999 103.22 50.56999999999999 103.04 51.26999999999999 L 79.67 51.26999999999999 L 73.59 57.34999999999999 L 49.01 57.34999999999999 L 54.83 51.52999999999999 L 67.94 51.52999999999999 C 67.94 52.429999999999986 68.66 53.149999999999984 69.57 53.149999999999984 C 70.46 53.149999999999984 71.19999999999999 52.429999999999986 71.19999999999999 51.52999999999999 C 71.19999999999999 50.62999999999999 70.46 49.899999999999984 69.57 49.899999999999984 C 68.96 49.899999999999984 68.44999999999999 50.22999999999998 68.16999999999999 50.70999999999999 L 54.49 50.70999999999999 L 47.86 57.33999999999999 L 39.68 57.33999999999999 L 28.98 46.64999999999999 L 39.57 46.64999999999999 C 39.75 47.349999999999994 40.37 47.86999999999999 41.12 47.86999999999999 C 42.029999999999994 47.86999999999999 42.75 47.14999999999999 42.75 46.23999999999999 C 42.75 45.93999999999999 42.66 45.65999999999999 42.52 45.41999999999999 L 53.21 34.73999999999999 L 68.5 34.73999999999999 C 68.63 35.499999999999986 69.3 36.08999999999999 70.1 36.08999999999999 C 71 36.08999999999999 71.72 35.35999999999999 71.72 34.45999999999999 C 71.72 33.569999999999986 71 32.83999999999999 70.1 32.83999999999999 C 69.39 32.83999999999999 68.8 33.29999999999999 68.57 33.91999999999999 L 52.86999999999999 33.91999999999999 L 41.94 44.85 C 41.699999999999996 44.71 41.419999999999995 44.620000000000005 41.12 44.620000000000005 C 40.37 44.620000000000005 39.75 45.14000000000001 39.57 45.84 L 28.16 45.84 L 20.11 37.800000000000004 C 20.259999999999998 37.56 20.34 37.28 20.34 36.970000000000006 C 20.34 36.07000000000001 19.61 35.35000000000001 18.71 35.35000000000001 C 17.95 35.35000000000001 17.32 35.87000000000001 17.14 36.57000000000001 L 4.5 36.57000000000001 L 4.5 37.38000000000001 L 17.15 37.38000000000001 C 17.33 38.08000000000001 17.97 38.60000000000001 18.72 38.60000000000001 C 19.02 38.60000000000001 19.299999999999997 38.510000000000005 19.54 38.37000000000001 L 27.009999999999998 45.84000000000001 L 4.5 45.84000000000001 L 4.5 46.65000000000001 L 27.82 46.65000000000001 L 39.32 58.16000000000001 L 47.04 58.16000000000001 L 37.14 68.06000000000002 L 28.259999999999998 59.170000000000016 L 6.94 59.170000000000016 L 4.5 61.61 L 4.5 63.91 L 7.609999999999999 60.8 L 27.59 60.8 L 36 69.21 L 19.02 86.19 L 4.5 86.19 L 4.5 87.81 L 17.4 87.81 L 13.62 91.59 L 4.5 91.59 L 4.5 92.4 L 13.95 92.4 L 18.55 87.81 z M 36.57 69.78 L 42.42 75.63 L 44.17 75.63 L 33.61 86.19 L 20.17 86.19 L 36.57 69.78 z" stroke-linecap="round" />
</g>
		<g transform="matrix(1 0 0 1 13.099999999999994 -0.8749999999999787)" id="Shape-2"  >
<linearGradient id="SVGID_30_487182" gradientUnits="userSpaceOnUse" gradientTransform="matrix(1 0 0 1 44.92 79.4)"  x1="0" y1="0" x2="0" y2="15">
<stop offset="0%" style="stop-color:rgb(250,217,97);stop-opacity: 1"/>
<stop offset="100%" style="stop-color:rgb(247,107,28);stop-opacity: 1"/>
</linearGradient>
<path style="stroke: none; stroke-width: 1; stroke-dasharray: none; stroke-linecap: butt; stroke-dashoffset: 0; stroke-linejoin: miter; stroke-miterlimit: 4; fill: url(#SVGID_30_487182); fill-rule: nonzero; opacity: 0.28;"  paint-order="stroke"  transform=" translate(-78.625, -87.06)" d="M 109.14 92.69 L 93.27 92.69 L 81.23 80.63 L 48.11 80.63 C 47.93 79.92999999999999 47.31 79.39999999999999 46.55 79.39999999999999 C 45.65 79.39999999999999 44.919999999999995 80.13 44.919999999999995 81.02999999999999 C 44.919999999999995 81.92999999999999 45.64999999999999 82.65999999999998 46.55 82.65999999999998 C 47.309999999999995 82.65999999999998 47.93 82.13999999999999 48.11 81.43999999999998 L 80.9 81.43999999999998 L 92.94 93.5 L 109.14 93.5 C 109.32000000000001 94.2 109.95 94.72 110.71 94.72 C 111.6 94.72 112.33 93.99 112.33 93.09 C 112.33 92.19 111.6 91.47 110.71 91.47 C 109.95 91.47 109.32 91.99 109.14 92.69 z" stroke-linecap="round" />
</g>
		<g transform="matrix(1 0 0 1 -47.550000000000004 -11.904999999999987)" id="Shape-2"  >
<linearGradient id="SVGID_31_487183" gradientUnits="userSpaceOnUse" gradientTransform="matrix(1 0 0 1 16.36 74.4)"  x1="0" y1="0" x2="0" y2="3">
<stop offset="0%" style="stop-color:rgb(250,217,97);stop-opacity: 1"/>
<stop offset="100%" style="stop-color:rgb(247,107,28);stop-opacity: 1"/>
</linearGradient>
<path style="stroke: none; stroke-width: 1; stroke-dasharray: none; stroke-linecap: butt; stroke-dashoffset: 0; stroke-linejoin: miter; stroke-miterlimit: 4; fill: url(#SVGID_31_487183); fill-rule: nonzero; opacity: 0.28;"  paint-order="stroke"  transform=" translate(-17.975, -76.03)" d="M 19.59 76.03 C 19.59 75.13 18.87 74.4 17.98 74.4 C 17.07 74.4 16.36 75.13000000000001 16.36 76.03 C 16.36 76.93 17.07 77.66 17.98 77.66 C 18.87 77.66 19.59 76.93 19.59 76.03 z" stroke-linecap="round" />
</g>
		<g transform="matrix(1 0 0 1 0 30.860000000000007)" id="Shape-2"  >
<linearGradient id="SVGID_32_487184" gradientUnits="userSpaceOnUse" gradientTransform="matrix(1 0 0 1 4.500000000000007 94.56)"  x1="0" y1="0" x2="0" y2="48">
<stop offset="0%" style="stop-color:rgb(250,217,97);stop-opacity: 1"/>
<stop offset="100%" style="stop-color:rgb(247,107,28);stop-opacity: 1"/>
</linearGradient>
<path style="stroke: none; stroke-width: 1; stroke-dasharray: none; stroke-linecap: butt; stroke-dashoffset: 0; stroke-linejoin: miter; stroke-miterlimit: 4; fill: url(#SVGID_32_487184); fill-rule: nonzero; opacity: 0.28;"  paint-order="stroke"  transform=" translate(-65.525, -118.79499999999999)" d="M 124.92 111.63 C 124.55 111.63 124.21000000000001 111.75999999999999 123.93 111.97 L 117.10000000000001 105.13 L 67.7 105.13 C 67.41 104.64999999999999 66.89 104.31 66.29 104.31 C 65.41000000000001 104.31 64.67 105.04 64.67 105.94 C 64.67 106.21 64.74 106.45 64.86 106.67 L 58.28 113.25 L 37.5 113.25 L 33.44 109.19 L 44.54 109.19 L 56.98 96.74 L 67.75999999999999 96.74 C 67.97999999999999 97.36999999999999 68.57 97.80999999999999 69.27999999999999 97.80999999999999 C 70.17999999999999 97.80999999999999 70.89999999999999 97.08999999999999 70.89999999999999 96.18999999999998 C 70.89999999999999 95.28999999999998 70.17999999999999 94.55999999999999 69.27999999999999 94.55999999999999 C 68.46999999999998 94.55999999999999 67.82 95.14999999999999 67.68999999999998 95.91999999999999 L 56.65 95.91999999999999 L 44.21 108.36999999999999 L 32.63 108.36999999999999 L 23.040000000000003 98.77 C 23.180000000000003 98.53 23.270000000000003 98.25999999999999 23.270000000000003 97.96 C 23.270000000000003 97.05999999999999 22.530000000000005 96.33999999999999 21.640000000000004 96.33999999999999 C 20.880000000000003 96.33999999999999 20.260000000000005 96.85 20.070000000000004 97.53999999999999 L 4.5 97.53999999999999 L 4.5 98.35999999999999 L 20.05 98.35999999999999 C 20.23 99.06999999999998 20.86 99.59999999999998 21.630000000000003 99.59999999999998 C 21.930000000000003 99.59999999999998 22.220000000000002 99.50999999999998 22.46 99.35999999999999 L 31.48 108.37999999999998 L 14.080000000000002 108.37999999999998 C 13.920000000000002 107.64999999999998 13.270000000000001 107.08999999999997 12.500000000000002 107.08999999999997 C 11.600000000000001 107.08999999999997 10.890000000000002 107.81999999999998 10.890000000000002 108.71999999999997 C 10.890000000000002 109.08999999999997 11.020000000000003 109.42999999999996 11.220000000000002 109.69999999999997 L 4.5100000000000025 116.40999999999997 L 4.5100000000000025 117.54999999999997 L 11.860000000000003 110.19999999999997 C 12.060000000000002 110.28999999999998 12.280000000000003 110.33999999999997 12.510000000000003 110.33999999999997 C 13.230000000000004 110.33999999999997 13.850000000000003 109.84999999999998 14.050000000000004 109.18999999999997 L 32.31 109.18999999999997 L 37.190000000000005 114.06999999999996 L 57.49000000000001 114.06999999999996 L 29.34000000000001 142.21999999999997 L 4.5 142.21999999999997 L 4.5 143.02999999999997 L 29.65 143.02999999999997 L 58.61 114.05999999999997 L 78.32 114.05999999999997 C 78.53999999999999 114.68999999999997 79.13 115.12999999999997 79.83999999999999 115.12999999999997 C 80.74 115.12999999999997 81.46 114.40999999999997 81.46 113.50999999999996 C 81.46 112.60999999999996 80.74 111.87999999999997 79.83999999999999 111.87999999999997 C 79.02999999999999 111.87999999999997 78.38 112.46999999999997 78.24999999999999 113.23999999999997 L 59.43 113.23999999999997 L 65.4 107.26999999999997 C 65.66000000000001 107.43999999999997 65.97 107.54999999999997 66.30000000000001 107.54999999999997 C 67.20000000000002 107.54999999999997 67.94000000000001 106.82999999999997 67.94000000000001 105.92999999999996 L 116.77000000000001 105.92999999999996 L 123.43 112.58999999999996 C 123.34 112.78999999999996 123.29 113.00999999999996 123.29 113.23999999999997 C 123.29 114.13999999999997 124.02000000000001 114.85999999999997 124.92 114.85999999999997 C 125.82000000000001 114.85999999999997 126.55 114.13999999999997 126.55 113.23999999999997 C 126.55 112.36 125.82 111.63 124.92 111.63 z" stroke-linecap="round" />
</g>
		<g transform="matrix(1 0 0 1 -42.165000000000006 -35.389999999999986)" id="Shape-2"  >
<linearGradient id="SVGID_33_487185" gradientUnits="userSpaceOnUse" gradientTransform="matrix(1 0 0 1 21.049999999999997 50.25)"  x1="0" y1="0" x2="0" y2="5">
<stop offset="0%" style="stop-color:rgb(250,217,97);stop-opacity: 1"/>
<stop offset="100%" style="stop-color:rgb(247,107,28);stop-opacity: 1"/>
</linearGradient>
<path style="stroke: none; stroke-width: 1; stroke-dasharray: none; stroke-linecap: butt; stroke-dashoffset: 0; stroke-linejoin: miter; stroke-miterlimit: 4; fill: url(#SVGID_33_487185); fill-rule: nonzero; opacity: 0.28;"  paint-order="stroke"  transform=" translate(-23.36, -52.545)" d="M 25.67 52.54 C 25.67 51.269999999999996 24.62 50.25 23.35 50.25 C 22.080000000000002 50.25 21.05 51.27 21.05 52.54 C 21.05 53.81 22.080000000000002 54.839999999999996 23.35 54.839999999999996 C 24.62 54.84 25.67 53.81 25.67 52.54 z" stroke-linecap="round" />
</g>
</g>
</g>
<g transform="matrix(6.06340061996625 0 0 6.0634006199662505 288.4343802258742 540.9389341582296)" id="shape-660caab6-5f47-41b5-b481-3003a3673264"  >
<g style=""  paint-order="stroke"   >
		<g transform="matrix(1 0 0 1 -5.675000000000004 -22.11000000000002)" id="Shape-1"  >
<linearGradient id="SVGID_13_52_42_487186" gradientUnits="userSpaceOnUse" gradientTransform="matrix(1 0 0 1 4.5 38.94)"  x1="0" y1="0" x2="0" y2="52">
<stop offset="0%" style="stop-color:rgb(250,217,97);stop-opacity: 1"/>
<stop offset="100%" style="stop-color:rgb(247,107,28);stop-opacity: 1"/>
</linearGradient>
<path style="stroke: none; stroke-width: 1; stroke-dasharray: none; stroke-linecap: butt; stroke-dashoffset: 0; stroke-linejoin: miter; stroke-miterlimit: 4; fill: url(#SVGID_13_52_42_487186); fill-rule: nonzero; opacity: 1;"  paint-order="stroke"  transform=" translate(-53.245, -64.92999999999999)" d="M 19.05 86.9 L 32.79 86.9 L 43.42 76.27000000000001 L 82.32 76.27000000000001 L 89.52999999999999 83.48 L 98.07999999999998 83.48 C 98.32999999999998 84.3 99.07999999999998 84.89 99.97999999999999 84.89 C 101.08999999999999 84.89 101.99 83.99 101.99 82.89 C 101.99 81.78 101.08999999999999 80.88 99.97999999999999 80.88 C 99.16999999999999 80.88 98.47999999999999 81.36 98.16 82.06 L 90.11 82.06 L 82.9 74.85000000000001 L 44.84 74.85000000000001 L 54.17 65.52000000000001 L 76.95 65.52000000000001 C 77.24000000000001 66.28000000000002 77.96000000000001 66.82000000000001 78.83 66.82000000000001 C 79.92999999999999 66.82000000000001 80.84 65.92 80.84 64.81 C 80.84 63.7 79.93 62.800000000000004 78.83 62.800000000000004 C 77.97 62.800000000000004 77.24 63.34 76.95 64.10000000000001 L 53.6 64.10000000000001 L 42.85 74.84 L 40.480000000000004 74.84 L 35.790000000000006 70.16 L 44.940000000000005 61.01 L 67.4 61.01 L 72.72 55.69 L 92.83 55.69 C 92.99 56.3 93.53999999999999 56.76 94.2 56.76 C 94.98 56.76 95.61 56.12 95.61 55.339999999999996 C 95.61 54.559999999999995 94.98 53.93 94.2 53.93 C 93.54 53.93 92.98 54.38 92.83 54.99 L 72.41 54.99 L 67.11 60.300000000000004 L 45.66 60.300000000000004 L 50.739999999999995 55.230000000000004 L 62.169999999999995 55.230000000000004 C 62.169999999999995 56.010000000000005 62.809999999999995 56.64 63.589999999999996 56.64 C 64.36999999999999 56.64 65.00999999999999 56.01 65.00999999999999 55.230000000000004 C 65.00999999999999 54.45000000000001 64.36999999999999 53.81 63.58999999999999 53.81 C 63.069999999999986 53.81 62.60999999999999 54.1 62.36999999999999 54.52 L 50.42 54.52 L 44.64 60.31 L 37.49 60.31 L 28.150000000000002 50.980000000000004 L 37.400000000000006 50.980000000000004 C 37.56 51.59 38.11000000000001 52.040000000000006 38.77 52.040000000000006 C 39.550000000000004 52.040000000000006 40.17 51.410000000000004 40.17 50.620000000000005 C 40.17 50.36000000000001 40.1 50.120000000000005 39.980000000000004 49.92 L 49.31 40.58 L 62.660000000000004 40.58 C 62.77 41.25 63.36000000000001 41.769999999999996 64.06 41.769999999999996 C 64.84 41.769999999999996 65.48 41.129999999999995 65.48 40.349999999999994 C 65.48 39.57999999999999 64.84 38.94 64.06 38.94 C 63.45 38.94 62.92 39.339999999999996 62.730000000000004 39.879999999999995 L 49.03 39.879999999999995 L 39.480000000000004 49.419999999999995 C 39.27 49.3 39.040000000000006 49.21999999999999 38.78 49.21999999999999 C 38.120000000000005 49.21999999999999 37.57 49.67999999999999 37.410000000000004 50.279999999999994 L 27.450000000000003 50.279999999999994 L 20.42 43.25999999999999 C 20.55 43.04999999999999 20.62 42.79999999999999 20.62 42.53999999999999 C 20.62 41.75999999999999 19.98 41.129999999999995 19.200000000000003 41.129999999999995 C 18.540000000000003 41.129999999999995 17.980000000000004 41.58 17.830000000000002 42.19 L 4.5 42.19 L 4.5 42.9 L 17.82 42.9 C 17.98 43.51 18.53 43.96 19.19 43.96 C 19.450000000000003 43.96 19.700000000000003 43.88 19.91 43.76 L 26.44 50.28 L 4.5 50.28 L 4.5 50.99 L 27.15 50.99 L 37.2 61.02 L 43.93000000000001 61.02 L 35.290000000000006 69.66 L 27.53000000000001 61.91 L 8.92 61.91 L 4.5 66.33 L 4.5 68.33 L 9.5 63.33 L 26.95 63.33 L 34.28 70.67 L 19.46 85.49 L 4.5 85.49 L 4.5 86.89999999999999 L 18.05 86.89999999999999 L 14.74 90.21 L 4.5 90.21 L 4.5 90.91999999999999 L 15.03 90.91999999999999 L 19.05 86.9 z M 34.79 71.17 L 39.879999999999995 76.27 L 41.419999999999995 76.27 L 32.199999999999996 85.49 L 20.47 85.49 L 34.79 71.17 z" stroke-linecap="round" />
</g>
		<g transform="matrix(1 0 0 1 12.584999999999994 -0.7900000000000205)" id="Shape-1"  >
<linearGradient id="SVGID_35_487187" gradientUnits="userSpaceOnUse" gradientTransform="matrix(1 0 0 1 42.07999999999999 79.57)"  x1="0" y1="0" x2="0" y2="13">
<stop offset="0%" style="stop-color:rgb(250,217,97);stop-opacity: 1"/>
<stop offset="100%" style="stop-color:rgb(247,107,28);stop-opacity: 1"/>
</linearGradient>
<path style="stroke: none; stroke-width: 1; stroke-dasharray: none; stroke-linecap: butt; stroke-dashoffset: 0; stroke-linejoin: miter; stroke-miterlimit: 4; fill: url(#SVGID_35_487187); fill-rule: nonzero; opacity: 1;"  paint-order="stroke"  transform=" translate(-71.505, -86.25)" d="M 98.15 91.16 L 84.29 91.16 L 73.77 80.64 L 44.87 80.64 C 44.71 80.03 44.16 79.57000000000001 43.5 79.57000000000001 C 42.72 79.57000000000001 42.08 80.21000000000001 42.08 80.99000000000001 C 42.08 81.77000000000001 42.72 82.41000000000001 43.5 82.41000000000001 C 44.16 82.41000000000001 44.71 81.96000000000001 44.87 81.35000000000001 L 73.49 81.35000000000001 L 84 91.87 L 98.15 91.87 C 98.31 92.48 98.85000000000001 92.93 99.51 92.93 C 100.29 92.93 100.93 92.29 100.93 91.51 C 100.93 90.73 100.29 90.10000000000001 99.51 90.10000000000001 C 98.85 90.1 98.3 90.55 98.15 91.16 z" stroke-linecap="round" />
</g>
		<g transform="matrix(1 0 0 1 -40.370000000000005 -10.420000000000009)" id="Shape-1"  >
<linearGradient id="SVGID_36_487188" gradientUnits="userSpaceOnUse" gradientTransform="matrix(1 0 0 1 17.14 75.2)"  x1="0" y1="0" x2="0" y2="3">
<stop offset="0%" style="stop-color:rgb(250,217,97);stop-opacity: 1"/>
<stop offset="100%" style="stop-color:rgb(247,107,28);stop-opacity: 1"/>
</linearGradient>
<path style="stroke: none; stroke-width: 1; stroke-dasharray: none; stroke-linecap: butt; stroke-dashoffset: 0; stroke-linejoin: miter; stroke-miterlimit: 4; fill: url(#SVGID_36_487188); fill-rule: nonzero; opacity: 1;"  paint-order="stroke"  transform=" translate(-18.55, -76.62)" d="M 19.96 76.62 C 19.96 75.84 19.34 75.2 18.560000000000002 75.2 C 17.78 75.2 17.14 75.84 17.14 76.62 C 17.14 77.4 17.78 78.04 18.560000000000002 78.04 C 19.34 78.04 19.96 77.4 19.96 76.62 z" stroke-linecap="round" />
</g>
		<g transform="matrix(1 0 0 1 0 26.940000000000012)" id="Shape-1"  >
<linearGradient id="SVGID_37_487189" gradientUnits="userSpaceOnUse" gradientTransform="matrix(1 0 0 1 4.5 92.82000000000002)"  x1="0" y1="0" x2="0" y2="42">
<stop offset="0%" style="stop-color:rgb(250,217,97);stop-opacity: 1"/>
<stop offset="100%" style="stop-color:rgb(247,107,28);stop-opacity: 1"/>
</linearGradient>
<path style="stroke: none; stroke-width: 1; stroke-dasharray: none; stroke-linecap: butt; stroke-dashoffset: 0; stroke-linejoin: miter; stroke-miterlimit: 4; fill: url(#SVGID_37_487189); fill-rule: nonzero; opacity: 1;"  paint-order="stroke"  transform=" translate(-58.92, -113.98000000000002)" d="M 111.93 107.7 C 111.61000000000001 107.7 111.31 107.81 111.07000000000001 108 L 105.10000000000001 102.03 L 61.96 102.03 C 61.71 101.61 61.26 101.32000000000001 60.74 101.32000000000001 C 59.980000000000004 101.32000000000001 59.34 101.96000000000001 59.34 102.74000000000001 C 59.34 102.97000000000001 59.400000000000006 103.18 59.5 103.38000000000001 L 53.75 109.13000000000001 L 35.59 109.13000000000001 L 32.050000000000004 105.58000000000001 L 41.74 105.58000000000001 L 52.61 94.71000000000001 L 62.019999999999996 94.71000000000001 C 62.22 95.26 62.739999999999995 95.65 63.36 95.65 C 64.14 95.65 64.76 95.02000000000001 64.76 94.24000000000001 C 64.76 93.46000000000001 64.14 92.82000000000001 63.36000000000001 92.82000000000001 C 62.660000000000004 92.82000000000001 62.080000000000005 93.33000000000001 61.96000000000001 94.01 L 52.32000000000001 94.01 L 41.45000000000001 104.88000000000001 L 31.34 104.88000000000001 L 22.96 96.49000000000001 C 23.080000000000002 96.28000000000002 23.150000000000002 96.05000000000001 23.150000000000002 95.79 C 23.150000000000002 95.01 22.51 94.38000000000001 21.730000000000004 94.38000000000001 C 21.080000000000005 94.38000000000001 20.540000000000003 94.82000000000001 20.380000000000003 95.42000000000002 L 4.5 95.42000000000002 L 4.5 96.13000000000001 L 20.369999999999997 96.13000000000001 C 20.519999999999996 96.75000000000001 21.06 97.21000000000001 21.729999999999997 97.21000000000001 C 21.999999999999996 97.21000000000001 22.249999999999996 97.13000000000001 22.459999999999997 97.00000000000001 L 30.33 104.87000000000002 L 15.14 104.87000000000002 C 15 104.23000000000002 14.43 103.75000000000001 13.77 103.75000000000001 C 12.99 103.75000000000001 12.35 104.39000000000001 12.35 105.17000000000002 C 12.35 105.49000000000001 12.459999999999999 105.78000000000002 12.639999999999999 106.02000000000001 L 4.499999999999998 114.16000000000001 L 4.499999999999998 115.16000000000001 L 13.189999999999998 106.47000000000001 C 13.369999999999997 106.55000000000001 13.559999999999997 106.59000000000002 13.769999999999998 106.59000000000002 C 14.389999999999997 106.59000000000002 14.929999999999998 106.16000000000001 15.099999999999998 105.58000000000001 L 31.04 105.58000000000001 L 35.3 109.84000000000002 L 53.03 109.84000000000002 L 28.450000000000003 134.43 L 4.5 134.43 L 4.5 135.14000000000001 L 28.75 135.14000000000001 L 54.04 109.84000000000002 L 71.25 109.84000000000002 C 71.45 110.39000000000001 71.97 110.78000000000002 72.59 110.78000000000002 C 73.37 110.78000000000002 73.99000000000001 110.15000000000002 73.99000000000001 109.37000000000002 C 73.99000000000001 108.59000000000002 73.37 107.95000000000002 72.59 107.95000000000002 C 71.89 107.95000000000002 71.31 108.47000000000001 71.19 109.14000000000001 L 54.75 109.14000000000001 L 59.96 103.93000000000002 C 60.18 104.08000000000003 60.45 104.17000000000002 60.74 104.17000000000002 C 61.52 104.17000000000002 62.160000000000004 103.54000000000002 62.160000000000004 102.76000000000002 L 104.81 102.76000000000002 L 110.62 108.57000000000002 C 110.54 108.74000000000002 110.5 108.94000000000003 110.5 109.14000000000001 C 110.5 109.92000000000002 111.14 110.55000000000001 111.92 110.55000000000001 C 112.7 110.55000000000001 113.34 109.92000000000002 113.34 109.14000000000001 C 113.34 108.36000000000001 112.71 107.7 111.93 107.7 z" stroke-linecap="round" />
</g>
		<g transform="matrix(1 0 0 1 -35.67 -30.925000000000015)" id="Shape-1"  >
<linearGradient id="SVGID_38_487190" gradientUnits="userSpaceOnUse" gradientTransform="matrix(1 0 0 1 21.240000000000002 54.11)"  x1="0" y1="0" x2="0" y2="4">
<stop offset="0%" style="stop-color:rgb(250,217,97);stop-opacity: 1"/>
<stop offset="100%" style="stop-color:rgb(247,107,28);stop-opacity: 1"/>
</linearGradient>
<path style="stroke: none; stroke-width: 1; stroke-dasharray: none; stroke-linecap: butt; stroke-dashoffset: 0; stroke-linejoin: miter; stroke-miterlimit: 4; fill: url(#SVGID_38_487190); fill-rule: nonzero; opacity: 1;"  paint-order="stroke"  transform=" translate(-23.25, -56.114999999999995)" d="M 25.26 56.11 C 25.26 55.01 24.35 54.11 23.240000000000002 54.11 C 22.150000000000002 54.11 21.240000000000002 55.01 21.240000000000002 56.11 C 21.240000000000002 57.22 22.150000000000002 58.12 23.240000000000002 58.12 C 24.35 58.12 25.26 57.22 25.26 56.11 z" stroke-linecap="round" />
</g>
</g>
</g>
</svg>