<?xml version="1.0" encoding="UTF-8" standalone="no" ?>
<!DOCTYPE svg PUBLIC "-//W3C//DTD SVG 1.1//EN" "http://www.w3.org/Graphics/SVG/1.1/DTD/svg11.dtd">
<svg xmlns="http://www.w3.org/2000/svg" xmlns:xlink="http://www.w3.org/1999/xlink" version="1.1" width="1280" height="1024" viewBox="0 0 1280 1024" xml:space="preserve">
<desc>Created with Fabric.js 5.3.0</desc>
<defs>
</defs>
<g transform="matrix(1 0 0 1 640 512)" id="background-logo"  >
<rect style="stroke: none; stroke-width: 0; stroke-dasharray: none; stroke-linecap: butt; stroke-dashoffset: 0; stroke-linejoin: miter; stroke-miterlimit: 4; fill: rgb(25,44,59); fill-opacity: 0; fill-rule: nonzero; opacity: 1;"  paint-order="stroke"  x="-640" y="-512" rx="0" ry="0" width="1280" height="1024" />
</g>
<g transform="matrix(3.7173361233680575 0 0 3.7173361233680575 640.2808704453442 555.6466507144032)" id="shape-68b36b6c-1e18-456a-9d3f-8de91959ed0f"  >
<g style=""  paint-order="stroke"   >
		<g transform="matrix(1 0 0 1 0 0)" id="Layer_1"  >
<linearGradient id="SVGID_2_258913" gradientUnits="userSpaceOnUse" gradientTransform="matrix(1 0 0 1 0 0)"  x1="0" y1="0" x2="0" y2="200">
<stop offset="0%" style="stop-color:rgb(250,217,97);stop-opacity: 1"/>
<stop offset="100%" style="stop-color:rgb(247,107,28);stop-opacity: 1"/>
</linearGradient>
<path style="stroke: none; stroke-width: 1; stroke-dasharray: none; stroke-linecap: butt; stroke-dashoffset: 0; stroke-linejoin: miter; stroke-miterlimit: 4; fill: url(#SVGID_2_258913); fill-rule: nonzero; opacity: 1;"  paint-order="stroke"  transform=" translate(-100, -100)" d="M 200 100 C 200 155.22847498307934 155.22847498307934 200 100 200 C 44.771525016920656 200 0 155.22847498307934 0 100 C 0 44.771525016920656 44.771525016920656 0 100 0 C 155.22847498307934 0 200 44.77152501692063 200 99.99999999999997 Z" stroke-linecap="round" />
</g>
</g>
</g>
<g transform="matrix(2.8836125224973377 0 0 2.8836125224973377 652.2414655210129 544.1437110644717)" id="shape-269c8dc3-7090-4569-892f-bfd26a0b670e"  >
<g style=""  paint-order="stroke"   >
		<g transform="matrix(1 0 0 1 -12.875560224241767 -15.105066815695977)" id="Path-05"  >
<linearGradient id="SVGID_258916" gradientUnits="userSpaceOnUse" gradientTransform="matrix(1 0 0 1 22.632301425191827 25.378047611837346)"  x1="0" y1="0" x2="0" y2="159">
<stop offset="0%" style="stop-color:rgb(91,36,122);stop-opacity: 1"/>
<stop offset="100%" style="stop-color:rgb(27,206,223);stop-opacity: 1"/>
</linearGradient>
<path style="stroke: none; stroke-width: 1; stroke-dasharray: none; stroke-linecap: butt; stroke-dashoffset: 0; stroke-linejoin: miter; stroke-miterlimit: 4; fill: url(#SVGID_258916); fill-rule: nonzero; opacity: 1;"  paint-order="stroke"  transform=" translate(-112.12444571259591, -105.11198380591867)" d="M 201.61659 44.78676 C 200.47957 44.26101 199.29361 43.808640000000004 198.07091 43.41736 C 173.1404 35.457640000000005 130.90866 51.095890000000004 93.39632 84.37745000000001 C 64.85894 109.71162000000001 45.760380000000005 139.31288 40.05053 163.68111 C 40.03829 163.70557 40.03829 163.73004 40.03829 163.75454 C 38.25321 171.39636 37.78844 178.52456999999998 38.742160000000005 184.84591999999998 C 35.294090000000004 183.14637999999997 32.298550000000006 180.87218 29.840940000000003 178.02328999999997 C 22.443910000000002 169.46446999999998 20.940020000000004 156.90742999999998 24.412280000000003 142.44297999999998 C 24.412280000000003 142.41857999999996 24.412280000000003 142.39408999999998 24.42451 142.36962999999997 C 32.8487 118.01366999999998 51.238020000000006 91.50577999999997 77.416 68.89824999999998 C 112.44593 38.64892999999998 152.34217 23.194099999999978 182.04136 25.627249999999975 C 187.66584 27.375679999999974 192.40974 30.310169999999975 196.01692 34.479509999999976 C 198.58434 37.46286 200.44287 40.9231 201.61659 44.78676 z" stroke-linecap="round" />
</g>
		<g transform="matrix(1 0 0 1 0 0)" id="Path-04"  >
<path style="stroke: none; stroke-width: 1; stroke-dasharray: none; stroke-linecap: butt; stroke-dashoffset: 0; stroke-linejoin: miter; stroke-miterlimit: 4; fill: rgb(51,162,213); fill-rule: nonzero; opacity: 1;"  paint-order="stroke"  transform=" translate(-125.00000593683768, -120.21705062161465)" d="M 249.65375 159.73744 C 249.87474 160.322 249.9912 160.91885 249.99889 161.51591 C 250.04334 163.65339 248.75608 165.69448 246.63251 166.49732 L 54.43708 240.08659 C 52.020070000000004 241.01402 49.34098 240.02256 48.0722 237.85702 C 47.91324 237.61711 47.78564 237.35177000000002 47.677400000000006 237.06546 L 47.435340000000004 184.12987 L 47.17691000000001 183.51851000000002 L 0.76552 73.34459 C -1.36918 68.2749 1.1199599999999998 62.452439999999996 6.25281 60.4846 L 162.57816 0.64741 C 167.71103 -1.32043 173.43993 1.35423 175.24056 6.5502199999999995 L 214.49154 120.18114 L 214.54249 120.24369 L 249.65375 159.73744 z" stroke-linecap="round" />
</g>
		<g transform="matrix(1 0 0 1 -0.31149739130486864 -0.6081722664465303)" id="Path-03"  >
<linearGradient id="SVGID_Path-03_00000001640372356905913330000010730056621279444649__7_258917" gradientUnits="userSpaceOnUse" gradientTransform="matrix(0.93538 -0.35363 0.35363 0.93538 3.46916 78.18653)"  x1="143.79691" y1="120.96447" x2="5.69035" y2="15.75272">
<stop offset="0%" style="stop-color:rgb(255,255,255);stop-opacity: 1"/>
<stop offset="100%" style="stop-color:rgb(255,255,255);stop-opacity: 0"/>
</linearGradient>
<path style="stroke: none; stroke-width: 1; stroke-dasharray: none; stroke-linecap: butt; stroke-dashoffset: 0; stroke-linejoin: miter; stroke-miterlimit: 4; fill: url(#SVGID_Path-03_00000001640372356905913330000010730056621279444649__7_258917); fill-rule: nonzero; opacity: 1;"  paint-order="stroke"  transform=" translate(-124.68850854553281, -119.60887835516812)" d="M 186.66705 44.93862 C 152.31569 72.3981 99.11555 114.91404 60.14951 145.95508 C 53.35501 151.36478 47.00465 156.42661 41.2496 160.99916000000002 L 3.93497 73.04088 C 2.3888999999999996 69.39237 4.1803099999999995 65.18225 7.88073 63.76323 L 164.86763 3.65596 C 168.58080999999999 2.23684 172.71559 4.18171 173.99498 7.934279999999999 L 186.66705 44.93862 z M 243.22925 163.71844 L 55.14538 235.73964 C 52.32237000000001 236.82057 49.27606 234.71344000000002 49.255750000000006 231.66686 L 48.875710000000005 185.11017 L 48.61728000000001 184.49881000000002 L 214.15756 121.91408000000001 L 244.88977 156.75029 C 246.91425 159.03918 246.05229 162.63751 243.22925 163.71844 z M 51.461 190.0368 L 216.03488 127.81742 L 212.38076999999998 123.41753 L 51.29034 184.31996 L 51.461 190.0368 z M 51.66872 196.78941 L 220.34644 133.01852 L 216.99353 128.98212999999998 L 51.51295 191.54428 L 51.66872 196.78941 z M 51.87646 203.5421 L 224.65803 138.21968 L 221.30509 134.18321 L 51.72037 198.29701 L 51.87646 203.5421 z M 167.81786 185.37024 L 161.4609 177.24727 C 160.61449000000002 176.16280999999998 159.16549 175.75615 157.87724 176.24319999999997 L 127.10981 187.87524999999997 C 125.82128 188.36238999999998 124.99177 189.63047999999998 125.07451999999999 191.00366999999997 L 125.68141999999999 201.30050999999997 C 125.74560999999999 202.40797999999998 126.86847999999999 203.14240999999998 127.91844999999999 202.74545999999998 L 167.09629 187.93373999999997 C 168.14627 187.53677 168.50241 186.24318 167.81786 185.37024 z M 229.92372 144.57362 L 225.61665 139.3844 L 51.92811 205.0497 L 52.13133 211.79044 L 229.92372 144.57362 z" stroke-linecap="round" />
</g>
		<g transform="matrix(1 0 0 1 -1.289339370341139 -0.20374780986861651)" id="Path-02"  >
<linearGradient id="SVGID_258918" gradientUnits="userSpaceOnUse" gradientTransform="matrix(1 0 0 1 16.87384256396784 22.80953999999997)"  x1="0" y1="0" x2="0" y2="194">
<stop offset="0%" style="stop-color:rgb(23,234,217);stop-opacity: 1"/>
<stop offset="100%" style="stop-color:rgb(96,120,234);stop-opacity: 1"/>
</linearGradient>
<path style="stroke: none; stroke-width: 1; stroke-dasharray: none; stroke-linecap: butt; stroke-dashoffset: 0; stroke-linejoin: miter; stroke-miterlimit: 4; fill: url(#SVGID_258918); fill-rule: nonzero; opacity: 1;"  paint-order="stroke"  transform=" translate(-123.71066656649654, -120.01330281174603)" d="M 224.08299 102.95629 L 228.85300999999998 109.70317999999999 L 220.21846 112.21569999999998 L 201.96759 117.52142999999998 L 200.23289 84.33526999999998 L 199.39123 68.07379999999998 L 203.90623 74.45083999999997 C 209.25011999999998 57.15629999999997 208.2808 42.00442999999997 199.68455 32.04348999999997 C 195.92185 27.69437999999997 190.97341 24.63335999999997 185.10641 22.80953999999997 C 199.46752 23.99565999999997 211.53315 29.17381999999997 219.74671 38.68839999999997 C 232.93425 53.96778 233.63579 77.47356 224.08299 102.95629 z M 189.60864 152.25082 L 184.54571 167.00857 C 183.89833000000002 169.43067 182.54803 171.60678 180.66520000000003 173.26226 L 165.42408000000003 186.663 C 163.27973000000003 188.54842000000002 160.56220000000002 189.65558000000001 157.71079000000003 189.80553 L 145.86458000000005 190.42853 C 97.57746 223.028 45.53691 224.0509 30.86948 203.32434 C 19.66509 187.49141 12.04804 169.63348000000002 20.44033 145.31142 C 16.818369999999998 160.39954 15.82392 170.35361 23.53991 179.28148 C 40.7707 199.22889999999998 83.10177999999999 191.90797999999998 124.74377000000001 164.04030999999998 L 126.43211000000001 145.27893999999998 C 126.72467 142.02795999999998 128.25863 139.01469999999998 130.71521 136.86538 L 146.77794 122.81161999999999 C 149.44089 120.48172 152.95564 119.36936999999999 156.4742 119.74291 L 165.71903 120.72439 C 169.87781 121.16592 173.55932 123.60939 175.58141 127.2702 L 175.58141 127.27022000000001 L 149.30817000000002 147.60024 L 150.13706000000002 167.52213 L 164.3453 170.64690000000002 L 186.80508 149.75570000000002 L 186.80508 149.75570000000002 L 189.60864 152.25082 z" stroke-linecap="round" />
</g>
		<g transform="matrix(1 0 0 1 -22.068560149876348 51.89615931765499)" id="Path-01"  >
<linearGradient id="SVGID_258919" gradientUnits="userSpaceOnUse" gradientTransform="matrix(1 0 0 1 15.302536948672298 122.16702880685304)"  x1="0" y1="0" x2="0" y2="100">
<stop offset="0%" style="stop-color:rgb(101,121,155);stop-opacity: 1"/>
<stop offset="100%" style="stop-color:rgb(94,37,99);stop-opacity: 1"/>
</linearGradient>
<path style="stroke: none; stroke-width: 1; stroke-dasharray: none; stroke-linecap: butt; stroke-dashoffset: 0; stroke-linejoin: miter; stroke-miterlimit: 4; fill: url(#SVGID_258919); fill-rule: nonzero; opacity: 1;"  paint-order="stroke"  transform=" translate(-102.93144578696133, -172.11320993926964)" d="M 190.25246 158.64186 L 187.34934 169.50368 C 186.70196 171.92578 185.35166 174.10189 183.46883000000003 175.75737 L 168.22771000000003 189.15811000000002 C 166.08336000000003 191.04353000000003 163.36583000000002 192.15069000000003 160.51442000000003 192.30064000000002 L 148.66820000000004 192.92364 C 100.38108000000004 225.5231 48.68870000000004 232.06594 26.11402000000004 205.93283 C 13.436520000000039 191.25285 12.28847000000004 168.98417999999998 20.68076000000004 144.66212 C 17.058800000000037 159.75021999999998 18.62753000000004 172.84869999999998 26.343510000000038 181.77658 C 43.57430000000004 201.724 85.90537000000003 194.40308 127.54734000000003 166.53540999999998 L 129.23567000000003 147.77403999999999 C 129.52823000000004 144.52304999999998 131.06219000000002 141.50979999999998 133.51877000000002 139.36045 L 149.58153000000001 125.30669999999998 C 152.24448 122.97679999999998 155.75922000000003 121.86445999999998 159.27776 122.23799999999997 L 168.52259 123.21950999999997 C 172.68137000000002 123.66101999999997 176.36291 126.10450999999998 178.38499000000002 129.76531999999997 L 178.38499000000002 129.76533999999998 L 152.11175000000003 150.09536999999997 L 152.94064000000003 170.01725 L 167.14888000000002 173.14202 L 189.60866000000001 152.25082 L 189.60866000000001 152.25082 C 190.59485 154.23154 190.82378 156.50423 190.25246 158.64186 z" stroke-linecap="round" />
</g>
</g>
</g>
</svg>