<?xml version="1.0" encoding="UTF-8" standalone="no" ?>
<!DOCTYPE svg PUBLIC "-//W3C//DTD SVG 1.1//EN" "http://www.w3.org/Graphics/SVG/1.1/DTD/svg11.dtd">
<svg xmlns="http://www.w3.org/2000/svg" xmlns:xlink="http://www.w3.org/1999/xlink" version="1.1" width="1280" height="1024" viewBox="0 0 1280 1024" xml:space="preserve">
<desc>Created with Fabric.js 5.3.0</desc>
<defs>
</defs>
<g transform="matrix(1 0 0 1 640 512)" id="background-logo"  >
<rect style="stroke: none; stroke-width: 0; stroke-dasharray: none; stroke-linecap: butt; stroke-dashoffset: 0; stroke-linejoin: miter; stroke-miterlimit: 4; fill: rgb(25,44,59); fill-opacity: 0; fill-rule: nonzero; opacity: 1;"  paint-order="stroke"  x="-640" y="-512" rx="0" ry="0" width="1280" height="1024" />
</g>
<g transform="matrix(3.7173361233680575 0 0 3.7173361233680575 640.2808704453442 555.6466507144032)" id="shape-68b36b6c-1e18-456a-9d3f-8de91959ed0f"  >
<g style=""  paint-order="stroke"   >
		<g transform="matrix(1 0 0 1 0 0)" id="Layer_1"  >
<linearGradient id="SVGID_2_72927" gradientUnits="userSpaceOnUse" gradientTransform="matrix(1 0 0 1 0 0)"  x1="0" y1="0" x2="0" y2="200">
<stop offset="0%" style="stop-color:rgb(250,217,97);stop-opacity: 1"/>
<stop offset="100%" style="stop-color:rgb(247,107,28);stop-opacity: 1"/>
</linearGradient>
<path style="stroke: none; stroke-width: 1; stroke-dasharray: none; stroke-linecap: butt; stroke-dashoffset: 0; stroke-linejoin: miter; stroke-miterlimit: 4; fill: url(#SVGID_2_72927); fill-rule: nonzero; opacity: 1;"  paint-order="stroke"  transform=" translate(-100, -100)" d="M 200 100 C 200 155.22847498307934 155.22847498307934 200 100 200 C 44.771525016920656 200 0 155.22847498307934 0 100 C 0 44.771525016920656 44.771525016920656 0 100 0 C 155.22847498307934 0 200 44.77152501692063 200 99.99999999999997 Z" stroke-linecap="round" />
</g>
</g>
</g>
<g transform="matrix(2.398380292355133 0 0 2.398380292355133 666.2297227792094 475.2329901685533)" id="shape-280228ef-3aaa-4013-81a4-93dc2e1a6ed8"  >
<g style=""  paint-order="stroke"   >
		<g transform="matrix(1 0 0 1 35.86062 79.30922935365474)" id="path-08_00000076597643905934930990000002121526131695197828_"  >
<path style="stroke: none; stroke-width: 1; stroke-dasharray: none; stroke-linecap: butt; stroke-dashoffset: 0; stroke-linejoin: miter; stroke-miterlimit: 4; fill: rgb(84,84,85); fill-rule: nonzero; opacity: 1;"  paint-order="stroke"  transform=" translate(-577.3712733713643, -476.30922435365477)" d="M 491.76477 454.70801 C 491.98471 454.4335 492.31744 454.27374 492.66919 454.27374 L 574.35455 454.27374 C 574.73999 454.27374 575.10022 454.46536 575.31561 454.78497 L 578.02771 458.44329999999997 L 578.02771 461.99694999999997 C 578.02771 462.63703 577.5088499999999 463.15588999999994 576.8687699999999 463.15588999999994 L 489.39082999999994 463.15588999999994 C 488.7507499999999 463.15588999999994 488.23188999999996 462.6370299999999 488.23188999999996 461.99694999999997 L 488.23188999999996 458.44329999999997 L 491.76477 454.70801 z M 633.40631 475.74203 C 633.39099 476.0621 633.46551 476.37194 633.61475 476.65548 C 634.19867 477.76516000000004 635.8146399999999 481.02258 637.17383 485.49984 C 638.86646 491.07546 640.7581799999999 498.44329 652.80554 498.34371 C 664.8528399999999 498.24413 667.44153 493.8633 666.24682 485.59947999999997 C 665.74816 482.15038 665.0902 478.51739 663.41882 475.38991999999996 C 661.50549 471.80965999999995 658.65667 470.32379 654.7142299999999 470.00328999999994 C 649.7824699999999 469.6023799999999 644.80932 468.98567999999995 639.8941 469.89464999999996 C 638.30639 470.18825999999996 636.36645 470.43184999999994 635.06952 471.49327999999997 C 633.81348 472.5213 633.48102 474.18463 633.40631 475.74203 z" stroke-linecap="round" />
</g>
		<g transform="matrix(1 0 0 1 -8.810538371353275 -38.494160000000036)" id="path-07_00000085238167700928136380000017980600939495695543_"  >
<linearGradient id="SVGID_72939" gradientUnits="userSpaceOnUse" gradientTransform="matrix(1 0 0 1 416.51065 286.08207)"  x1="0" y1="0" x2="0" y2="145">
<stop offset="0%" style="stop-color:rgb(91,36,122);stop-opacity: 1"/>
<stop offset="100%" style="stop-color:rgb(27,206,223);stop-opacity: 1"/>
</linearGradient>
<path style="stroke: none; stroke-width: 1; stroke-dasharray: none; stroke-linecap: butt; stroke-dashoffset: 0; stroke-linejoin: miter; stroke-miterlimit: 4; fill: url(#SVGID_72939); fill-rule: nonzero; opacity: 1;"  paint-order="stroke"  transform=" translate(-532.700115000011, -358.505835)" d="M 641.29803 430.9296 L 424.1022300000001 430.9296 C 419.90951000000007 430.9296 416.51065000000006 427.53074 416.51065000000006 423.33802 L 416.51065000000006 293.67365 C 416.51065000000006 289.48093 419.90951000000007 286.08207 424.1022300000001 286.08207 L 641.29803 286.08207 C 645.49072 286.08207 648.88958 289.48093 648.88958 293.67365 L 648.88958 423.33802000000003 C 648.88959 427.53073 645.49072 430.9296 641.29803 430.9296 z" stroke-linecap="round" />
</g>
		<g transform="matrix(1 0 0 1 8.08928986298072 78.26970499999997)" id="path-06_00000025410138932074763070000008758447962133217433_"  >
<path style="stroke: none; stroke-width: 1; stroke-dasharray: none; stroke-linecap: butt; stroke-dashoffset: 0; stroke-linejoin: miter; stroke-miterlimit: 4; fill: rgb(115,115,115); fill-rule: nonzero; opacity: 1;"  paint-order="stroke"  transform=" translate(-549.599943234345, -475.2697)" d="M 576.86926 459.57956 L 489.39035000000007 459.57956 C 488.5982400000001 459.57956 488.0395500000001 458.80258000000003 488.29172000000005 458.05167 L 493.2085900000001 443.41062 C 493.36710000000005 442.93864 493.80933000000005 442.62064 494.3072200000001 442.62064 L 572.1160900000001 442.62064 C 572.6182900000001 442.62064 573.0633600000001 442.94406999999995 573.2183800000001 443.42172999999997 L 577.9715500000001 458.06275 C 578.21466 458.81152 577.65649 459.57956 576.86926 459.57956 z M 632.23645 505.84543 L 617.4071 468.55536 C 617.17791 467.9791 616.62048 467.60089 616.0003 467.60089 L 449.39993 467.60089 C 448.77975 467.60089 448.22231999999997 467.97909 447.99316 468.55536 L 433.16381 505.84543 C 432.76852 506.83945 433.50082000000003 507.91876 434.57058 507.91876 L 630.82964 507.91876 C 631.89941 507.91876 632.63171 506.83945 632.23645 505.84543 z M 663.4151 475.39719 C 661.50635 471.81128 658.65173 470.33051 654.70911 470.0094 C 649.78516 469.59909000000005 644.80768 468.99249000000003 639.90161 469.90234000000004 C 638.31402 470.18774 636.36926 470.43753000000004 635.06695 471.49014000000005 C 634.42474 472.00747000000007 634.03228 472.70327000000003 633.7825300000001 473.45254000000006 C 636.1018700000001 475.20083000000005 637.31488 477.69851000000006 638.2783200000001 480.35668000000004 C 640.1694900000001 485.56600000000003 643.2558000000001 490.29372000000006 648.5007300000001 492.52373000000006 C 655.2265000000001 495.37813000000006 665.62732 493.64769000000007 666.14471 484.85247000000004 C 665.64514 481.64127 664.96722 478.28729 663.4151 475.39719 z" stroke-linecap="round" />
</g>
		<g transform="matrix(1 0 0 1 -8.810351588669434 68.87736999999997)" id="path-05_00000062176379190476577030000006837664453479191223_"  >
<path style="stroke: none; stroke-width: 1; stroke-dasharray: none; stroke-linecap: butt; stroke-dashoffset: 0; stroke-linejoin: miter; stroke-miterlimit: 4; fill: rgb(84,84,85); fill-rule: nonzero; opacity: 1;"  paint-order="stroke"  transform=" translate(-532.7003017826949, -465.877365)" d="M 546.66846 428.87985 L 546.66846 447.82048999999995 C 546.66846 448.53282999999993 546.09101 449.11031999999994 545.3786699999999 449.11031999999994 L 520.0307 449.11031999999994 C 519.31836 449.11031999999994 518.74091 448.53283999999996 518.74091 447.82048999999995 L 518.74091 428.87985 L 546.66846 428.87985 z M 625.74744 501.66403 L 613.90912 470.79382000000004 C 613.7766700000001 470.44885000000005 613.44568 470.22064000000006 613.0763000000001 470.22064000000006 L 452.32428 470.22064000000006 C 451.95493 470.22064000000006 451.62393 470.44885000000005 451.49152 470.79382000000004 L 439.65319999999997 501.66403 C 439.54864999999995 501.93756 439.58523999999994 502.24594 439.75075999999996 502.48810000000003 C 439.91799999999995 502.73029 440.19152999999994 502.87488 440.48596 502.87488 L 624.91461 502.87488 C 625.2090400000001 502.87488 625.4826 502.73029 625.64984 502.48810000000003 C 625.81537 502.24594 625.85193 501.93756 625.74744 501.66403 z" stroke-linecap="round" />
</g>
		<g transform="matrix(1 0 0 1 -8.810348371364327 89.54774999999994)" id="path-04_00000040551689290278788050000018231390656682729856_"  >
<path style="stroke: none; stroke-width: 1; stroke-dasharray: none; stroke-linecap: butt; stroke-dashoffset: 0; stroke-linejoin: miter; stroke-miterlimit: 4; fill: rgb(216,225,249); fill-rule: nonzero; opacity: 1;"  paint-order="stroke"  transform=" translate(-532.700305, -486.54774499999996)" d="M 617.29205 484.59735 L 608.49432 484.59735 L 606.6007 478.95431 L 615.12798 478.95431 L 617.29205 484.59735 z M 606.61383 484.59735 L 597.7888800000001 484.59735 L 596.1655300000001 478.95431 L 604.7202200000002 478.95431 L 606.61383 484.59735 z M 574.56628 484.59735 L 565.68206 484.59735 L 564.8706599999999 478.95431 L 573.48412 478.95431 L 574.56628 484.59735 z M 575.30084 478.95432 L 583.89691 478.95432 L 585.2497500000001 484.59736 L 576.3831700000001 484.59736 L 575.30084 478.95432 z M 563.87891 484.59735 L 554.98383 484.59735 L 554.44263 478.95431 L 563.06745 478.95431 L 563.87891 484.59735 z M 553.19043 484.59735 L 544.28601 484.59735 L 544.0153200000001 478.95431 L 552.6492900000001 478.95431 L 553.19043 484.59735 z M 542.50134 484.59735 L 533.5932 484.59735 L 533.5932 478.95431 L 542.23065 478.95431 L 542.50134 484.59735 z M 531.80914 484.59735 L 522.89929 484.59735 L 523.1699799999999 478.95431 L 531.8091399999998 478.95431 L 531.8091399999998 484.59735 z M 521.11462 484.59735 L 512.2101399999999 484.59735 L 512.7513399999999 478.95431 L 521.3853099999999 478.95431 L 521.11462 484.59735 z M 510.41678 484.59735 L 501.5217 484.59735 L 502.33313 478.95431 L 510.95795 478.95431 L 510.41678 484.59735 z M 499.71851 484.59735 L 490.835 484.59735 L 491.91691 478.95431 L 500.52995 478.95431 L 499.71851 484.59735 z M 489.01828 484.59735 L 480.15088000000003 484.59735 L 481.50369 478.95431 L 490.10019 478.95431 L 489.01828 484.59735 z M 478.3161 484.59735 L 469.46829 484.59735 L 471.09158 478.95431 L 479.66894 478.95431 L 478.3161 484.59735 z M 477.8884 486.38138 L 476.40903 492.55228 L 467.18012 492.55228 L 468.95499 486.38138 L 477.8884 486.38138 z M 479.72318 486.38138 L 488.67618 486.38138 L 487.4932 492.55228 L 478.2436 492.55228 L 479.72318 486.38138 z M 490.49307 486.38138 L 499.46197 486.38138 L 498.57452 492.55228 L 489.31012 492.55228 L 490.49307 486.38138 z M 501.26517 486.38138 L 510.24582000000004 486.38138 L 509.6539 492.55228 L 500.37772 492.55228 L 501.26517 486.38138 z M 512.03918 486.38138 L 521.02899 486.38138 L 520.73303 492.55228 L 511.44750999999997 492.55228 L 512.03918 486.38138 z M 522.81372 486.38138 L 531.80914 486.38138 L 531.80914 492.55228 L 522.51776 492.55228 L 522.81372 486.38138 z M 533.5932 486.38138 L 542.58691 486.38138 L 542.88287 492.55228 L 533.5932 492.55228 L 533.5932 486.38138 z M 544.37158 486.38138 L 553.36139 486.38138 L 553.95306 492.55228 L 544.66754 492.55228 L 544.37158 486.38138 z M 555.15479 486.38138 L 564.13544 486.38138 L 565.02289 492.55228 L 555.74671 492.55228 L 555.15479 486.38138 z M 565.93866 486.38138 L 574.90839 486.38138 L 576.0918 492.55228 L 566.82605 492.55228 L 565.93866 486.38138 z M 576.72528 486.38138 L 585.67743 486.38138 L 587.15698 492.55228 L 577.90869 492.55228 L 576.72528 486.38138 z M 587.51221 486.38138 L 596.44562 486.38138 L 598.22046 492.55228 L 588.99158 492.55228 L 587.51221 486.38138 z M 587.08447 484.59735 L 585.73169 478.95431 L 594.3090199999999 478.95431 L 595.9323099999999 484.59735 L 587.08447 484.59735 z M 595.65247 477.17032 L 594.16657 472.00464 L 602.38807 472.00464 L 604.12135 477.17032 L 595.65247 477.17032 z M 593.79572 477.17032 L 585.30396 477.17032 L 584.06543 472.00464 L 592.31006 472.00464 L 593.79572 477.17032 z M 583.46918 477.17032 L 574.95893 477.17032 L 573.96827 472.00464 L 582.2308999999999 472.00464 L 583.46918 477.17032 z M 573.14203 477.17032 L 564.61414 477.17032 L 563.8712800000001 472.00464 L 572.15137 472.00464 L 573.14203 477.17032 z M 562.81091 477.17032 L 554.27148 477.17032 L 553.77624 472.00464 L 562.06811 472.00464 L 562.81091 477.17032 z M 552.47833 477.17032 L 543.92975 477.17032 L 543.6818900000001 472.00464 L 551.9828500000001 472.00464 L 552.47833 477.17032 z M 542.14502 477.17032 L 533.5932 477.17032 L 533.5932 472.00464 L 541.8972200000001 472.00464 L 542.14502 477.17032 z M 531.80914 477.17032 L 523.25555 477.17032 L 523.5034099999999 472.00464 L 531.80914 472.00464 L 531.80914 477.17032 z M 521.47089 477.17032 L 512.92231 477.17032 L 513.41773 472.00464 L 521.71869 472.00464 L 521.47089 477.17032 z M 511.12912 477.17032 L 502.58966 477.17032 L 503.33252 472.00464 L 511.62433 472.00464 L 511.12912 477.17032 z M 500.7865 477.17032 L 492.25879 477.17032 L 493.24924 472.00464 L 501.52932999999996 472.00464 L 500.7865 477.17032 z M 490.44211 477.17032 L 481.93143000000003 477.17032 L 483.16968 472.00464 L 491.43256 472.00464 L 490.44211 477.17032 z M 480.09665 477.17032 L 471.60489 477.17032 L 473.09058 472.00464 L 481.33515 472.00464 L 480.09665 477.17032 z M 469.74814 477.17032 L 461.27923999999996 477.17032 L 463.01255 472.00464 L 471.23402 472.00464 L 469.74814 477.17032 z M 469.23505 478.95432 L 467.61176 484.59736 L 458.78681 484.59736 L 460.68036 478.95432 L 469.23505 478.95432 z M 456.90631 484.59735 L 448.10858 484.59735 L 450.27261000000004 478.95431 L 458.79986 478.95431 L 456.90631 484.59735 z M 456.30765 486.38138 L 454.23679000000004 492.55228 L 445.05817 492.55228 L 447.42453 486.38138 L 456.30765 486.38138 z M 458.18814 486.38138 L 467.09844999999996 486.38138 L 465.32336 492.55228 L 456.11731 492.55228 L 458.18814 486.38138 z M 464.81027 494.3363 L 462.86728 501.09085 L 453.25202 501.09085 L 455.51862 494.3363 L 464.81027 494.3363 z M 466.66681 494.3363 L 475.98132 494.3363 L 474.36194 501.09085 L 464.72382 501.09085 L 466.66681 494.3363 z M 477.81589 494.3363 L 487.15106000000003 494.3363 L 485.85617 501.09085 L 476.1965 501.09085 L 477.81589 494.3363 z M 488.96777 494.3363 L 498.31798999999995 494.3363 L 497.34671 501.09085 L 487.67287999999996 501.09085 L 488.96777 494.3363 z M 500.12119 494.3363 L 509.48295 494.3363 L 508.83531 501.09085 L 499.14992 501.09085 L 500.12119 494.3363 z M 511.27634 494.3363 L 520.64746 494.3363 L 520.32342 501.09085 L 510.6286600000001 501.09085 L 511.27634 494.3363 z M 522.43213 494.3363 L 531.8091400000001 494.3363 L 531.8091400000001 501.09085 L 522.1080900000001 501.09085 L 522.43213 494.3363 z M 533.5932 494.3363 L 542.96844 494.3363 L 543.29248 501.09085 L 533.5931999999999 501.09085 L 533.5931999999999 494.3363 z M 544.75311 494.3363 L 554.12426 494.3363 L 554.7719000000001 501.09085 L 545.0772000000001 501.09085 L 544.75311 494.3363 z M 555.91766 494.3363 L 565.27942 494.3363 L 566.25073 501.09085 L 556.56531 501.09085 L 555.91766 494.3363 z M 567.08258 494.3363 L 576.4339 494.3363 L 577.72925 501.09085 L 568.0539 501.09085 L 567.08258 494.3363 z M 578.25085 494.3363 L 587.58471 494.3363 L 589.20409 501.09085 L 579.54613 501.09085 L 578.25085 494.3363 z M 589.41925 494.3363 L 598.7337600000001 494.3363 L 600.6767500000001 501.09085 L 591.0386300000001 501.09085 L 589.41925 494.3363 z M 600.59033 494.3363 L 609.88196 494.3363 L 612.1485600000001 501.09085 L 602.5333300000001 501.09085 L 600.59033 494.3363 z M 600.07727 492.55228 L 598.30212 486.38138 L 607.21246 486.38138 L 609.28332 492.55228 L 600.07727 492.55228 z M 609.09296 486.38138 L 617.9760799999999 486.38138 L 620.3424099999999 492.55228 L 611.1638199999999 492.55228 L 609.09296 486.38138 z M 614.44397 477.17032 L 606.00208 477.17032 L 604.26856 472.00464 L 612.46308 472.00464 L 614.44397 477.17032 z M 452.93753 472.00464 L 461.13201999999995 472.00464 L 459.39852999999994 477.17032 L 450.9566699999999 477.17032 L 452.93753 472.00464 z M 444.37415 494.3363 L 453.63813 494.3363 L 451.37153 501.09085 L 441.78391 501.09085 L 444.37415 494.3363 z M 614.02911 501.09085 L 611.76245 494.3363 L 621.0264299999999 494.3363 L 623.6166999999999 501.09085 L 614.02911 501.09085 z" stroke-linecap="round" />
</g>
		<g transform="matrix(1 0 0 1 105.81255662863573 73.18945800125924)" id="path-03_00000006668552965718144580000011297941649930878605_"  >
<linearGradient id="SVGID_72940" gradientUnits="userSpaceOnUse" gradientTransform="matrix(1 0 0 1 644.41791 468.603372931471)"  x1="0" y1="0" x2="0" y2="3">
<stop offset="0%" style="stop-color:rgb(91,36,122);stop-opacity: 1"/>
<stop offset="100%" style="stop-color:rgb(27,206,223);stop-opacity: 1"/>
</linearGradient>
<path style="stroke: none; stroke-width: 1; stroke-dasharray: none; stroke-linecap: butt; stroke-dashoffset: 0; stroke-linejoin: miter; stroke-miterlimit: 4; fill: url(#SVGID_72940); fill-rule: nonzero; opacity: 1;"  paint-order="stroke"  transform=" translate(-647.32321, -470.18945300125927)" d="M 644.41791 471.1246 C 644.41791 471.1246 644.78107 468.75335 647.23242 468.60965 C 649.6837700000001 468.46594999999996 650.22851 470.83718999999996 650.22851 470.83718999999996 C 650.22851 470.83718999999996 647.77722 472.74136 644.41791 471.1246 z" stroke-linecap="round" />
</g>
		<g transform="matrix(1 0 0 1 -8.81343837136437 -38.49631999999998)" id="path-02_00000176732795299003979500000004205577281580940715_"  >
<path style="stroke: none; stroke-width: 1; stroke-dasharray: none; stroke-linecap: butt; stroke-dashoffset: 0; stroke-linejoin: miter; stroke-miterlimit: 4; fill: rgb(145,222,226); fill-rule: nonzero; opacity: 1;"  paint-order="stroke"  transform=" translate(-532.6972149999999, -358.50367500000004)" d="M 648.88177 293.68118 L 648.88177 295.32248 L 528.54919 430.92612 L 501.62834999999995 430.92612 L 630.1852299999999 286.08124000000004 L 641.2996099999999 286.08124000000004 C 645.49182 286.08124 648.88177 289.48877 648.88177 293.68118 z M 533.2948 286.08124 L 416.51266 417.65298 L 416.51266 423.34402 C 416.51266 427.53652 419.90213 430.92611 424.09475 430.92611 L 463.14684 430.92611 L 591.70372 286.08123 L 533.2948 286.08123 z" stroke-linecap="round" />
</g>
		<g transform="matrix(1 0 0 1 -8.813433371364269 24.58678499999995)" id="path-01_00000160165798021562150240000001834985586400625320_"  >
<path style="stroke: none; stroke-width: 1; stroke-dasharray: none; stroke-linecap: butt; stroke-dashoffset: 0; stroke-linejoin: miter; stroke-miterlimit: 4; fill: rgb(115,115,115); fill-rule: nonzero; opacity: 1;"  paint-order="stroke"  transform=" translate(-532.69722, -421.58678)" d="M 648.88177 412.24744 L 648.88177 423.34403 C 648.88177 427.53652999999997 645.49182 430.92611999999997 641.29962 430.92611999999997 L 424.09476 430.92611999999997 C 419.90213 430.92611999999997 416.51267 427.53652999999997 416.51267 423.34403 L 416.51267 412.24744 L 648.88177 412.24744 z" stroke-linecap="round" />
</g>
</g>
</g>
<g transform="matrix(1.8970258589012055 0 0 1.8970258589012055 481.5509530893503 697.3393240745805)" id="shape-0e0407a6-b8cd-4145-bebf-be5c96d7ead2"  >
<g style=""  paint-order="stroke"   >
		<g transform="matrix(1 0 0 1 -112.47013464994386 15.975142807091629)" id="path-06_00000037664058522082316150000015324661899213811328_"  >
<path style="stroke: none; stroke-width: 1; stroke-dasharray: none; stroke-linecap: butt; stroke-dashoffset: 0; stroke-linejoin: miter; stroke-miterlimit: 4; fill: rgb(84,84,85); fill-rule: nonzero; opacity: 1;"  paint-order="stroke"  transform=" translate(267.47012898981006, -760.209181520465)" d="M -260.99707 734.53076 L -279.89117 783.71545 C -280.34298 784.8916 -279.31935999999996 786.10357 -278.08419 785.85485 L -254.94026999999997 781.19555 L -260.99707 734.53076 z" stroke-linecap="round" />
</g>
		<g transform="matrix(1 0 0 1 6.004047297253194 0)" id="path-05_00000002377346689603668240000017254602933579106455_"  >
<path style="stroke: none; stroke-width: 1; stroke-dasharray: none; stroke-linecap: butt; stroke-dashoffset: 0; stroke-linejoin: miter; stroke-miterlimit: 4; fill: rgb(165,166,165); fill-rule: nonzero; opacity: 1;"  paint-order="stroke"  transform=" translate(148.995947042613, -744.2340387133734)" d="M -244.50043 805.55286 L -83.65689 773.0904 C -82.94943 772.94758 -82.21451 773.0465800000001 -81.57006 773.37153 L -30.807809999999996 798.9654 C -29.562819999999995 799.5930900000001 -29.811639999999997 801.43989 -31.178359999999998 801.71577 L -190.50732 833.87257 C -192.19595999999999 834.21333 -193.95015999999998 833.977 -195.48839999999998 833.20143 L -244.87097999999997 808.30324 C -246.11597 807.67548 -245.86716 805.82867 -244.50043 805.55286 z M -246.75684 803.20032 L -87.4871 771.0556700000001 C -83.32218999999999 770.21418 -80.54527999999999 766.39606 -81.02913 762.17487 L -92.53801 661.63782 C -93.00824 657.5364400000001 -96.47416 654.44361 -100.59913 654.44361 C -101.13744 654.44361 -101.67939 654.4972 -102.20954 654.60432 L -261.47837000000004 686.74891 C -265.64420000000007 687.5904 -268.42109000000005 691.40858 -267.93726000000004 695.62977 L -256.42746000000005 796.16499 C -255.95905000000005 800.26728 -252.49403000000007 803.36097 -248.36725000000004 803.36097 C -247.82893 803.36096 -247.28699 803.30743 -246.75684 803.20032 z" stroke-linecap="round" />
</g>
		<g transform="matrix(1 0 0 1 17.182612919818425 58.4076058527271)" id="path-04_00000170998399073749016560000015485508699915542407_"  >
<path style="stroke: none; stroke-width: 1; stroke-dasharray: none; stroke-linecap: butt; stroke-dashoffset: 0; stroke-linejoin: miter; stroke-miterlimit: 4; fill: rgb(84,84,85); fill-rule: nonzero; opacity: 1;"  paint-order="stroke"  transform=" translate(137.81738142004778, -802.6416445661005)" d="M -38.01563 797.86646 L -82.81748 775.27802 C -82.93005000000001 775.22266 -83.05533 775.20453 -83.17969000000001 775.22992 L -237.47843 806.37238 C -237.71082 806.41956 -237.88874 806.6084000000001 -237.92051 806.84443 C -237.95229 807.08045 -237.83065000000002 807.31013 -237.61913 807.41724 L -192.81818 830.00562 C -192.7392 830.04462 -192.65387 830.06464 -192.56673 830.06464 C -192.52951000000002 830.06464 -192.4932 830.0609800000001 -192.45598 830.05371 L -38.15634 798.91125 C -37.92394 798.86407 -37.74602 798.6752299999999 -37.71425 798.4392 C -37.68248 798.2031700000001 -37.80412 797.97357 -38.01563 797.86646 z" stroke-linecap="round" />
</g>
		<g transform="matrix(1 0 0 1 17.183179339866186 58.407686286626586)" id="path-03_00000170993105178754114610000011416018319818996125_"  >
<path style="stroke: none; stroke-width: 1; stroke-dasharray: none; stroke-linecap: butt; stroke-dashoffset: 0; stroke-linejoin: miter; stroke-miterlimit: 4; fill: rgb(216,225,249); fill-rule: nonzero; opacity: 1;"  paint-order="stroke"  transform=" translate(137.81681500000002, -802.641725)" d="M -108.0659 796.06775 L -113.92099 793.11554 L -103.82246 791.07745 L -97.96749000000001 794.02954 L -108.0659 796.06775 z M -96.35594 794.84204 L -90.49938 797.79492 L -100.59779 799.8331300000001 L -106.45447 796.8801300000001 L -96.35594 794.84204 z M -115.53242 792.30316 L -121.38774000000001 789.35095 L -111.28933 787.31274 L -105.43401 790.26495 L -115.53242 792.30316 z M -117.30328 792.66064 L -127.40169 794.69873 L -133.25712000000001 791.74646 L -123.15871000000001 789.70837 L -117.30328 792.66064 z M -115.69196 793.47296 L -109.83676 796.4251099999999 L -119.93517 798.46332 L -125.79038 795.51117 L -115.69196 793.47296 z M -121.70603 798.82074 L -131.80263 800.85846 L -137.65784 797.90637 L -127.56124 795.86859 L -121.70603 798.82074 z M -133.57349 801.21594 L -143.67191 803.2541500000001 L -149.52712 800.3020000000001 L -139.4287 798.2637900000001 L -133.57349 801.21594 z M -145.44287 803.61157 L -155.54129 805.6497800000001 L -161.39638 802.6976300000001 L -151.29798 800.6594200000001 L -145.44287 803.61157 z M -157.31226 806.0072 L -167.41068 808.0454100000001 L -173.26589 805.0932600000001 L -163.16736 803.0551100000001 L -157.31226 806.0072 z M -177.66862 811.25342 L -167.57022 809.21533 L -161.71353 812.16809 L -171.81195 814.2063 L -177.66862 811.25342 z M -173.58293 814.56372 L -183.68133 816.60193 L -189.5379 813.64905 L -179.43948 811.6108399999999 L -173.58293 814.56372 z M -179.27995 810.44104 L -185.13514 807.48883 L -175.03674 805.45074 L -169.18153 808.40283 L -179.27995 810.44104 z M -174.8772 804.28082 L -180.73263999999998 801.32849 L -170.63421999999997 799.2902799999999 L -164.77877999999998 802.2426099999999 L -174.8772 804.28082 z M -176.64806 804.63824 L -186.74648 806.67645 L -192.6019 803.7241200000001 L -182.5035 801.68591 L -176.64806 804.63824 z M -188.51744 807.03381 L -198.61597 809.0720200000001 L -204.47129 806.1197500000001 L -194.37289 804.08154 L -188.51744 807.03381 z M -186.90601 807.84625 L -181.05092000000002 810.7984 L -191.14945000000003 812.83655 L -197.00443000000004 809.88446 L -186.90601 807.84625 z M -192.9203 813.19403 L -203.01872 815.23212 L -208.87393 812.27997 L -198.77551 810.24176 L -192.9203 813.19403 z M -191.30888 814.00635 L -185.45218999999997 816.95941 L -195.55060999999998 818.99756 L -201.40740999999997 816.04456 L -191.30888 814.00635 z M -183.84088 817.77185 L -177.98567 820.72394 L -188.08409 822.76215 L -193.9393 819.81006 L -183.84088 817.77185 z M -182.0699 817.41443 L -171.9715 815.37622 L -166.11641 818.32831 L -176.21481 820.36652 L -182.0699 817.41443 z M -170.20052 815.0188 L -160.10212 812.98059 L -154.24703000000002 815.93268 L -164.34543000000002 817.97089 L -170.20052 815.0188 z M -158.33125 812.62311 L -148.23283 810.5849 L -142.37762 813.53717 L -152.47604 815.57526 L -158.33125 812.62311 z M -159.94257 811.81067 L -165.79936999999998 808.85785 L -155.70083999999997 806.8196399999999 L -149.84414999999996 809.77258 L -159.94257 811.81067 z M -153.92986 806.46222 L -143.83146 804.42401 L -137.97489 807.37695 L -148.07329 809.41516 L -153.92986 806.46222 z M -142.06059 804.06659 L -131.96217 802.02838 L -126.10537 804.98138 L -136.2039 807.01947 L -142.06059 804.06659 z M -130.19121 801.67096 L -120.09472000000001 799.63318 L -114.23804000000001 802.5862400000001 L -124.33452000000001 804.6239600000001 L -130.19121 801.67096 z M -118.32386 799.27576 L -108.22543999999999 797.2375499999999 L -102.36864999999999 800.1905499999999 L -112.46705999999999 802.22876 L -118.32386 799.27576 z M -100.75733 801.00305 L -94.90213 803.95514 L -105.00054 805.9933500000001 L -110.85575 803.04114 L -100.75733 801.00305 z M -98.98647 800.64563 L -88.88794 798.6074199999999 L -83.03285 801.5595099999999 L -93.13126 803.59772 L -98.98647 800.64563 z M -87.11697 798.24994 L -77.01856 796.2117900000001 L -71.16346999999999 799.1638800000001 L -81.26189 801.2020900000001 L -87.11697 798.24994 z M -88.72841 797.4375 L -94.58507999999999 794.48462 L -84.48666999999999 792.44647 L -78.62998999999999 795.39929 L -88.72841 797.4375 z M -82.71581 792.08905 L -72.6174 790.05084 L -66.76060000000001 793.00366 L -76.85901000000001 795.04187 L -82.71581 792.08905 z M -84.32713 791.27661 L -90.18233 788.32446 L -80.08391999999999 786.28625 L -74.22870999999999 789.2384 L -84.32713 791.27661 z M -86.09799 791.63403 L -96.19651999999999 793.6721200000001 L -102.05161 790.7200300000001 L -91.9532 788.68194 L -86.09799 791.63403 z M -103.66304 789.90753 L -109.51836 786.9553199999999 L -99.41995 784.9171099999999 L -93.56451 787.8694399999998 L -103.66304 789.90753 z M -111.12978 786.14282 L -116.9851 783.19061 L -106.88668 781.1524 L -101.03135999999999 784.1046699999999 L -111.12978 786.14282 z M -112.90076 786.50031 L -122.99917 788.5385200000001 L -128.85449 785.5862500000001 L -118.75607 783.54804 L -112.90076 786.50031 z M -124.77003 788.89594 L -134.86844 790.93415 L -140.72387999999998 787.9818200000001 L -130.62545999999998 785.94361 L -124.77003 788.89594 z M -136.63942 791.29156 L -146.73590000000002 793.32934 L -152.59122000000002 790.37707 L -142.49474000000004 788.33923 L -136.63942 791.29156 z M -135.02798 792.10394 L -129.17256 795.05615 L -139.26915 797.09387 L -145.12458999999998 794.14178 L -135.02798 792.10394 z M -141.04001 797.45135 L -151.13843 799.4895600000001 L -156.99385 796.5372900000001 L -146.89545 794.4992000000001 L -141.04001 797.45135 z M -152.90939 799.84698 L -163.00781 801.8851900000001 L -168.86323000000002 798.9328600000001 L -158.76483000000002 796.8947700000001 L -152.90939 799.84698 z M -170.47467 798.12048 L -176.32988 795.16827 L -166.23146 793.13006 L -160.37627 796.08227 L -170.47467 798.12048 z M -172.24553 798.47791 L -182.34395 800.516 L -188.19916 797.56391 L -178.10074 795.5256999999999 L -172.24553 798.47791 z M -184.11491 800.87347 L -194.21333 802.91168 L -200.06842 799.9595300000001 L -189.97002 797.92132 L -184.11491 800.87347 z M -195.9843 803.2691 L -206.08272 805.30731 L -211.9377 802.3551600000001 L -201.83928 800.3170100000001 L -195.9843 803.2691 z M -207.85358 805.66473 L -217.952 807.70294 L -223.80697 804.75085 L -213.70857 802.71264 L -207.85358 805.66473 z M -206.24226 806.47723 L -200.38682 809.42944 L -210.48524 811.46753 L -216.34066 808.51538 L -206.24226 806.47723 z M -212.2561 811.82495 L -222.3545 813.86316 L -228.20994 810.91095 L -218.11151999999998 808.8727399999999 L -212.2561 811.82495 z M -210.64479 812.63745 L -204.78958 815.5895399999999 L -214.88798 817.62775 L -220.74319 814.67566 L -210.64479 812.63745 z M -203.17827 816.40198 L -197.32157999999998 819.35504 L -207.42 821.39313 L -213.27667 818.44019 L -203.17827 816.40198 z M -195.71016 820.16736 L -189.85506 823.11963 L -199.95348 825.15772 L -205.80857 822.2055700000001 L -195.71016 820.16736 z M -188.24364 823.93195 L -182.38854 826.88422 L -192.48696 828.92231 L -198.34205 825.9701600000001 L -188.24364 823.93195 z M -186.47278 823.57465 L -176.37436 821.53644 L -170.51915 824.48853 L -180.61757 826.52674 L -186.47278 823.57465 z M -174.60339 821.17902 L -164.50497 819.14081 L -158.64988 822.0929 L -168.74828 824.13111 L -174.60339 821.17902 z M -162.73399 818.78333 L -152.63559 816.74518 L -146.78050000000002 819.69727 L -156.87890000000002 821.73548 L -162.73399 818.78333 z M -150.86473 816.3877 L -140.76631 814.34949 L -134.9111 817.30176 L -145.00952 819.33985 L -150.86473 816.3877 z M -138.99535 813.99207 L -128.89693 811.95398 L -123.04184 814.90607 L -133.14024 816.94428 L -138.99535 813.99207 z M -140.60677 813.17969 L -146.46187 810.2276 L -136.36345 808.18939 L -130.50836 811.14154 L -140.60677 813.17969 z M -134.59248 807.83197 L -124.49405999999999 805.79388 L -118.63886 808.7459699999999 L -128.73738 810.78406 L -134.59248 807.83197 z M -122.72321 805.43646 L -112.62661 803.39856 L -106.77152 806.35077 L -116.868 808.38855 L -122.72321 805.43646 z M -105.16009 807.16315 L -99.30511 810.11524 L -109.40147999999999 812.15314 L -115.25667999999999 809.20099 L -105.16009 807.16315 z M -103.38923 806.80573 L -93.29081 804.76764 L -87.43571999999999 807.71961 L -97.53412999999999 809.75782 L -103.38923 806.80573 z M -91.51984 804.41016 L -81.42142 802.37201 L -75.56645 805.3241 L -85.66475 807.3623100000001 L -91.51984 804.41016 z M -79.65045 802.01453 L -69.55204 799.97632 L -63.69706000000001 802.92847 L -73.79548000000001 804.96668 L -79.65045 802.01453 z M -67.78118 799.6189 L -57.682770000000005 797.58069 L -51.82779000000001 800.53284 L -61.92621000000001 802.5709899999999 L -67.78118 799.6189 z M -69.3925 798.80646 L -75.2477 795.85431 L -65.14929 793.8161 L -59.294079999999994 796.76825 L -69.3925 798.80646 z M -63.37832 793.45868 L -53.27911 791.4204699999999 L -47.423790000000004 794.3726199999999 L -57.523230000000005 796.4108899999999 L -63.37832 793.45868 z M -64.98975 792.6463 L -70.84643 789.69342 L -60.74722 787.6549699999999 L -54.890429999999995 790.60803 L -64.98975 792.6463 z M -72.45786 788.88098 L -78.31295 785.9288300000001 L -68.21385000000001 783.8905000000001 L -62.35865000000001 786.84265 L -72.45786 788.88098 z M -79.92438 785.11639 L -85.7797 782.1640600000001 L -75.68072000000001 780.12585 L -69.82529000000001 783.07806 L -79.92438 785.11639 z M -81.69524 785.47382 L -91.79365 787.5120300000001 L -97.64909 784.5597000000001 L -87.55067 782.5214900000001 L -81.69524 785.47382 z M -99.2604 783.74719 L -105.11583 780.7951 L -95.01742 778.75689 L -89.16199 781.70898 L -99.2604 783.74719 z M -154.3622 790.73444 L -148.50676 793.6867699999999 L -158.60529000000002 795.7248599999999 L -164.46050000000002 792.7726499999999 L -158.40922000000003 791.5513399999999 L -154.3622 790.73444 z M -225.57782 805.10828 L -219.72296 808.06037 L -229.82138 810.09846 L -235.67624 807.1464900000001 L -225.57782 805.10828 z M -121.27087 814.54865 L -127.12596 811.59656 L -117.02755 809.5584699999999 L -111.17246 812.5105599999999 L -116.85598 813.65753 L -121.27087 814.54865 z M -50.05693 800.17535 L -55.9118 797.22326 L -45.81237 795.18493 L -39.957390000000004 798.13696 L -50.05693 800.17535 z M -77.29226 779.31335 L -87.39113 781.35168 L -93.24656 778.39947 L -83.14769 776.36114 L -77.29226 779.31335 z" stroke-linecap="round" />
</g>
		<g transform="matrix(1 0 0 1 -18.17763946560511 -15.450473713373412)" id="path-02_00000162331394863413023690000012043866736589780874_"  >
<linearGradient id="SVGID_8_72944" gradientUnits="userSpaceOnUse" gradientTransform="matrix(1 0 0 1 -262.0365934578635 658.972536116258)"  x1="0" y1="0" x2="0" y2="140">
<stop offset="0%" style="stop-color:rgb(91,36,122);stop-opacity: 1"/>
<stop offset="100%" style="stop-color:rgb(27,206,223);stop-opacity: 1"/>
</linearGradient>
<path style="stroke: none; stroke-width: 1; stroke-dasharray: none; stroke-linecap: butt; stroke-dashoffset: 0; stroke-linejoin: miter; stroke-miterlimit: 4; fill: url(#SVGID_8_72944); fill-rule: nonzero; opacity: 1;"  paint-order="stroke"  transform=" translate(173.17763380547132, -728.783565)" d="M -87.10228 766.38055 L -246.37086999999997 798.52514 C -248.36347999999998 798.9273 -250.27343999999997 797.53814 -250.50462999999996 795.51855 L -262.01383 694.98248 C -262.21876 693.19226 -261.01926 691.54309 -259.25297 691.18658 L -99.98438000000002 659.04199 C -97.99178000000002 658.6398300000001 -96.08182000000002 660.02899 -95.85062000000002 662.04858 L -84.34144000000002 762.58465 C -84.1365 764.37488 -85.33598 766.02405 -87.10228 766.38055 z" stroke-linecap="round" />
</g>
		<g transform="matrix(1 0 0 1 -18.1461556601338 -15.450563713373413)" id="path-01_00000086672520919738343860000002062316077215436948_"  >
<path style="stroke: none; stroke-width: 1; stroke-dasharray: none; stroke-linecap: butt; stroke-dashoffset: 0; stroke-linejoin: miter; stroke-miterlimit: 4; fill: rgb(145,222,226); fill-rule: nonzero; opacity: 1;"  paint-order="stroke"  transform=" translate(173.14615, -728.783475)" d="M -95.57353 664.45721 L -184.38473 786.01721 L -205.03976 790.19098 L -110.82770000000001 661.22235 L -99.98899 659.03778 C -97.99028 658.63812 -96.08484 660.03247 -95.85245 662.04956 L -95.57353 664.45721 z M -161.43358 671.43829 L -250.71877 793.66754 L -250.50499 795.51739 C -250.27258 797.53448 -248.36704 798.92883 -246.36844 798.52917 L -215.79496999999998 792.35681 L -121.58289999999998 663.3974000000001 L -161.43358 671.43829 z" stroke-linecap="round" />
</g>
</g>
</g>
<g transform="matrix(-0.763411285169109 -0.3559845285963051 -0.3559845285963051 0.763411285169109 855.7554392890567 761.0509599363378)" id="shape-72537937-ee63-44f0-b65f-9b5c1b935b21"  >
<g style=""  paint-order="stroke"   >
		<g transform="matrix(1 0 0 1 0 0)" id="path-04_00000134242964551827096220000014724090012885286027_"  >
<path style="stroke: none; stroke-width: 1; stroke-dasharray: none; stroke-linecap: butt; stroke-dashoffset: 0; stroke-linejoin: miter; stroke-miterlimit: 4; fill: rgb(84,84,85); fill-rule: nonzero; opacity: 1;"  paint-order="stroke"  transform=" translate(-74.50000523457909, -149.99999930142528)" d="M 148.88684 267.8667 C 148.89279000000002 267.44219999999996 148.8945 267.01572 148.88429 266.58405 L 146.06857 147.51546 C 146.4993 147.4888 146.92418999999998 147.36849999999998 147.29446 147.12293 C 148.00439 146.65255 148.42201 145.85314 148.40064999999998 145.00549999999998 L 147.91699 126.00832999999999 C 147.89367 125.07045999999998 147.33719 124.22666999999998 146.4806 123.83105999999998 L 145.71081 123.47513999999998 C 146.04417 123.41989999999998 146.37109 123.32141999999997 146.66319000000001 123.13199999999998 C 147.38575 122.66402999999998 147.81210000000002 121.85738999999998 147.78976 121.00104999999998 L 147.32359 102.68074999999997 C 147.30029 101.75976999999997 146.76321 100.92850999999997 145.93090999999998 100.52373999999998 L 144.94611999999998 100.04527999999998 L 144.27793999999997 71.79280999999997 C 144.04581999999996 61.96157999999998 137.75834999999998 51.01494999999997 129.96454999999997 46.872209999999974 L 46.43641 2.48068 C 45.103030000000004 1.77179 43.77474 1.25847 42.46558 0.9052 C 40.42942 -0.13566999999999996 37.03135 -0.78009 32.224990000000005 1.86219 C 23.962110000000006 6.40294 15.311720000000005 18.60586 14.761060000000004 26.49767 L 0.0825 237.10968 C -0.9294800000000001 251.63315 7.48685 266.20581 18.84491 269.59546 L 119.62624 299.66519 C 120.40124999999999 299.89578 121.19762999999999 300 122.00468 300 C 125.90885999999999 300 130.04419 297.55786 133.04808 295.28363 C 140.93802 289.30905 149.20868 278.12314000000003 148.99599 269.15839 C 148.99501 269.10532 148.9921 269.05225 148.98725000000002 268.99918 L 148.88684 267.8667 z" stroke-linecap="round" />
</g>
		<g transform="matrix(1 0 0 1 -4.680870068417619 4.29936881383091)" id="path-03_00000164496778257752346080000003967843163062221211_"  >
<path style="stroke: none; stroke-width: 1; stroke-dasharray: none; stroke-linecap: butt; stroke-dashoffset: 0; stroke-linejoin: miter; stroke-miterlimit: 4; fill: rgb(165,166,165); fill-rule: nonzero; opacity: 1;"  paint-order="stroke"  transform=" translate(-69.81913516616147, -154.2993681152562)" d="M 20.2745 264.86368 L 121.05680000000001 294.93338 C 122.53300000000002 295.37531 125.66412000000001 294.66321 130.03447 291.35461 C 131.58693 290.17895 133.15855 288.75293 134.66463 287.18179 C 133.54264999999998 287.15851 132.40125999999998 286.98452 131.25623 286.64306 L 30.47394 256.57239 C 19.11685 253.18468 10.700519999999997 238.612 11.71153 224.08756999999997 L 26.38608 13.54708 C 22.68828 18.12311 19.95844 23.44531 19.721899999999998 26.83923 L 19.09621 35.81707 L 21.69147 37.07812 C 22.6005 37.51956 23.14923 38.464659999999995 23.0793 39.467659999999995 L 20.6115 74.87369 C 20.55517 75.68178999999999 20.103569999999998 76.41075 19.40334 76.82517 C 19.01292 77.05626 18.57297 77.17301 18.13108 77.17301 C 17.78048 77.17301 17.428910000000002 77.09920000000001 17.10065 76.95061000000001 L 16.256020000000003 76.56833000000002 L 5.04333 237.45125 C 4.19646 249.59337 11.17251 262.14655 20.2745 264.86368 z" stroke-linecap="round" />
</g>
		<g transform="matrix(1 0 0 1 7.221656220479261 -8.25859802436058)" id="path-02_00000005963548776510722930000015985494734637657004_"  >
<linearGradient id="SVGID_4_72942" gradientUnits="userSpaceOnUse" gradientTransform="matrix(1 0 0 1 27.38781472358277 16.910084187173325)"  x1="0" y1="0" x2="0" y2="250">
<stop offset="0%" style="stop-color:rgb(91,36,122);stop-opacity: 1"/>
<stop offset="100%" style="stop-color:rgb(27,206,223);stop-opacity: 1"/>
</linearGradient>
<path style="stroke: none; stroke-width: 1; stroke-dasharray: none; stroke-linecap: butt; stroke-dashoffset: 0; stroke-linejoin: miter; stroke-miterlimit: 4; fill: url(#SVGID_4_72942); fill-rule: nonzero; opacity: 1;"  paint-order="stroke"  transform=" translate(-81.72166145505835, -141.74140127706468)" d="M 75.61107 25.53501 L 96.13668 36.35144 C 96.65505 36.62461999999999 97.07309 37.308119999999995 97.06617 37.871069999999996 C 97.05919 38.434569999999994 96.62901 38.67312999999999 96.10973 38.40049 L 75.54836 27.60608 C 75.00777000000001 27.32228 74.5796 26.62298 74.59733 26.052909999999997 C 74.61505 25.48333 75.07145 25.25061 75.61107 25.53501 z M 100.33677 39.59135 C 100.34223 39.02707 100.76524 38.79061 101.28113 39.06247 C 101.79653 39.33408 102.2102 40.01065 102.20564 40.574389999999994 C 102.20102 41.13860999999999 101.77916 41.376929999999994 101.26291 41.10585999999999 C 100.74619 40.83461 100.33131 40.15618 100.33677 39.59135 z M 132.916 69.59637 C 132.84776 65.48101 129.90385 60.660979999999995 126.31712 58.794169999999994 L 47.67589 17.86248 C 43.47634 15.676710000000002 39.837900000000005 17.37618 39.576890000000006 21.701700000000002 L 27.41117 223.35637 C 27.05256 229.29982 30.86666 235.44989 35.89111 237.03406 L 128.68597 266.29105 C 132.86039 267.60721 136.14471 264.18282999999997 136.05366 258.69037 L 132.916 69.59637 z M 88.35132 45.38725 C 87.20179 44.79596 86.28942 43.30575 86.31571 42.062380000000005 C 86.34187 40.821470000000005 87.29333 40.299890000000005 88.43849 40.89396000000001 C 89.58115000000001 41.486700000000006 90.48794000000001 42.96822000000001 90.46602 44.206360000000004 C 90.44405 45.44701 89.49829 45.97728 88.35132 45.38725 z" stroke-linecap="round" />
</g>
		<g transform="matrix(1 0 0 1 10.94441269918589 -9.209715710076779)" id="path-01"  >
<path style="stroke: none; stroke-width: 1; stroke-dasharray: none; stroke-linecap: butt; stroke-dashoffset: 0; stroke-linejoin: miter; stroke-miterlimit: 4; fill: rgb(145,222,226); fill-rule: nonzero; opacity: 1;"  paint-order="stroke"  transform=" translate(-85.44441793376498, -140.7902835913485)" d="M 43.22699 89.60425 L 44.11533 73.22565999999999 C 44.2845 70.10588999999999 46.8102 68.69503999999999 49.71454 70.0697 L 64.48391 77.06018 C 67.29464999999999 78.39052000000001 69.49883 81.97977 69.39497 85.05614 L 68.84977 101.20068 C 68.74269000000001 104.37147 66.31387000000001 105.93091000000001 63.43885000000001 104.6455 L 48.3264 97.88912 C 45.35353 96.55999 43.05248 92.82214 43.22699 89.60425 z M 67.65272 136.65089 L 68.22827000000001 119.6075 C 68.3379 116.3612 66.07351000000001 112.68004 63.18270000000001 111.40615 L 47.98607000000001 104.70965 C 44.99638000000001 103.39222 42.39238000000001 104.99351 42.21362000000001 108.28985999999999 L 41.27466000000001 125.60305999999999 C 41.09007000000001 129.00602999999998 43.45680000000001 132.84374999999997 46.519140000000014 134.10858 L 62.079180000000015 140.53528 C 65.03797 141.75732 67.5397 139.99966 67.65272 136.65089 z M 50.03685 63.61063 L 64.72658 70.6531 C 67.52251 71.99345 69.88262 70.61413999999999 69.98411 67.60743 L 70.50127 52.29245999999999 C 70.59985 49.37306999999999 68.45279000000001 45.87131999999999 65.71768 44.491899999999994 L 51.35233 37.24674999999999 C 48.52866 35.82263999999999 46.076710000000006 37.06064999999999 45.916340000000005 40.01771999999999 L 45.07475000000001 55.53531999999999 C 44.90945 58.58279 47.14835 62.2259 50.03685 63.61063 z M 95.28561 91.63895 L 81.36033 85.048 C 78.62334 83.75251 76.30262 85.1838 76.21588 88.24816 L 75.76064 104.32840999999999 C 75.67121999999999 107.48624 77.89810999999999 111.10992999999999 80.69615999999999 112.36089999999999 L 94.92663999999999 118.72299999999998 C 97.63522999999999 119.93398999999998 99.86507999999999 118.36284999999998 99.89451999999999 115.25097999999998 L 100.04444999999998 99.39952999999998 C 100.07303 96.37769 97.93702 92.89384 95.28561 91.63895 z M 124.67661 138.50385 L 111.18642 132.55936 C 108.53501 131.39101 106.34401 133.01316 106.32997999999999 136.18354 L 106.25641999999999 152.81921 C 106.24197 156.08595 108.45688999999999 159.69047 111.16554 160.80918 L 124.94210999999999 166.49924 C 127.56450999999998 167.58231999999998 129.66543 165.82177 129.62366999999998 162.60603999999998 L 129.41085999999999 146.22481 C 129.3703 143.10182 127.24522 139.63577 124.67661 138.50385 z M 99.56564 150.01692 L 99.72371 133.30949 C 99.75381999999999 130.12573 97.56136 126.55535 94.83868 125.35557000000001 L 80.53341999999999 119.05185000000002 C 77.72049 117.81233000000002 75.33323999999999 119.42610000000002 75.24171 122.65865000000002 L 74.76133 139.62816000000004 C 74.66695 142.96202000000002 76.95525 146.67943000000002 79.83264 147.86788000000004 L 94.46021 153.90944000000005 C 97.24323 155.05888 99.53463 153.29808 99.56564 150.01692 z M 84.84144 226.24463 C 82.05206000000001 225.29543 79.71507000000001 227.33513 79.63483000000001 230.8206 C 79.55416000000001 234.32332000000002 81.78165000000001 237.9282 84.59676 238.85208 C 87.39689 239.77107 89.70066 237.68095 89.75573 234.20361 C 89.81047 230.7433 87.61613 227.18883 84.84144 226.24463 z M 66.50386 220.00465 C 63.615970000000004 219.02191 61.159710000000004 221.07095999999999 61.031330000000004 224.60209 C 60.90222000000001 228.15112 63.172320000000006 231.82076 66.08771 232.77763000000002 C 68.98738 233.72926 71.40916 231.62797 71.51077000000001 228.10499000000002 C 71.61183 224.59956 69.37621 220.98209 66.50386 220.00465 z M 102.55958 232.27385 C 99.86373999999999 231.35648 97.63947999999999 233.38631 97.60415 236.82709 C 97.56864 240.28458 99.75521 243.82692 102.47509000000001 244.71956 C 105.1807 245.60748 107.37304 243.52901 107.38457000000001 240.0963 C 107.39604 236.68011 105.24146 233.18645 102.55958 232.27385 z M 100.34903 67.19489 C 100.37622 64.3229 98.29387 60.92156 95.71002 59.61842 L 82.14517000000001 52.777010000000004 C 79.48005 51.432860000000005 77.22227000000001 52.698010000000004 77.13996 55.607020000000006 L 76.70797 70.8661 C 76.62317 73.86153 78.79178 77.39609 81.51469 78.70146 L 95.36908 85.34337 C 98.00719 86.60808999999999 100.17866 85.20985999999999 100.20657 82.25452999999999 L 100.34903 67.19489 z M 111.19127 125.99458 L 124.61488 131.99599 C 127.17105 133.13878 129.22039 131.55986000000001 129.18056 128.50545 L 128.97830000000002 112.94009 C 128.93970000000002 109.97155 126.86791000000002 106.58715 124.36266000000002 105.40137 L 111.21112000000002 99.17665 C 108.62733000000003 97.95371999999999 106.49271000000002 99.40086 106.47942000000002 102.41100999999999 L 106.40956000000001 118.19962 C 106.39584 121.29884 108.55315 124.81518 111.19127 125.99458 z M 128.567 81.28349 C 128.53023000000002 78.4583 126.50881000000001 75.15169 124.06409000000001 73.91869 L 111.23461 67.44821999999999 C 108.71504 66.17746999999999 106.63402 67.46480999999999 106.62134 70.32647999999999 L 106.55499 85.33118999999999 C 106.54194 88.27547999999999 108.64457 91.70782 111.21573000000001 92.94045999999999 L 124.30396 99.21506 C 126.79725 100.41042999999999 128.79717 98.99736 128.75942 96.09245 L 128.567 81.28349 z" stroke-linecap="round" />
</g>
</g>
</g>
</svg>